<?xml version="1.0" encoding="utf-8"?>
<!-- Generator: Adobe Illustrator 16.0.0, SVG Export Plug-In . SVG Version: 6.00 Build 0)  -->
<!DOCTYPE svg PUBLIC "-//W3C//DTD SVG 1.1//EN" "http://www.w3.org/Graphics/SVG/1.1/DTD/svg11.dtd">
<svg version="1.1" id="Layer_1" xmlns="http://www.w3.org/2000/svg" xmlns:xlink="http://www.w3.org/1999/xlink" x="0px" y="0px"
	 width="42.791px" height="42.792px" viewBox="0 0 42.791 42.792" enable-background="new 0 0 42.791 42.792" xml:space="preserve">
<g id="paperplane">
	<g>
		<path fill="#333333" d="M42.179,0.216C41.958,0.071,41.706,0,41.454,0c-0.26,0-0.518,0.074-0.744,0.226L0.594,26.973
			c-0.413,0.271-0.639,0.756-0.587,1.248c0.05,0.497,0.372,0.921,0.833,1.105l10.461,4.184l4.92,8.609
			c0.235,0.413,0.673,0.671,1.148,0.673h0.012c0.469,0,0.907-0.246,1.147-0.647l2.78-4.633l12.962,5.185
			c0.159,0.064,0.327,0.096,0.496,0.096c0.227,0,0.453-0.056,0.654-0.172c0.353-0.197,0.597-0.544,0.665-0.942l6.686-40.12
			C42.859,1.032,42.627,0.506,42.179,0.216z M12.297,31.027l-8.104-3.242l30.99-20.662L12.652,31.245
			C12.534,31.175,12.426,31.078,12.297,31.027z M17.353,38.706l-3.728-6.521c-0.003-0.006-0.007-0.009-0.009-0.015l25.33-27.113
			L17.353,38.706z M33.722,39.595l-11.423-4.566c-0.272-0.108-0.554-0.144-0.835-0.159l17.59-27.265L33.722,39.595z"/>
	</g>
</g>
</svg>
