<?xml version="1.0" encoding="utf-8"?>
<!-- Generator: Adobe Illustrator 16.0.0, SVG Export Plug-In . SVG Version: 6.00 Build 0)  -->
<!DOCTYPE svg PUBLIC "-//W3C//DTD SVG 1.1//EN" "http://www.w3.org/Graphics/SVG/1.1/DTD/svg11.dtd">
<svg version="1.1" id="Layer_1" xmlns="http://www.w3.org/2000/svg" xmlns:xlink="http://www.w3.org/1999/xlink" x="0px" y="0px"
	 width="23.065px" height="24.423px" viewBox="0 0 23.065 24.423" enable-background="new 0 0 23.065 24.423" xml:space="preserve">
<image display="none" overflow="visible" width="1440" height="900" xlink:href="../../Captura de ecrã 2013-06-6, às 19.57.40.png"  transform="matrix(1 0 0 1 -267.022 -333.3325)">
</image>
<rect x="-7.688" y="-5.333" display="none" fill="#0AA8A5" width="40" height="35.333"/>
<g display="none">
	<g display="inline">
		<path fill="#FFFFFF" d="M19.084,10.842h0.002c0.001,0.188,0.153,0.34,0.343,0.34s0.343-0.154,0.343-0.343
			c0-0.002-0.001-0.003-0.001-0.005c-0.004-3.779-3.066-6.841-6.848-6.85c-0.006-0.001-0.011-0.004-0.018-0.004
			c-0.19,0-0.344,0.154-0.344,0.343c0,0.189,0.153,0.342,0.343,0.343v0.002C16.313,4.668,19.084,7.438,19.084,10.842z M6.809,1.839
			C6.416,1.445,5.888,1.236,5.352,1.236c-0.265,0-0.533,0.051-0.787,0.157C3.794,1.711,3.292,2.461,3.292,3.294v9.438L1.15,14.872
			c-0.805,0.804-0.805,2.107,0,2.911l4.807,4.802c0.402,0.401,0.929,0.603,1.456,0.603s1.054-0.201,1.456-0.603l2.144-2.141h9.446
			c0.833,0,1.584-0.501,1.903-1.271c0.318-0.769,0.143-1.654-0.447-2.243L6.809,1.839z M10.042,19.473l-2.144,2.141
			c-0.175,0.175-0.38,0.201-0.485,0.201c-0.106,0-0.311-0.026-0.485-0.201l-4.807-4.802c-0.175-0.175-0.201-0.379-0.201-0.485
			c0-0.105,0.026-0.31,0.201-0.484l2.143-2.142c0.006-0.006,0.008-0.015,0.014-0.021l5.785,5.779
			C10.056,19.465,10.047,19.467,10.042,19.473z M11.012,19.071c-0.107,0-0.205,0.038-0.308,0.061l-6.101-6.095
			c0.023-0.102,0.062-0.2,0.062-0.306V4.468l14.618,14.603H11.012z M21.092,18.648c-0.106,0.257-0.355,0.423-0.634,0.423h-0.204
			L4.666,3.498V3.294c0-0.279,0.167-0.527,0.424-0.634c0.085-0.035,0.173-0.052,0.263-0.052c0.184,0,0.355,0.071,0.485,0.2
			L20.944,17.9C21.141,18.097,21.199,18.391,21.092,18.648z M12.905,2.608V2.61c4.544,0,8.24,3.693,8.24,8.232h0.001
			c0.001,0.377,0.308,0.683,0.686,0.683c0.38,0,0.688-0.307,0.688-0.686c0-0.002-0.002-0.003-0.002-0.005
			C22.513,5.54,18.222,1.25,12.923,1.24c-0.006,0-0.011-0.004-0.018-0.004c-0.379,0-0.687,0.307-0.687,0.686
			C12.219,2.3,12.527,2.607,12.905,2.608z"/>
	</g>
</g>
<path fill="#FFFFFF" d="M21.136,5.352h-0.607c-0.36,0-0.707,0.142-0.963,0.396L17.707,7.58V6.724c0-1.137-0.921-2.058-2.058-2.058
	H2.615c-1.135,0-2.058,0.923-2.058,2.058v4.782V17.7c0,1.137,0.921,2.058,2.058,2.058h13.033c1.137,0,2.058-0.921,2.058-2.058
	v-0.837l1.859,1.833c0.256,0.253,0.603,0.396,0.963,0.396h0.607c0.758,0,1.372-0.614,1.372-1.372V6.724
	C22.508,5.966,21.894,5.352,21.136,5.352z M2.615,18.385c-0.379,0-0.686-0.308-0.686-0.686V6.724c0-0.379,0.307-0.686,0.686-0.686
	h13.033c0.379,0,0.686,0.308,0.686,0.686V17.7c0,0.378-0.307,0.686-0.686,0.686H2.615z M21.136,17.719h-0.607H20.45l-2.744-2.744
	v-0.02l-0.686-0.686v-4.116l3.43-3.43h0.079h0.607V17.719z"/>
<g display="none">
	<g display="inline">
		<path fill-rule="evenodd" clip-rule="evenodd" fill="#FFFFFF" d="M11.533,7.753c-3.031,0-5.488,2.457-5.488,5.488
			c0,3.031,2.457,5.488,5.488,5.488s5.488-2.457,5.488-5.488C17.021,10.21,14.564,7.753,11.533,7.753z M14.657,15.919
			c-1.479,1.727-4.077,1.926-5.803,0.447c-1.727-1.479-1.925-4.078-0.446-5.803c1.479-1.727,4.077-1.926,5.803-0.447
			C15.937,11.596,16.136,14.194,14.657,15.919z M11.533,10.498c-1.516,0-2.744,1.229-2.744,2.743v0.001
			c0,0.189,0.153,0.343,0.343,0.343s0.343-0.153,0.343-0.343v-0.001c0.001-1.136,0.921-2.057,2.058-2.057
			c0.189,0,0.343-0.153,0.343-0.343C11.876,10.651,11.722,10.498,11.533,10.498z M20.789,7.095l-2.973-0.496l-0.942-2.355
			c-0.315-0.786-1.065-1.293-1.911-1.293h-6.86c-0.845,0-1.596,0.507-1.911,1.293L5.25,6.599L2.278,7.095
			C1.28,7.261,0.557,8.114,0.557,9.125v10.289c0,1.135,0.923,2.058,2.058,2.058H20.45c1.135,0,2.058-0.923,2.058-2.058V9.125
			C22.508,8.114,21.785,7.261,20.789,7.095z M21.136,19.414c0,0.379-0.307,0.686-0.686,0.686H2.615
			c-0.379,0-0.686-0.306-0.686-0.686V9.125c0-0.336,0.242-0.622,0.573-0.677l3.735-0.622l1.229-3.072
			C7.57,4.494,7.822,4.323,8.103,4.323h6.86c0.28,0,0.532,0.17,0.637,0.431l1.229,3.072l3.735,0.622
			c0.331,0.055,0.573,0.341,0.573,0.677V19.414z"/>
	</g>
</g>
<path display="none" fill="#FFFFFF" d="M20.721,3.005c-1.128-1.126-2.613-1.77-4.079-1.77c-1.234,0-2.372,0.458-3.202,1.288
	l-3.339,3.364c-0.011,0.009-0.022,0.016-0.032,0.026c-0.006,0.005-0.009,0.012-0.015,0.018l0.002,0.001l-7.087,7.14
	c-0.325,0.324-0.562,0.729-0.694,1.169l-1.611,5.836c-0.002,0.016-0.106,0.475-0.106,0.708c0,1.326,1.076,2.4,2.404,2.4
	c0.264,0,0.774-0.125,0.793-0.128L9.57,21.53c0.442-0.131,0.844-0.37,1.17-0.697l10.47-10.552C23.115,8.375,22.9,5.18,20.721,3.005z
	 M11.542,17.56c-0.057-0.62-0.231-1.227-0.493-1.803l6.485-6.485c0.396,1.253,0.193,2.563-0.676,3.433
	c-0.005,0.005-0.013,0.009-0.018,0.014l0.009,0.008l-5.301,5.343C11.55,17.9,11.558,17.733,11.542,17.56z M10.705,15.131
	c-0.255-0.421-0.546-0.827-0.906-1.187c-0.42-0.419-0.9-0.747-1.402-1.023l6.539-6.539c0.512,0.228,1.005,0.552,1.438,0.986
	c0.371,0.37,0.658,0.784,0.879,1.214L10.705,15.131z M7.75,12.597c-0.636-0.256-1.301-0.401-1.968-0.411l5.284-5.324
	c0.809-0.789,1.987-1.016,3.147-0.728L7.75,12.597z M3.416,21.729c-0.074,0.017-0.307,0.076-0.466,0.087
	c-0.563-0.006-1.021-0.465-1.021-1.029c0.008-0.115,0.054-0.313,0.069-0.386l0.722-2.617c0.784-0.021,1.628,0.284,2.292,0.948
	c0.673,0.674,0.99,1.534,0.955,2.326L3.416,21.729z M6.644,20.88c-0.017-0.92-0.392-1.877-1.146-2.632
	c-0.715-0.716-1.65-1.129-2.583-1.166l0.683-2.475c0.05-0.165,0.147-0.327,0.269-0.47c1.376-0.985,3.492-0.694,4.962,0.777
	c1.556,1.555,1.796,3.832,0.598,5.191c-0.079,0.042-0.159,0.082-0.246,0.108L6.644,20.88z M20.239,9.312l-1.155,1.165
	c0-0.155,0.019-0.304,0.005-0.462c-0.121-1.327-0.74-2.611-1.745-3.614c-1.117-1.118-2.6-1.76-4.066-1.764l1.137-1.146
	c0.567-0.567,1.36-0.882,2.229-0.882c1.104,0,2.238,0.499,3.11,1.369c0.818,0.817,1.307,1.832,1.376,2.859
	C21.193,7.794,20.876,8.673,20.239,9.312z"/>
<g display="none">
	<g display="inline">
		<path fill="#FFFFFF" d="M17.15,5.215H3.43c-0.379,0-0.686,0.307-0.686,0.687V18.25c0,0.379,0.307,0.686,0.686,0.686h13.72
			c0.379,0,0.686-0.307,0.686-0.686V5.902C17.836,5.522,17.529,5.215,17.15,5.215z M3.43,18.25v-5.763l2.744-3.155l5.533,6.272
			l0.398,0.451L14,18.25H3.43z M17.15,18.25h-2.235l-2.352-2.713l1.843-2.09l2.744,3.005V18.25z M17.15,15.416l-2.229-2.422
			c-0.131-0.148-0.317-0.232-0.515-0.232c-0.197,0-0.384,0.084-0.514,0.232l-1.786,2.024l-5.417-6.14
			C6.558,8.73,6.371,8.646,6.174,8.646c-0.197,0-0.384,0.084-0.515,0.232L3.43,11.449V5.902h13.72V15.416z M13.034,11.389
			c1.137,0,2.058-0.921,2.058-2.058c0-1.137-0.921-2.059-2.058-2.059s-2.058,0.921-2.058,2.059
			C10.976,10.468,11.897,11.389,13.034,11.389z M13.034,7.959c0.756,0,1.372,0.616,1.372,1.372s-0.616,1.372-1.372,1.372
			s-1.372-0.616-1.372-1.372S12.277,7.959,13.034,7.959z M20.322,0H5.23C3.8,0,2.638,1.098,2.511,2.495C1.107,2.615,0,3.78,0,5.215
			V21.68c0,1.515,1.229,2.744,2.744,2.744h15.092c1.43,0,2.591-1.098,2.719-2.495c1.404-0.12,2.511-1.285,2.511-2.72V2.744
			C23.065,1.229,21.837,0,20.322,0z M19.208,21.68c0,0.755-0.615,1.372-1.372,1.372H2.744c-0.756,0-1.372-0.616-1.372-1.372V5.215
			c0-0.756,0.615-1.372,1.372-1.372h15.092c0.756,0,1.372,0.615,1.372,1.372V21.68z M21.693,19.208c0,0.667-0.48,1.224-1.114,1.345
			V5.215c0-1.515-1.229-2.744-2.744-2.744H3.886c0.126-0.626,0.681-1.1,1.344-1.1h15.092c0.756,0,1.372,0.615,1.372,1.372V19.208z"
			/>
	</g>
</g>
<g display="none">
	<g display="inline">
		<path fill="#FFFFFF" d="M18.421,1.892H3.329c-1.515,0-2.744,1.229-2.744,2.744V21.1c0,1.515,1.229,2.744,2.744,2.744h15.092
			c1.515,0,2.744-1.229,2.744-2.744V4.636C21.165,3.121,19.936,1.892,18.421,1.892z M18.421,22.472H3.329
			c-0.756,0-1.372-0.616-1.372-1.372V4.636c0-0.756,0.615-1.372,1.372-1.372l0.066,1.773C3.354,5.125,3.329,5.22,3.329,5.322V17.67
			c0,0.334,0.242,0.598,0.558,0.66l0.091,2.462l15.814-0.351V21.1C19.792,21.855,19.177,22.472,18.421,22.472z"/>
	</g>
</g>
</svg>
