<?xml version="1.0" encoding="utf-8"?>
<!-- Generator: Adobe Illustrator 16.0.0, SVG Export Plug-In . SVG Version: 6.00 Build 0)  -->
<!DOCTYPE svg PUBLIC "-//W3C//DTD SVG 1.1//EN" "http://www.w3.org/Graphics/SVG/1.1/DTD/svg11.dtd">
<svg version="1.1" id="Layer_1" xmlns="http://www.w3.org/2000/svg" xmlns:xlink="http://www.w3.org/1999/xlink" x="0px" y="0px"
	 width="18.85px" height="20.021px" viewBox="0 0 18.85 20.021" enable-background="new 0 0 18.85 20.021" xml:space="preserve">
<rect x="-7.688" y="-5.333" display="none" fill="#0AA8A5" width="40" height="35.333"/>
<g>
	<g>
		<g>
			<path fill="#FFFFFF" d="M16.288,0H2.521C1.137,0,0.016,1.117,0.016,2.496v14.98c0,1.38,1.121,2.498,2.505,2.498h13.768
				c1.383,0,2.503-1.118,2.503-2.498V2.497C18.791,1.117,17.671,0,16.288,0z M17.54,17.476c0,0.688-0.562,1.248-1.252,1.248H2.521
				c-0.69,0-1.252-0.561-1.252-1.248V2.497c0-0.688,0.562-1.248,1.252-1.248h13.768c0.69,0,1.252,0.561,1.252,1.248V17.476z
				 M14.962,3.124H3.846c-0.308,0-0.557,0.249-0.557,0.555v9.979c0,0.307,0.249,0.555,0.557,0.555h11.116
				c0.308,0,0.556-0.248,0.556-0.555V3.679C15.518,3.373,15.27,3.124,14.962,3.124z M3.846,13.658V9.001L6.069,6.45l4.483,5.069
				l0.323,0.365l1.534,1.772L3.846,13.658L3.846,13.658z M14.962,13.658h-1.811l-1.905-2.192l1.494-1.688l2.223,2.428L14.962,13.658
				L14.962,13.658z M14.962,11.367L13.156,9.41c-0.106-0.119-0.26-0.187-0.417-0.187c-0.16,0-0.312,0.068-0.419,0.187l-1.445,1.636
				l-4.39-4.962C6.381,5.965,6.229,5.896,6.069,5.896S5.759,5.965,5.652,6.084L3.846,8.161V3.679h11.116V11.367z M11.627,8.114
				c0.922,0,1.667-0.745,1.667-1.663c0-0.919-0.745-1.663-1.667-1.663S9.959,5.531,9.959,6.45
				C9.959,7.369,10.705,8.114,11.627,8.114z M11.627,5.343c0.612,0,1.112,0.498,1.112,1.107c0,0.611-0.5,1.109-1.112,1.109
				c-0.613,0-1.111-0.498-1.111-1.109C10.516,5.841,11.014,5.343,11.627,5.343z"/>
		</g>
	</g>
	<g>
		<path fill="#FFFFFF" d="M5.704,14.964H3.689c-0.203,0-0.365,0.164-0.365,0.365v1.097c0,0.201,0.164,0.365,0.365,0.365h2.015
			c0.203,0,0.365-0.164,0.365-0.365v-1.097C6.069,15.128,5.906,14.964,5.704,14.964z"/>
		<path fill="#FFFFFF" d="M8.842,14.964H6.828c-0.202,0-0.366,0.164-0.366,0.365v1.097c0,0.201,0.164,0.365,0.366,0.365h2.014
			c0.203,0,0.367-0.164,0.367-0.365v-1.097C9.208,15.128,9.045,14.964,8.842,14.964z"/>
		<path fill="#FFFFFF" d="M11.981,14.964H9.966c-0.203,0-0.366,0.164-0.366,0.365v1.097c0,0.201,0.164,0.365,0.366,0.365h2.015
			c0.202,0,0.365-0.164,0.365-0.365v-1.097C12.346,15.128,12.183,14.964,11.981,14.964z"/>
		<path fill="#FFFFFF" d="M15.118,14.964h-2.016c-0.202,0-0.364,0.164-0.364,0.365v1.097c0,0.201,0.162,0.365,0.364,0.365h2.016
			c0.203,0,0.366-0.164,0.366-0.365v-1.097C15.485,15.128,15.322,14.964,15.118,14.964z"/>
	</g>
</g>
<path display="none" fill="#FFFFFF" d="M19.687,4.533c-0.94-0.939-2.18-1.476-3.401-1.476c-1.029,0-1.979,0.382-2.671,1.073
	l-2.785,2.807c-0.01,0.007-0.019,0.013-0.027,0.021c-0.005,0.004-0.007,0.01-0.012,0.017h0.002L4.88,12.93
	c-0.271,0.27-0.468,0.607-0.579,0.975l-1.343,4.867c-0.001,0.014-0.088,0.396-0.088,0.592c0,1.104,0.896,2,2.005,2
	c0.22,0,0.646-0.104,0.662-0.105l4.851-1.273c0.369-0.108,0.705-0.309,0.978-0.581l8.731-8.801
	C21.684,9.012,21.503,6.348,19.687,4.533z M12.031,16.673c-0.049-0.517-0.193-1.022-0.411-1.504l5.408-5.409
	c0.33,1.046,0.16,2.139-0.563,2.864c-0.004,0.003-0.011,0.007-0.015,0.012l0.007,0.007l-4.421,4.455
	C12.037,16.957,12.044,16.819,12.031,16.673z M11.333,14.649c-0.213-0.354-0.456-0.691-0.756-0.991
	c-0.352-0.35-0.751-0.622-1.17-0.854l5.454-5.454c0.428,0.189,0.839,0.461,1.199,0.822c0.311,0.31,0.549,0.654,0.733,1.013
	L11.333,14.649z M8.868,12.534C8.336,12.32,7.782,12.2,7.226,12.191l4.407-4.441c0.676-0.658,1.657-0.847,2.625-0.606L8.868,12.534z
	 M5.252,20.151c-0.062,0.016-0.256,0.063-0.39,0.072c-0.47-0.006-0.852-0.389-0.852-0.857c0.006-0.096,0.044-0.262,0.058-0.322
	l0.603-2.183c0.654-0.019,1.357,0.236,1.912,0.79c0.562,0.562,0.826,1.28,0.797,1.939L5.252,20.151z M7.945,19.443
	c-0.014-0.769-0.326-1.565-0.956-2.194c-0.596-0.598-1.376-0.94-2.154-0.973l0.568-2.065c0.042-0.137,0.123-0.271,0.226-0.392
	c1.146-0.822,2.912-0.579,4.139,0.647c1.298,1.298,1.498,3.196,0.499,4.329c-0.065,0.035-0.133,0.068-0.205,0.092L7.945,19.443z
	 M19.284,9.794l-0.964,0.973c0-0.129,0.017-0.254,0.005-0.386c-0.103-1.106-0.617-2.178-1.456-3.015
	c-0.933-0.933-2.168-1.468-3.393-1.471l0.949-0.956c0.473-0.474,1.134-0.735,1.858-0.735c0.922,0,1.866,0.416,2.595,1.143
	c0.682,0.681,1.09,1.527,1.146,2.384C20.079,8.528,19.816,9.26,19.284,9.794z"/>
<g display="none">
	<g display="inline">
		<path fill="#FFFFFF" d="M16.511,6.535H5.368c-0.309,0-0.558,0.249-0.558,0.558v10.03c0,0.309,0.249,0.557,0.558,0.557h11.143
			c0.309,0,0.558-0.248,0.558-0.557V7.092C17.069,6.784,16.82,6.535,16.511,6.535z M5.368,17.123v-4.682l2.229-2.562l4.495,5.095
			l0.323,0.365l1.539,1.783L5.368,17.123L5.368,17.123z M16.511,17.123h-1.814l-1.91-2.204l1.497-1.696l2.229,2.439L16.511,17.123
			L16.511,17.123z M16.511,14.821l-1.81-1.968c-0.106-0.12-0.259-0.188-0.419-0.188c-0.159,0-0.312,0.068-0.418,0.188l-1.45,1.644
			L8.015,9.51c-0.106-0.12-0.258-0.188-0.419-0.188c-0.16,0-0.312,0.067-0.418,0.188l-1.811,2.089V7.092H16.51L16.511,14.821
			L16.511,14.821z M13.168,11.549c0.923,0,1.672-0.748,1.672-1.671c0-0.925-0.749-1.673-1.672-1.673
			c-0.924,0-1.671,0.748-1.671,1.673C11.497,10.801,12.244,11.549,13.168,11.549z M13.168,8.764c0.613,0,1.114,0.5,1.114,1.113
			c0,0.614-0.501,1.114-1.114,1.114c-0.614,0-1.114-0.5-1.114-1.114C12.054,9.264,12.553,8.764,13.168,8.764z M19.088,2.299H6.829
			c-1.161,0-2.104,0.892-2.208,2.027C3.481,4.423,2.582,5.37,2.582,6.535v13.373c0,1.23,0.998,2.229,2.229,2.229h12.257
			c1.161,0,2.104-0.892,2.209-2.026c1.142-0.098,2.039-1.043,2.039-2.208V4.528C21.316,3.297,20.319,2.299,19.088,2.299z
			 M18.183,19.908c0,0.612-0.499,1.113-1.114,1.113H4.811c-0.615,0-1.115-0.5-1.115-1.113V6.535c0-0.614,0.499-1.114,1.115-1.114
			h12.257c0.614,0,1.114,0.5,1.114,1.114L18.183,19.908L18.183,19.908z M20.201,17.9c0,0.543-0.392,0.994-0.904,1.093V6.535
			c0-1.229-0.999-2.229-2.229-2.229H5.738c0.104-0.509,0.554-0.894,1.092-0.894h12.259c0.613,0,1.114,0.499,1.114,1.114L20.201,17.9
			L20.201,17.9z"/>
	</g>
</g>
<g display="none">
	<g display="inline">
		<path fill="#FFFFFF" d="M12.023,8.492c-2.527,0-4.578,2.049-4.578,4.578s2.051,4.578,4.578,4.578c2.528,0,4.577-2.05,4.577-4.578
			S14.551,8.492,12.023,8.492z M14.629,15.302c-1.234,1.441-3.401,1.606-4.841,0.373c-1.44-1.232-1.605-3.4-0.372-4.84
			c1.232-1.44,3.399-1.605,4.84-0.373C15.697,11.698,15.863,13.865,14.629,15.302z M12.023,10.782c-1.265,0-2.289,1.026-2.289,2.288
			v0.002c0,0.157,0.127,0.285,0.286,0.285c0.158,0,0.286-0.127,0.286-0.285V13.07c0.001-0.947,0.769-1.715,1.717-1.715
			c0.158,0,0.286-0.128,0.286-0.287C12.309,10.91,12.181,10.782,12.023,10.782z M19.743,7.943l-2.48-0.413l-0.785-1.964
			c-0.263-0.656-0.889-1.079-1.594-1.079H9.162c-0.705,0-1.331,0.423-1.595,1.079L6.783,7.53l-2.48,0.413
			C3.47,8.082,2.868,8.793,2.868,9.635v8.583c0,0.946,0.77,1.717,1.717,1.717h14.876c0.946,0,1.716-0.771,1.716-1.717V9.637
			C21.177,8.793,20.574,8.082,19.743,7.943z M20.032,18.219c0,0.316-0.257,0.572-0.571,0.572H4.585
			c-0.317,0-0.573-0.256-0.573-0.572V9.637c0-0.28,0.202-0.52,0.479-0.564l3.114-0.519l1.026-2.562
			c0.086-0.216,0.296-0.359,0.531-0.359h5.722c0.233,0,0.443,0.143,0.531,0.359l1.024,2.562l3.114,0.519
			c0.276,0.045,0.479,0.284,0.479,0.564L20.032,18.219L20.032,18.219z"/>
	</g>
</g>
<g display="none">
	<g display="inline">
		<path fill="#FFFFFF" d="M18.322,11.069L18.322,11.069c0.003,0.157,0.129,0.284,0.287,0.284c0.159,0,0.286-0.129,0.286-0.286
			c0-0.002-0.001-0.002-0.001-0.004c-0.003-3.152-2.557-5.706-5.711-5.713c-0.005,0-0.01-0.003-0.016-0.003
			c-0.158,0-0.287,0.128-0.287,0.286s0.128,0.285,0.286,0.286v0.002C16.01,5.919,18.322,8.229,18.322,11.069z M8.082,3.56
			C7.755,3.231,7.314,3.057,6.867,3.057c-0.222,0-0.445,0.043-0.656,0.131C5.568,3.453,5.149,4.079,5.149,4.773v7.871L3.362,14.43
			c-0.671,0.671-0.671,1.758,0,2.429l4.011,4.004c0.334,0.334,0.773,0.504,1.214,0.504c0.438,0,0.879-0.168,1.215-0.504l1.788-1.785
			h7.879c0.695,0,1.321-0.419,1.587-1.061c0.266-0.643,0.119-1.38-0.372-1.87L8.082,3.56z M10.78,18.268l-1.788,1.784
			c-0.146,0.147-0.317,0.169-0.404,0.169c-0.089,0-0.26-0.021-0.405-0.169l-4.009-4.006c-0.146-0.145-0.168-0.314-0.168-0.402
			s0.021-0.26,0.168-0.404l1.787-1.785c0.005-0.007,0.006-0.014,0.011-0.019l4.826,4.819C10.791,18.26,10.783,18.263,10.78,18.268z
			 M11.589,17.932c-0.09,0-0.171,0.03-0.257,0.051l-5.089-5.082c0.02-0.087,0.052-0.168,0.052-0.256V5.752l12.192,12.181H11.589z
			 M19.996,17.58c-0.089,0.215-0.297,0.354-0.529,0.354h-0.17L6.295,4.943v-0.17c0-0.233,0.139-0.439,0.354-0.529
			c0.071-0.029,0.145-0.043,0.22-0.043c0.153,0,0.296,0.059,0.404,0.167l12.601,12.587C20.036,17.12,20.085,17.366,19.996,17.58z
			 M13.167,4.201L13.167,4.201c3.79,0.001,6.873,3.081,6.873,6.867l0,0c0.001,0.313,0.258,0.569,0.572,0.569
			c0.316,0,0.573-0.257,0.573-0.572c0-0.002-0.002-0.002-0.002-0.004c-0.004-4.416-3.583-7.994-8.002-8.002
			c-0.005,0-0.01-0.003-0.016-0.003c-0.316,0-0.573,0.256-0.573,0.571C12.595,3.944,12.852,4.2,13.167,4.201z"/>
	</g>
</g>
</svg>
