<?xml version="1.0" encoding="utf-8"?>
<!-- Generator: Adobe Illustrator 16.0.0, SVG Export Plug-In . SVG Version: 6.00 Build 0)  -->
<!DOCTYPE svg PUBLIC "-//W3C//DTD SVG 1.1//EN" "http://www.w3.org/Graphics/SVG/1.1/DTD/svg11.dtd">
<svg version="1.1" id="Layer_1" xmlns="http://www.w3.org/2000/svg" xmlns:xlink="http://www.w3.org/1999/xlink" x="0px" y="0px"
	 width="18.85px" height="20.021px" viewBox="2.582 2.201 18.85 20.021" enable-background="new 2.582 2.201 18.85 20.021"
	 xml:space="preserve">
<rect x="-7.688" y="-5.333" display="none" fill="#0AA8A5" width="40" height="35.333"/>
<g display="none">
	<g display="inline">
		<g>
			<path fill="#333333" d="M18.923,2.201h-13.8c-1.386,0-2.51,1.12-2.51,2.502v15.016c0,1.382,1.124,2.503,2.51,2.503h13.8
				c1.386,0,2.509-1.121,2.509-2.503V4.704C21.432,3.321,20.309,2.201,18.923,2.201z M20.178,19.719
				c0,0.688-0.563,1.251-1.255,1.251h-13.8c-0.691,0-1.255-0.562-1.255-1.251V4.704c0-0.69,0.564-1.251,1.255-1.251h13.8
				c0.691,0,1.255,0.562,1.255,1.251V19.719z M17.594,5.333H6.451c-0.308,0-0.557,0.249-0.557,0.556v10.002
				c0,0.307,0.249,0.556,0.557,0.556h11.143c0.308,0,0.557-0.249,0.557-0.556V5.889C18.151,5.582,17.902,5.333,17.594,5.333z
				 M6.451,15.891v-4.668L8.68,8.667l4.493,5.08l0.324,0.366l1.538,1.777H6.451z M17.594,15.891h-1.815l-1.91-2.198l1.497-1.691
				l2.229,2.433V15.891z M17.594,13.595l-1.811-1.961c-0.106-0.12-0.259-0.188-0.418-0.188c-0.16,0-0.312,0.068-0.418,0.188
				l-1.45,1.64L9.097,8.3C8.992,8.18,8.84,8.111,8.68,8.111S8.368,8.18,8.262,8.3l-1.811,2.082V5.889h11.143V13.595z M14.251,10.334
				c0.924,0,1.671-0.746,1.671-1.667C15.922,7.746,15.175,7,14.251,7s-1.672,0.746-1.672,1.667
				C12.579,9.588,13.327,10.334,14.251,10.334z M14.251,7.556c0.614,0,1.114,0.499,1.114,1.111c0,0.612-0.5,1.111-1.114,1.111
				s-1.114-0.499-1.114-1.111C13.137,8.055,13.637,7.556,14.251,7.556z"/>
		</g>
	</g>
	<g display="inline">
		<path fill="#333333" d="M8.314,17.2h-2.02c-0.203,0-0.366,0.164-0.366,0.366v1.099c0,0.202,0.164,0.366,0.366,0.366h2.02
			c0.203,0,0.366-0.164,0.366-0.366v-1.099C8.68,17.364,8.517,17.2,8.314,17.2z"/>
		<path fill="#333333" d="M11.459,17.2H9.441c-0.203,0-0.368,0.164-0.368,0.366v1.099c0,0.202,0.165,0.366,0.368,0.366h2.018
			c0.203,0,0.368-0.164,0.368-0.366v-1.099C11.826,17.364,11.662,17.2,11.459,17.2z"/>
		<path fill="#333333" d="M14.605,17.2h-2.019c-0.203,0-0.367,0.164-0.367,0.366v1.099c0,0.202,0.164,0.366,0.367,0.366h2.019
			c0.203,0,0.367-0.164,0.367-0.366v-1.099C14.972,17.364,14.808,17.2,14.605,17.2z"/>
		<path fill="#333333" d="M17.75,17.2h-2.02c-0.202,0-0.366,0.164-0.366,0.366v1.099c0,0.202,0.164,0.366,0.366,0.366h2.02
			c0.203,0,0.367-0.164,0.367-0.366v-1.099C18.117,17.364,17.953,17.2,17.75,17.2z"/>
	</g>
</g>
<path display="none" fill="#FFFFFF" d="M19.687,4.533c-0.941-0.939-2.18-1.476-3.402-1.476c-1.029,0-1.979,0.382-2.671,1.074
	l-2.785,2.806c-0.009,0.007-0.018,0.013-0.027,0.021c-0.005,0.004-0.007,0.01-0.012,0.016l0.002,0l-5.912,5.956
	c-0.271,0.27-0.468,0.608-0.579,0.975l-1.343,4.867c-0.001,0.014-0.088,0.396-0.088,0.592c0,1.104,0.897,2,2.005,2
	c0.22,0,0.646-0.104,0.662-0.105l4.851-1.274c0.369-0.108,0.705-0.308,0.977-0.581l8.732-8.801
	C21.684,9.012,21.503,6.348,19.687,4.533z M12.031,16.673c-0.048-0.517-0.193-1.023-0.411-1.504l5.409-5.409
	c0.33,1.045,0.16,2.138-0.564,2.864c-0.004,0.003-0.011,0.007-0.015,0.012l0.007,0.006l-4.421,4.455
	C12.037,16.957,12.044,16.819,12.031,16.673z M11.333,14.649c-0.213-0.353-0.456-0.691-0.756-0.991
	c-0.351-0.35-0.751-0.622-1.17-0.854l5.455-5.454c0.427,0.19,0.838,0.461,1.199,0.823c0.31,0.309,0.549,0.654,0.733,1.012
	L11.333,14.649z M8.868,12.534C8.336,12.32,7.782,12.2,7.226,12.191l4.407-4.441c0.676-0.658,1.657-0.847,2.625-0.607L8.868,12.534z
	 M5.252,20.151c-0.062,0.016-0.256,0.064-0.389,0.072c-0.47-0.005-0.852-0.388-0.852-0.857c0.006-0.096,0.044-0.262,0.058-0.322
	l0.602-2.183c0.654-0.018,1.358,0.236,1.912,0.79c0.562,0.563,0.826,1.28,0.797,1.94L5.252,20.151z M7.945,19.443
	c-0.014-0.768-0.327-1.565-0.956-2.194c-0.596-0.598-1.376-0.941-2.155-0.973l0.569-2.065c0.042-0.137,0.123-0.272,0.225-0.392
	c1.147-0.822,2.912-0.579,4.139,0.648c1.298,1.297,1.498,3.196,0.499,4.329c-0.066,0.035-0.133,0.068-0.205,0.091L7.945,19.443z
	 M19.284,9.794l-0.963,0.972c0-0.129,0.016-0.254,0.004-0.385c-0.102-1.107-0.617-2.178-1.456-3.015
	c-0.932-0.933-2.168-1.468-3.392-1.471l0.949-0.956c0.473-0.473,1.134-0.735,1.858-0.735c0.922,0,1.867,0.416,2.595,1.142
	c0.682,0.681,1.09,1.528,1.147,2.384C20.079,8.528,19.816,9.261,19.284,9.794z"/>
<g display="none">
	<g display="inline">
		<path fill="#FFFFFF" d="M16.511,6.535H5.368c-0.308,0-0.557,0.249-0.557,0.558v10.03c0,0.308,0.249,0.556,0.557,0.556h11.143
			c0.309,0,0.558-0.248,0.558-0.556V7.092C17.069,6.784,16.82,6.535,16.511,6.535z M5.368,17.123v-4.682l2.229-2.562l4.495,5.094
			l0.323,0.366l1.539,1.783H5.368z M16.511,17.123h-1.814l-1.911-2.204l1.497-1.697l2.229,2.44V17.123z M16.511,14.821l-1.81-1.968
			c-0.106-0.12-0.258-0.188-0.419-0.188c-0.159,0-0.312,0.068-0.418,0.188l-1.45,1.644L8.015,9.51
			C7.908,9.389,7.757,9.322,7.596,9.322c-0.16,0-0.312,0.067-0.418,0.188l-1.811,2.088V7.092h11.143V14.821z M13.168,11.549
			c0.923,0,1.672-0.748,1.672-1.671c0-0.925-0.749-1.673-1.672-1.673c-0.924,0-1.671,0.748-1.671,1.673
			C11.497,10.801,12.244,11.549,13.168,11.549z M13.168,8.764c0.613,0,1.114,0.5,1.114,1.114c0,0.614-0.501,1.114-1.114,1.114
			c-0.614,0-1.114-0.5-1.114-1.114C12.054,9.264,12.553,8.764,13.168,8.764z M19.088,2.299H6.829c-1.161,0-2.104,0.891-2.208,2.027
			C3.481,4.423,2.582,5.37,2.582,6.535v13.373c0,1.23,0.998,2.229,2.229,2.229h12.257c1.161,0,2.104-0.891,2.209-2.026
			c1.141-0.098,2.039-1.043,2.039-2.208V4.528C21.316,3.297,20.319,2.299,19.088,2.299z M18.183,19.908
			c0,0.612-0.499,1.113-1.114,1.113H4.811c-0.615,0-1.115-0.5-1.115-1.113V6.535c0-0.614,0.499-1.114,1.115-1.114h12.257
			c0.614,0,1.114,0.5,1.114,1.114V19.908z M20.201,17.9c0,0.543-0.391,0.994-0.904,1.093V6.535c0-1.23-0.999-2.229-2.229-2.229
			H5.738c0.103-0.508,0.553-0.893,1.091-0.893h12.259c0.613,0,1.114,0.499,1.114,1.114L20.201,17.9L20.201,17.9z"/>
	</g>
</g>
<g display="none">
	<g display="inline">
		<path fill="#FFFFFF" d="M12.023,8.492c-2.528,0-4.578,2.049-4.578,4.578s2.05,4.578,4.578,4.578s4.577-2.05,4.577-4.578
			S14.551,8.492,12.023,8.492z M14.629,15.303c-1.234,1.441-3.401,1.606-4.841,0.373s-1.605-3.401-0.372-4.84
			c1.233-1.441,3.4-1.606,4.84-0.373C15.697,11.698,15.863,13.865,14.629,15.303z M12.023,10.782c-1.265,0-2.289,1.026-2.289,2.288
			v0.002c0,0.157,0.127,0.285,0.286,0.285c0.158,0,0.286-0.127,0.286-0.285V13.07c0.001-0.947,0.768-1.715,1.717-1.715
			c0.158,0,0.286-0.128,0.286-0.287C12.309,10.91,12.181,10.782,12.023,10.782z M19.743,7.943l-2.48-0.413l-0.785-1.964
			c-0.263-0.656-0.889-1.079-1.594-1.079H9.162c-0.705,0-1.331,0.423-1.594,1.079L6.783,7.53L4.303,7.943
			c-0.833,0.139-1.435,0.85-1.435,1.693v8.583c0,0.946,0.77,1.716,1.717,1.716h14.876c0.946,0,1.716-0.77,1.716-1.716V9.637
			C21.177,8.793,20.574,8.082,19.743,7.943z M20.032,18.219c0,0.316-0.256,0.572-0.571,0.572H4.585
			c-0.317,0-0.573-0.256-0.573-0.572V9.637c0-0.28,0.202-0.519,0.478-0.564l3.115-0.519l1.026-2.562
			c0.086-0.216,0.296-0.359,0.531-0.359h5.722c0.233,0,0.443,0.142,0.531,0.359l1.025,2.562l3.114,0.519
			c0.276,0.045,0.479,0.284,0.479,0.564L20.032,18.219L20.032,18.219z"/>
	</g>
</g>
<g>
	<g>
		<path fill="#FFFFFF" d="M18.322,11.069L18.322,11.069c0.002,0.157,0.128,0.284,0.287,0.284s0.286-0.129,0.286-0.286
			c0-0.002-0.001-0.002-0.001-0.004c-0.003-3.152-2.557-5.706-5.711-5.713c-0.005,0-0.01-0.003-0.016-0.003
			c-0.158,0-0.287,0.128-0.287,0.287c0,0.158,0.128,0.285,0.286,0.286v0.002C16.01,5.919,18.322,8.229,18.322,11.069z M8.082,3.56
			C7.755,3.231,7.314,3.057,6.867,3.057c-0.221,0-0.445,0.043-0.656,0.131C5.568,3.453,5.149,4.079,5.149,4.773v7.871L3.362,14.43
			c-0.671,0.671-0.671,1.758,0,2.429l4.01,4.004c0.334,0.334,0.774,0.504,1.214,0.504c0.439,0,0.879-0.168,1.215-0.504l1.788-1.785
			h7.879c0.695,0,1.321-0.419,1.587-1.061s0.119-1.38-0.372-1.87L8.082,3.56z M10.78,18.268l-1.789,1.785
			c-0.146,0.147-0.317,0.168-0.404,0.168c-0.089,0-0.26-0.021-0.405-0.168l-4.009-4.006c-0.146-0.145-0.168-0.315-0.168-0.403
			s0.021-0.259,0.168-0.404l1.787-1.785c0.005-0.007,0.006-0.014,0.011-0.019l4.826,4.82C10.791,18.261,10.783,18.263,10.78,18.268z
			 M11.589,17.932c-0.09,0-0.171,0.031-0.257,0.051l-5.089-5.082c0.02-0.087,0.052-0.168,0.052-0.256V5.752l12.193,12.18H11.589z
			 M19.996,17.58c-0.089,0.215-0.297,0.353-0.529,0.353h-0.17L6.295,4.943v-0.17c0-0.233,0.139-0.439,0.354-0.529
			c0.071-0.029,0.144-0.043,0.219-0.043c0.154,0,0.296,0.059,0.405,0.167l12.6,12.587C20.036,17.12,20.085,17.366,19.996,17.58z
			 M13.167,4.201v0.001c3.79,0,6.873,3.08,6.873,6.866l0,0c0.001,0.314,0.258,0.569,0.573,0.569c0.316,0,0.573-0.256,0.573-0.572
			c0-0.002-0.002-0.002-0.002-0.004c-0.004-4.416-3.583-7.994-8.002-8.002c-0.005,0-0.01-0.003-0.016-0.003
			c-0.316,0-0.573,0.256-0.573,0.572C12.595,3.944,12.852,4.2,13.167,4.201z"/>
	</g>
</g>
</svg>
