<?xml version="1.0" encoding="utf-8"?>
<!-- Generator: Adobe Illustrator 16.0.0, SVG Export Plug-In . SVG Version: 6.00 Build 0)  -->
<!DOCTYPE svg PUBLIC "-//W3C//DTD SVG 1.1//EN" "http://www.w3.org/Graphics/SVG/1.1/DTD/svg11.dtd">
<svg version="1.1" id="Layer_1" xmlns="http://www.w3.org/2000/svg" xmlns:xlink="http://www.w3.org/1999/xlink" x="0px" y="0px"
	 width="30px" height="30px" viewBox="0 0 30 30" enable-background="new 0 0 30 30" xml:space="preserve">
<g id="heart" display="none">
	<g display="inline">
		<path fill="#333333" d="M26.939,4.417c-3.348-3.313-8.697-3.382-12.167-0.265C11.305,1.034,5.955,1.104,2.605,4.417
			c-3.451,3.413-3.451,8.945,0,12.359C3.592,17.752,12.8,26.859,12.8,26.859c1.091,1.078,2.855,1.078,3.946,0
			c0,0,10.082-9.973,10.193-10.084C30.391,13.362,30.391,7.83,26.939,4.417z M25.625,15.475L15.43,25.557
			c-0.362,0.359-0.953,0.359-1.314,0L3.921,15.475c-2.721-2.69-2.721-7.068,0-9.758c2.624-2.594,6.84-2.685,9.602-0.205l1.25,1.124
			l1.25-1.124c2.762-2.48,6.979-2.39,9.602,0.205C28.346,8.407,28.346,12.785,25.625,15.475z M8.548,6.478
			c-0.001,0-0.001,0.001-0.004,0.001C6.382,6.48,4.628,8.232,4.628,10.393c0,0.255,0.206,0.46,0.461,0.46
			c0.255,0,0.461-0.206,0.461-0.46v-0.001c0-1.653,1.342-2.993,2.997-2.993h0.001c0.255,0,0.461-0.207,0.461-0.461
			C9.01,6.684,8.804,6.478,8.548,6.478z"/>
	</g>
</g>
<g id="cloud" display="none">
	<g display="inline">
		<path fill="#333333" d="M23.918,11.672c-0.404-4.208-3.908-7.511-8.223-7.511c-3.338,0-6.196,1.981-7.514,4.824
			C7.785,8.86,7.371,8.773,6.933,8.773c-2.292,0-4.15,1.859-4.15,4.151c0,0.456,0.091,0.887,0.227,1.296
			c-1.782,1.038-2.994,2.948-2.994,5.159c0,3.312,2.685,5.996,5.996,5.996v0.002h16.603v-0.002c3.82,0,6.916-3.096,6.916-6.918
			C29.529,15.084,27.113,12.283,23.918,11.672z M22.613,23.531L22.613,23.531H6.011c-2.289,0-4.151-1.863-4.151-4.152
			c0-1.475,0.778-2.809,2.079-3.566c1.265-0.727,1.351-0.871,0.821-2.175c-0.089-0.269-0.132-0.502-0.132-0.714
			c0-1.272,1.034-2.306,2.306-2.306c0,0,0.605-0.043,1.248,0.212c1.059,0.422,1.174,0.018,1.674-1.069
			c1.058-2.281,3.35-3.755,5.84-3.755c3.321,0,6.067,2.511,6.385,5.842c0.115,1.321,0.115,1.321,1.492,1.636
			c2.383,0.455,4.113,2.546,4.113,4.972C27.686,21.256,25.41,23.531,22.613,23.531z"/>
	</g>
</g>
<g id="star" display="none">
	<g display="inline">
		<path fill="#333333" d="M29.42,11.132c-0.254-0.737-0.91-1.276-1.699-1.394l-7.68-1.142l-3.34-6.931
			c-0.35-0.728-1.102-1.193-1.929-1.193c-0.826,0-1.578,0.465-1.93,1.193L9.504,8.596L1.824,9.738
			c-0.79,0.117-1.445,0.657-1.699,1.394c-0.254,0.738-0.062,1.552,0.495,2.108l5.628,5.62l-1.306,7.795
			c-0.132,0.785,0.208,1.572,0.875,2.031c0.367,0.252,0.797,0.381,1.227,0.381c0.354,0,0.709-0.088,1.032-0.26l6.696-3.604
			l6.696,3.604c0.322,0.172,0.676,0.26,1.029,0.26c0.432,0,0.861-0.129,1.229-0.381c0.668-0.459,1.006-1.246,0.875-2.031
			l-1.307-7.795l5.631-5.62C29.482,12.684,29.674,11.87,29.42,11.132z M21.771,17.41c-0.473,0.471-0.688,1.133-0.578,1.783
			l1.305,7.797l-6.695-3.605c-0.322-0.172-0.676-0.258-1.031-0.258c-0.354,0-0.709,0.086-1.031,0.258L7.045,26.99l1.307-7.797
			c0.108-0.65-0.105-1.312-0.577-1.783l-5.628-5.619l7.68-1.144c0.701-0.104,1.306-0.543,1.608-1.169l3.338-6.93l3.339,6.93
			c0.301,0.626,0.904,1.064,1.607,1.169l7.68,1.144L21.771,17.41z"/>
	</g>
</g>
<g id="tv" display="none">
	<g display="inline">
		<path fill="#333333" d="M20.465,7.504c-2.5-0.514-5.037-0.774-7.539-0.774s-5.039,0.26-7.538,0.774
			C5.063,7.571,4.799,7.805,4.695,8.12c-1.332,4.041-1.332,8.136,0,12.177c0.104,0.314,0.368,0.549,0.692,0.615
			c2.499,0.514,5.036,0.775,7.538,0.775s5.039-0.262,7.539-0.775c0.322-0.066,0.588-0.301,0.691-0.615
			c1.332-4.041,1.332-8.137,0-12.177C21.053,7.805,20.787,7.571,20.465,7.504z M20.279,20.01c-4.901,1.006-9.806,1.006-14.706,0
			c-1.275-3.869-1.275-7.734,0-11.602c4.9-1.006,9.805-1.006,14.706,0C21.553,12.276,21.553,16.141,20.279,20.01z M28.48,5.379
			c-0.18-0.751-0.807-1.312-1.574-1.404c-4.025-0.488-8.107-0.736-12.134-0.736S6.663,3.487,2.638,3.975
			C1.871,4.068,1.243,4.628,1.063,5.379c-1.411,5.924-1.411,11.933,0,17.857c0.18,0.75,0.808,1.311,1.574,1.404
			c1.938,0.234,3.892,0.408,5.845,0.529c-0.105,0.068-0.173,0.137-0.173,0.207c0,0.51,2.894,0.922,6.463,0.922
			s6.462-0.412,6.462-0.922c0-0.07-0.066-0.139-0.172-0.207c1.953-0.121,3.904-0.295,5.844-0.529
			c0.768-0.094,1.395-0.654,1.574-1.404C29.893,17.312,29.893,11.304,28.48,5.379z M26.686,22.809
			c-7.941,0.963-15.884,0.963-23.826,0c-1.35-5.668-1.35-11.334,0-17.002c7.942-0.963,15.885-0.963,23.826,0
			C28.035,11.474,28.035,17.141,26.686,22.809z M24.467,10.618c0.766,0,1.385-0.62,1.385-1.383c0-0.764-0.619-1.384-1.385-1.384
			s-1.385,0.62-1.385,1.384C23.082,9.999,23.701,10.618,24.467,10.618z M24.467,8.773c0.254,0,0.461,0.207,0.461,0.461
			c0,0.254-0.207,0.461-0.461,0.461s-0.463-0.207-0.463-0.461C24.004,8.98,24.213,8.773,24.467,8.773z M25.391,19.842h-2.771
			c-0.254,0-0.461,0.207-0.461,0.461c0,0.256,0.207,0.461,0.461,0.461h2.771c0.254,0,0.461-0.205,0.461-0.461
			C25.852,20.049,25.645,19.842,25.391,19.842z M26.312,17.074h-2.77c-0.256,0-0.461,0.207-0.461,0.461
			c0,0.256,0.205,0.463,0.461,0.463h2.77c0.256,0,0.463-0.207,0.463-0.463C26.775,17.281,26.568,17.074,26.312,17.074z
			 M26.312,14.307h-2.77c-0.256,0-0.461,0.207-0.461,0.462s0.205,0.461,0.461,0.461h2.77c0.256,0,0.463-0.206,0.463-0.461
			S26.568,14.307,26.312,14.307z M12.465,10.438L8.23,10.77c-0.254,0.029-0.493,0.258-0.536,0.508l-0.282,2.569
			c-0.013,0.253,0.184,0.46,0.437,0.46s0.469-0.207,0.479-0.461l0.154-1.747c0.034-0.251,0.269-0.478,0.521-0.503l3.463-0.237
			c0.254-0.009,0.461-0.224,0.461-0.478S12.719,10.428,12.465,10.438z"/>
	</g>
</g>
<g id="sound" display="none">
	<g display="inline">
		<path fill="#333333" d="M24.928,12.928h0.002c0.002,0.253,0.205,0.457,0.461,0.457c0.254,0,0.461-0.206,0.461-0.461
			c0-0.002-0.002-0.004-0.002-0.007c-0.006-5.081-4.121-9.198-9.206-9.211c-0.008-0.001-0.016-0.005-0.024-0.005
			c-0.256,0-0.461,0.206-0.461,0.461c0,0.254,0.205,0.46,0.46,0.461v0.003C21.199,4.626,24.928,8.351,24.928,12.928z M8.421,0.822
			c-0.528-0.53-1.237-0.811-1.959-0.811c-0.356,0-0.716,0.068-1.058,0.21C4.369,0.65,3.693,1.659,3.693,2.778L3.692,15.467
			l-2.881,2.878c-1.082,1.08-1.082,2.834,0,3.914l6.463,6.457c0.541,0.539,1.25,0.811,1.959,0.811s1.417-0.271,1.958-0.811
			l2.882-2.879h12.7c1.121,0,2.131-0.674,2.561-1.709c0.43-1.033,0.191-2.225-0.602-3.016L8.421,0.822z M12.768,24.533l-2.883,2.879
			c-0.233,0.234-0.51,0.27-0.651,0.27c-0.143,0-0.418-0.035-0.652-0.27l-6.464-6.457c-0.235-0.234-0.271-0.51-0.271-0.652
			s0.035-0.418,0.271-0.65l2.881-2.881c0.009-0.008,0.011-0.02,0.02-0.027l7.778,7.771C12.787,24.521,12.775,24.525,12.768,24.533z
			 M14.073,23.992c-0.144,0-0.276,0.051-0.413,0.082l-8.203-8.195c0.031-0.137,0.082-0.27,0.082-0.412L5.54,4.357l19.653,19.635
			H14.073z M27.627,23.424c-0.143,0.346-0.479,0.568-0.854,0.568H26.5L5.54,3.053V2.778c0-0.375,0.224-0.709,0.569-0.852
			c0.113-0.047,0.232-0.07,0.353-0.07c0.247,0,0.479,0.095,0.653,0.269l20.312,20.293C27.691,22.684,27.77,23.078,27.627,23.424z
			 M16.618,1.856v0.003c6.11,0,11.079,4.965,11.079,11.069h0.002c0.002,0.508,0.414,0.918,0.922,0.918
			c0.512,0,0.924-0.412,0.924-0.922c0-0.002-0.002-0.004-0.002-0.007c-0.006-7.119-5.775-12.888-12.899-12.9
			c-0.008-0.001-0.016-0.005-0.024-0.005c-0.51,0-0.923,0.413-0.923,0.922C15.696,1.442,16.109,1.855,16.618,1.856z"/>
	</g>
</g>
<g id="video" display="none">
	<g display="inline">
		<path fill="#333333" d="M27.686,5.545h-0.816c-0.484,0-0.951,0.191-1.295,0.531l-2.5,2.465V7.39c0-1.529-1.238-2.767-2.768-2.767
			H2.782c-1.526,0-2.768,1.241-2.768,2.767v14.758c0,1.529,1.238,2.768,2.768,2.768h17.525c1.529,0,2.768-1.238,2.768-2.768v-1.125
			l2.5,2.465c0.344,0.34,0.811,0.531,1.295,0.531h0.816c1.02,0,1.846-0.826,1.846-1.844V7.39
			C29.531,6.372,28.705,5.545,27.686,5.545z M21.229,22.148c0,0.51-0.412,0.924-0.922,0.924H2.782c-0.51,0-0.923-0.414-0.923-0.924
			V7.39c0-0.51,0.413-0.922,0.923-0.922h17.525c0.51,0,0.922,0.414,0.922,0.922V22.148z M27.686,22.176h-0.922l-3.689-3.689v-0.027
			l-0.922-0.922v-5.535l4.611-4.612h0.922V22.176z"/>
	</g>
</g>
<g id="trash" display="none">
	<g display="inline">
		<path fill="#333333" d="M27.668,6.299c-0.088-1.449-1.279-2.598-2.75-2.598h-2.766V2.778c0-1.529-1.24-2.768-2.768-2.768H10.16
			c-1.528,0-2.767,1.239-2.767,2.768v0.923H4.626c-1.471,0-2.661,1.149-2.75,2.598H1.859v2.013c0,1.019,0.826,1.845,1.845,1.845
			v15.681c0,2.037,1.652,3.689,3.689,3.689h14.759c2.037,0,3.689-1.652,3.689-3.689V10.157c1.018,0,1.844-0.826,1.844-1.845V6.299
			H27.668z M9.238,2.779c0-0.51,0.413-0.922,0.922-0.922h9.225c0.51,0,0.922,0.413,0.922,0.922v0.922H9.238V2.779z M23.996,25.838
			c0,1.018-0.828,1.846-1.844,1.846H7.393c-1.017,0-1.845-0.828-1.845-1.846V10.157h18.448V25.838z M25.842,8.312H3.704V6.469
			c0-0.51,0.413-0.923,0.922-0.923h20.292c0.51,0,0.924,0.413,0.924,0.923V8.312z M8.315,25.842h1.845
			c0.51,0,0.922-0.412,0.922-0.922V12.928c0-0.51-0.413-0.922-0.922-0.922H8.315c-0.51,0-0.922,0.413-0.922,0.922V24.92
			C7.393,25.43,7.806,25.842,8.315,25.842z M8.315,12.928h1.845V24.92H8.315V12.928z M13.85,25.842h1.845
			c0.51,0,0.923-0.412,0.923-0.922V12.928c0-0.51-0.413-0.922-0.923-0.922H13.85c-0.51,0-0.922,0.413-0.922,0.922V24.92
			C12.927,25.43,13.34,25.842,13.85,25.842z M13.85,12.928h1.845V24.92H13.85V12.928z M19.385,25.842h1.844
			c0.51,0,0.924-0.412,0.924-0.922V12.928c0-0.51-0.414-0.922-0.924-0.922h-1.844c-0.51,0-0.924,0.413-0.924,0.922V24.92
			C18.461,25.43,18.875,25.842,19.385,25.842z M19.385,12.928h1.844V24.92h-1.844V12.928z"/>
	</g>
</g>
<g id="user" display="none">
	<g display="inline">
		<path fill="#333333" d="M28.709,26.148c-0.185-0.123-3.549-2.33-8.553-3.412c1.836-2.326,3.014-5.453,3.515-7.536
			c0.694-2.885,0.425-8.53-2.345-12.048c-1.62-2.056-3.887-3.142-6.554-3.142S9.839,1.097,8.219,3.153
			c-2.771,3.518-3.04,9.163-2.345,12.048c0.5,2.083,1.679,5.209,3.515,7.536c-5.004,1.082-8.368,3.289-8.553,3.412
			c-0.677,0.451-0.979,1.291-0.742,2.068c0.235,0.779,0.953,1.311,1.765,1.311h25.827c0.812,0,1.531-0.531,1.766-1.311
			C29.688,27.439,29.386,26.6,28.709,26.148z M7.542,9.926c0.503-3.947,2.765-8.07,7.23-8.07c4.465,0,6.728,4.123,7.23,8.07
			c0.546,4.11-0.724,8.412-3.295,11.668l-0.302,0.383c-2.199,2.527-5.068,2.527-7.268,0l-0.302-0.383
			C8.268,18.338,6.994,14.034,7.542,9.926z M1.859,27.684c0.127-0.086,3.253-2.135,7.92-3.143l2.292-0.496
			c0.817,0.537,1.715,0.871,2.702,0.871s1.886-0.334,2.702-0.871l2.291,0.496c4.631,1,7.746,3.027,7.92,3.143H1.859z"/>
	</g>
</g>
<g id="key" display="none">
	<g display="inline">
		<path fill="#333333" d="M20.309,0.011c-5.094,0-9.224,4.13-9.224,9.224c0,1.185,0.248,2.307,0.658,3.347L0.537,23.789
			c-0.323,0.324-0.524,0.633-0.524,1.127v2.768c0,0.988,0.857,1.844,1.845,1.844h2.768c0.494,0,0.807-0.197,1.13-0.52l1.324-1.324
			H9.24c1.019,0,1.845-0.826,1.845-1.846v-1.844h1.845c1.019,0,1.845-0.826,1.845-1.846v-2.162l2.187-2.186
			c1.04,0.41,2.162,0.658,3.348,0.658c5.094,0,9.225-4.13,9.225-9.224S25.402,0.011,20.309,0.011z M20.309,16.615
			c-1.365,0-2.629-0.398-3.727-1.045l-0.316,0.317l-1.038,1.039l-1.757,1.758c-0.346,0.346-0.541,0.814-0.541,1.303v2.162h-1.845
			c-1.019,0-1.845,0.826-1.845,1.846v1.844H7.079c-0.489,0-0.958,0.195-1.304,0.541l-1.308,1.309l-2.606-0.004l-0.003-2.629
			l10.76-10.741c0,0,0,0.001,0.001,0.002l1.354-1.354c-0.647-1.097-1.044-2.361-1.044-3.727c0-4.075,3.305-7.379,7.379-7.379
			c4.075,0,7.379,3.304,7.379,7.379S24.384,16.615,20.309,16.615z M25.675,7.611c-1.035-1.44-2.294-2.698-3.74-3.739
			c-0.237-0.17-0.54-0.213-0.815-0.117c-1.28,0.451-2.156,1.328-2.606,2.609c-0.034,0.095-0.05,0.195-0.05,0.294
			c0,0.184,0.057,0.366,0.167,0.52c1.038,1.443,2.296,2.701,3.738,3.738c0.235,0.169,0.54,0.213,0.813,0.118
			c1.281-0.449,2.159-1.326,2.609-2.609c0.034-0.095,0.051-0.195,0.051-0.294C25.842,7.947,25.783,7.765,25.675,7.611z
			 M22.906,10.167c-1.362-0.981-2.55-2.168-3.523-3.499c0.357-1.017,1.025-1.685,2.014-2.048c1.363,0.983,2.549,2.167,3.52,3.515
			C24.557,9.145,23.89,9.809,22.906,10.167z"/>
	</g>
</g>
<g id="search" display="none">
	<g display="inline">
		<path fill="#333333" d="M18.463,0.011c-6.114,0-11.069,4.956-11.069,11.069c0,1.869,0.467,3.628,1.286,5.172l-7.696,7.695
			l0.006,0.006c-0.601,0.592-0.976,1.41-0.976,2.32c0,1.797,1.458,3.254,3.256,3.254c0.909,0,1.729-0.375,2.319-0.975l-0.002-0.002
			l7.693-7.693c1.546,0.822,3.307,1.291,5.182,1.291c6.111,0,11.068-4.955,11.068-11.069C29.531,4.967,24.574,0.011,18.463,0.011z
			 M4.437,27.4c-0.297,0.307-0.708,0.5-1.167,0.5c-0.899,0-1.628-0.729-1.628-1.627c0-0.461,0.193-0.871,0.501-1.168l-0.008-0.008
			l7.44-7.439c0.649,0.877,1.425,1.652,2.3,2.303L4.437,27.4z M18.463,20.305c-5.094,0-9.224-4.131-9.224-9.225
			c0-5.094,4.13-9.224,9.224-9.224c5.094,0,9.223,4.13,9.223,9.224C27.686,16.174,23.557,20.305,18.463,20.305z M18.463,4.623
			c-3.567,0-6.458,2.89-6.458,6.457c0,0.255,0.206,0.461,0.461,0.461s0.462-0.206,0.462-0.461c0-3.056,2.478-5.534,5.535-5.534
			c0.254,0,0.461-0.207,0.461-0.461S18.717,4.623,18.463,4.623z"/>
	</g>
</g>
<g id="settings" display="none">
	<g display="inline">
		<path fill="#333333" d="M28.047,11.706l-2.827-0.566c-0.143-0.409-0.31-0.806-0.495-1.189l1.602-2.402
			c0.487-0.731,0.391-1.706-0.231-2.328L24.32,3.446c-0.356-0.356-0.828-0.541-1.305-0.541c-0.354,0-0.711,0.102-1.022,0.31
			l-2.401,1.601c-0.385-0.187-0.781-0.352-1.19-0.495l-0.565-2.827c-0.172-0.863-0.93-1.484-1.809-1.484h-2.51
			c-0.879,0-1.637,0.621-1.809,1.484l-0.566,2.827c-0.409,0.143-0.806,0.309-1.189,0.495L7.552,3.216
			c-0.312-0.208-0.668-0.31-1.022-0.31c-0.477,0-0.948,0.184-1.305,0.541L3.45,5.221C2.828,5.842,2.731,6.817,3.219,7.548L4.82,9.95
			c-0.187,0.384-0.353,0.781-0.495,1.189l-2.827,0.566c-0.863,0.172-1.483,0.93-1.483,1.809v2.509c0,0.881,0.62,1.639,1.483,1.811
			L4.325,18.4c0.143,0.408,0.31,0.805,0.495,1.189l-1.602,2.4c-0.487,0.732-0.391,1.707,0.231,2.328l1.774,1.773
			c0.356,0.357,0.828,0.541,1.305,0.541c0.354,0,0.711-0.102,1.022-0.311l2.401-1.6c0.385,0.186,0.781,0.352,1.19,0.494l0.565,2.828
			c0.172,0.863,0.93,1.482,1.809,1.482h2.51c0.879,0,1.637-0.619,1.809-1.482l0.566-2.828c0.409-0.143,0.806-0.309,1.189-0.494
			l2.401,1.6c0.312,0.209,0.668,0.311,1.022,0.311c0.477,0,0.948-0.184,1.305-0.541l1.774-1.773
			c0.622-0.621,0.719-1.596,0.231-2.328l-1.602-2.4c0.187-0.385,0.353-0.781,0.495-1.191l2.827-0.564
			c0.863-0.172,1.483-0.93,1.483-1.811v-2.509C29.53,12.635,28.91,11.877,28.047,11.706z M24.857,16.59
			c-0.641,0.129-1.166,0.586-1.38,1.203c-0.119,0.34-0.257,0.67-0.413,0.992c-0.285,0.588-0.237,1.283,0.126,1.826l1.601,2.402
			l-1.774,1.775l-2.401-1.602c-0.309-0.205-0.665-0.311-1.023-0.311c-0.274,0-0.549,0.062-0.804,0.184
			c-0.319,0.156-0.65,0.295-0.992,0.414c-0.616,0.215-1.074,0.74-1.202,1.381l-0.566,2.828h-2.51l-0.565-2.828
			c-0.128-0.641-0.586-1.166-1.202-1.381c-0.341-0.119-0.672-0.256-0.992-0.412c-0.255-0.123-0.529-0.186-0.805-0.186
			c-0.358,0-0.715,0.105-1.023,0.311l-2.401,1.602l-1.774-1.775l1.601-2.402c0.362-0.543,0.41-1.238,0.126-1.826
			c-0.154-0.32-0.294-0.65-0.413-0.992c-0.214-0.617-0.739-1.074-1.38-1.201L1.86,16.023l-0.001-2.509l2.828-0.565
			c0.641-0.128,1.166-0.585,1.38-1.203c0.119-0.34,0.257-0.671,0.413-0.992c0.285-0.588,0.237-1.284-0.126-1.828L4.754,6.525
			l1.774-1.774L8.93,6.352c0.309,0.205,0.665,0.31,1.023,0.31c0.274,0,0.549-0.061,0.804-0.184c0.319-0.155,0.65-0.294,0.992-0.414
			c0.616-0.214,1.074-0.739,1.202-1.38l0.566-2.828l2.51-0.001l0.565,2.829c0.128,0.641,0.586,1.166,1.203,1.38
			c0.34,0.119,0.671,0.257,0.991,0.413c0.255,0.124,0.529,0.185,0.805,0.185c0.358,0,0.715-0.104,1.023-0.31l2.401-1.601
			l1.774,1.774L23.19,8.927c-0.362,0.544-0.41,1.238-0.126,1.827c0.154,0.32,0.294,0.65,0.413,0.992
			c0.214,0.617,0.739,1.075,1.38,1.203l2.827,0.566l0.001,2.509L24.857,16.59z M14.772,8.312c-3.565,0-6.457,2.891-6.457,6.457
			c0,3.567,2.892,6.458,6.457,6.458s6.457-2.891,6.457-6.458C21.229,11.204,18.338,8.312,14.772,8.312z M14.772,20.42
			c-3.119,0-5.649-2.531-5.649-5.651c0-3.119,2.53-5.649,5.649-5.649s5.649,2.53,5.649,5.649
			C20.422,17.889,17.892,20.42,14.772,20.42z M14.772,11.08c-2.038,0-3.689,1.651-3.689,3.689c0,2.04,1.651,3.69,3.689,3.69
			s3.689-1.65,3.689-3.69C18.462,12.73,16.811,11.08,14.772,11.08z M14.772,17.537c-1.527,0-2.768-1.24-2.768-2.768
			c0-1.527,1.24-2.767,2.768-2.767s2.768,1.24,2.768,2.767C17.54,16.297,16.3,17.537,14.772,17.537z"/>
	</g>
</g>
<g id="camera" display="none">
	<g display="inline">
		<path fill="#333333" d="M14.772,8.775c-4.075,0-7.379,3.302-7.379,7.379c0,4.076,3.304,7.379,7.379,7.379
			c4.076,0,7.38-3.303,7.38-7.379C22.152,12.077,18.848,8.775,14.772,8.775z M18.973,19.756c-1.988,2.32-5.481,2.588-7.801,0.6
			c-2.321-1.988-2.589-5.482-0.601-7.803s5.482-2.589,7.802-0.6C20.695,13.941,20.963,17.434,18.973,19.756z M14.772,12.465
			c-2.037,0-3.688,1.652-3.689,3.688v0.002c0,0.254,0.207,0.461,0.462,0.461s0.461-0.207,0.461-0.461v-0.002
			c0.001-1.528,1.238-2.765,2.767-2.765c0.255,0,0.462-0.208,0.462-0.461C15.234,12.671,15.027,12.465,14.772,12.465z M27.219,7.89
			l-4-0.667l-1.266-3.166c-0.424-1.058-1.432-1.739-2.568-1.739h-9.224c-1.137,0-2.146,0.681-2.57,1.74L6.325,7.222L2.329,7.89
			c-1.342,0.223-2.314,1.37-2.314,2.729v13.834c0,1.527,1.241,2.768,2.768,2.768h23.982c1.525,0,2.768-1.24,2.768-2.768V10.619
			C29.531,9.26,28.559,8.112,27.219,7.89z M27.686,24.453c0,0.51-0.412,0.922-0.922,0.922H2.782c-0.51,0-0.923-0.412-0.923-0.922
			V10.619c0-0.452,0.326-0.837,0.771-0.91l5.021-0.838l1.652-4.129c0.14-0.35,0.479-0.58,0.856-0.58h9.224
			c0.377,0,0.715,0.23,0.855,0.58l1.652,4.129l5.021,0.838c0.445,0.073,0.771,0.458,0.771,0.91V24.453z"/>
	</g>
</g>
<g id="tag" display="none">
	<g display="inline">
		<path fill="#333333" d="M28.969,12.814l-4.611-7.379c-0.674-1.078-1.857-1.734-3.129-1.734H3.704
			c-2.038,0-3.689,1.652-3.689,3.689v14.758c0,2.037,1.652,3.689,3.689,3.689h17.525c1.271,0,2.455-0.656,3.129-1.734l4.611-7.379
			C29.718,15.529,29.718,14.01,28.969,12.814z M27.405,15.747l-4.612,7.38c-0.339,0.541-0.924,0.865-1.564,0.865H3.704
			c-1.017,0-1.845-0.826-1.845-1.844V7.39c0-1.017,0.828-1.845,1.845-1.845h17.525c0.641,0,1.226,0.324,1.564,0.867l4.611,7.378
			C27.776,14.385,27.776,15.153,27.405,15.747z M21.229,12.002c-1.528,0-2.768,1.238-2.768,2.767c0,1.528,1.239,2.768,2.768,2.768
			c1.529,0,2.768-1.24,2.768-2.768C23.996,13.241,22.758,12.002,21.229,12.002z M21.229,16.613c-1.019,0-1.845-0.826-1.845-1.844
			s0.826-1.844,1.845-1.844c1.02,0,1.846,0.826,1.846,1.844S22.248,16.613,21.229,16.613z"/>
	</g>
</g>
<g id="lock" display="none">
	<g display="inline">
		<path fill="#333333" d="M23.074,12.002v-3.69c0-4.584-3.717-8.301-8.301-8.301c-4.585,0-8.301,3.717-8.301,8.301v3.69
			c-1.529,0-2.768,1.238-2.768,2.767v6.458c0,4.584,3.717,8.301,8.302,8.301h5.534c4.585,0,8.302-3.717,8.302-8.301v-6.458
			C25.842,13.241,24.604,12.002,23.074,12.002z M8.316,8.312c0-3.566,2.89-6.457,6.457-6.457c3.566,0,6.457,2.891,6.457,6.457v3.69
			h-1.845V8.315c0-2.547-2.064-4.612-4.612-4.612s-4.612,2.064-4.612,4.612v3.687H8.316V8.312z M18.463,8.312v3.69h-7.379v-3.69
			c0-2.037,1.652-3.689,3.689-3.689S18.463,6.275,18.463,8.312z M23.996,21.227c0,3.559-2.896,6.455-6.456,6.455h-5.534
			c-3.56,0-6.457-2.896-6.457-6.455v-6.458c0-0.509,0.413-0.922,0.922-0.922h16.603c0.51,0,0.922,0.413,0.922,0.922V21.227z
			 M14.773,17.537c-1.019,0-1.845,0.826-1.845,1.844c0,0.561,0.307,1.623,0.615,2.465c0.251,0.684,0.566,1.225,1.229,1.225
			c0.721,0,0.978-0.535,1.231-1.215c0.311-0.844,0.613-1.912,0.613-2.475C16.617,18.363,15.792,17.537,14.773,17.537z"/>
	</g>
</g>
<g id="bulb" display="none">
	<g display="inline">
		<path fill="#333333" d="M14.773,0.011c-5.604,0-10.146,4.542-10.146,10.146c0,3.718,3.402,7.659,4.641,11.118
			c1.848,5.164,1.643,8.252,5.506,8.252c3.92,0,3.657-3.076,5.505-8.229c1.243-3.469,4.641-7.452,4.641-11.142
			C24.919,4.554,20.377,0.011,14.773,0.011z M14.773,27.682c-0.934,0-1.365-0.105-1.842-1.152l3.909-0.488
			C16.274,27.566,15.862,27.682,14.773,27.682z M17.496,23.977c-0.121,0.414-0.23,0.773-0.332,1.102L12.59,25.65
			c-0.163-0.475-0.339-1.027-0.551-1.748c-0.003-0.008-0.006-0.02-0.008-0.027l5.708-0.715
			C17.658,23.434,17.57,23.721,17.496,23.977z M18.033,22.203l-6.271,0.783c-0.167-0.555-0.356-1.141-0.567-1.76h7.163
			C18.245,21.557,18.132,21.889,18.033,22.203z M19.082,19.381h-8.608c-0.459-0.996-1.011-1.992-1.555-2.967
			c-1.204-2.154-2.448-4.381-2.448-6.257c0-4.578,3.724-8.301,8.302-8.301s8.301,3.724,8.301,8.301c0,1.861-1.244,4.101-2.449,6.267
			C20.086,17.396,19.539,18.391,19.082,19.381z M14.773,4.623c-3.052,0-5.535,2.482-5.535,5.534c0,0.255,0.207,0.461,0.461,0.461
			s0.461-0.206,0.461-0.461c0-2.542,2.069-4.612,4.612-4.612c0.255,0,0.461-0.206,0.461-0.461S15.028,4.623,14.773,4.623z"/>
	</g>
</g>
<g id="pen" display="none">
	<g display="inline">
		<path fill="#333333" d="M27.129,2.391c-1.518-1.515-3.516-2.38-5.484-2.38c-1.66,0-3.191,0.616-4.307,1.731l-4.49,4.523
			c-0.014,0.013-0.03,0.021-0.044,0.035c-0.007,0.007-0.012,0.017-0.019,0.024l0.002,0.002l-9.528,9.6
			c-0.438,0.436-0.758,0.981-0.935,1.573l-2.166,7.848c-0.003,0.021-0.145,0.639-0.145,0.951c0,1.783,1.448,3.229,3.233,3.229
			c0.354,0,1.042-0.17,1.067-0.174l7.819-2.055c0.594-0.176,1.134-0.498,1.572-0.938l14.079-14.188
			C30.346,9.61,30.059,5.315,27.129,2.391z M14.147,7.577c1.087-1.061,2.671-1.366,4.232-0.979l-8.692,8.69
			c-0.854-0.344-1.749-0.54-2.646-0.552L14.147,7.577z M3.859,27.566c-0.101,0.021-0.413,0.102-0.626,0.115
			c-0.759-0.008-1.374-0.625-1.374-1.383c0.011-0.154,0.073-0.42,0.094-0.52l0.972-3.518c1.054-0.029,2.188,0.383,3.08,1.275
			c0.906,0.906,1.332,2.062,1.285,3.127L3.859,27.566z M11.94,25.385c-0.107,0.057-0.216,0.111-0.332,0.146L8.2,26.426
			c-0.022-1.238-0.526-2.525-1.542-3.539c-0.961-0.963-2.219-1.518-3.474-1.568l0.919-3.328c0.066-0.221,0.198-0.439,0.36-0.631
			c1.851-1.324,4.695-0.934,6.673,1.045C13.227,20.496,13.55,23.557,11.94,25.385z M13.661,18.695
			c-0.345-0.566-0.735-1.111-1.22-1.596c-0.564-0.562-1.211-1.004-1.886-1.375l8.792-8.792c0.689,0.306,1.352,0.742,1.936,1.326
			c0.498,0.497,0.885,1.054,1.18,1.633L13.661,18.695z M21.936,15.432c-0.008,0.007-0.018,0.012-0.023,0.019l0.012,0.012
			l-7.128,7.184c0.001-0.229,0.012-0.453-0.009-0.686c-0.076-0.834-0.312-1.65-0.663-2.426l8.72-8.718
			C23.377,12.501,23.104,14.263,21.936,15.432z M26.48,10.87l-1.555,1.565c0-0.208,0.025-0.409,0.006-0.622
			c-0.162-1.784-0.994-3.51-2.346-4.86c-1.502-1.503-3.494-2.366-5.467-2.372l1.527-1.54c0.764-0.763,1.83-1.187,2.998-1.187
			c1.484,0,3.008,0.671,4.18,1.84c1.102,1.099,1.758,2.463,1.852,3.844C27.762,8.83,27.338,10.012,26.48,10.87z"/>
	</g>
</g>
<g id="diamond" display="none">
	<g display="inline">
		<path fill="#333333" d="M28.99,8.933l-4.686-4.686C23.959,3.901,23.489,3.706,23,3.706H6.546c-0.489,0-0.959,0.195-1.305,0.541
			L0.556,8.933c-0.362,0.361-0.543,0.838-0.541,1.316c0.002,0.433,0.157,0.867,0.466,1.214l12.913,13.752
			c0.351,0.395,0.852,0.617,1.379,0.617s1.028-0.223,1.379-0.617l12.913-13.752c0.315-0.355,0.471-0.8,0.466-1.242
			C29.527,9.752,29.345,9.287,28.99,8.933z M22.354,5.551l-1.768,1.472l-1.473-1.472H22.354z M22.422,10.163H18.26l2.271-1.892
			L22.422,10.163z M19.875,7.616L17.54,9.562l-2.047-1.705l2.521-2.103L19.875,7.616z M16.82,10.163h-4.096l2.048-1.707
			L16.82,10.163z M16.82,5.551l-2.048,1.706l-2.048-1.706H16.82z M14.052,7.857l-2.047,1.705L9.67,7.616l1.86-1.861L14.052,7.857z
			 M11.285,10.163H7.123l1.892-1.892L11.285,10.163z M10.431,5.551L8.958,7.023L7.19,5.551H10.431z M6.181,5.91l2.122,1.769
			l-2.484,2.484H1.864L6.181,5.91z M2.656,11.085h3.278l5.798,9.665L2.656,11.085z M7.009,11.085h4.526L13.798,22.4L7.009,11.085z
			 M12.476,11.085h4.594L14.772,22.57L12.476,11.085z M15.747,22.4l2.263-11.315h4.526L15.747,22.4z M17.812,20.75l5.799-9.665
			h3.279L17.812,20.75z M23.727,10.163l-2.484-2.484l2.119-1.767l4.25,4.251H23.727z"/>
	</g>
</g>
<g id="display" display="none">
	<g display="inline">
		<path fill="#333333" d="M24.918,4.621L4.626,4.625c-0.51,0-0.923,0.409-0.923,0.919v12.914c0,0.51,0.413,0.922,0.923,0.922h20.292
			c0.51,0,0.924-0.412,0.924-0.922V5.543C25.842,5.034,25.428,4.621,24.918,4.621z M24.918,18.461H4.626V5.543h20.292V18.461z
			 M26.764,0.935H2.782c-1.529,0-2.768,1.238-2.768,2.767V22.15c0,1.525,1.234,2.762,2.758,2.766h9.233v1.121l-5.758,0.75
			c-0.411,0.102-0.699,0.471-0.699,0.895c0,0.51,0.413,0.922,0.923,0.922h16.603c0.51,0,0.922-0.412,0.922-0.922
			c0-0.424-0.289-0.793-0.699-0.895l-5.758-0.75v-1.121h9.232c1.525-0.004,2.76-1.24,2.76-2.766V3.702
			C29.531,2.173,28.291,0.935,26.764,0.935z M27.686,22.15c0,0.508-0.414,0.922-0.922,0.922H2.782c-0.51,0-0.923-0.414-0.923-0.922
			V3.702c0-0.509,0.413-0.922,0.923-0.922h23.982c0.508,0,0.922,0.414,0.922,0.922V22.15z"/>
	</g>
</g>
<g id="location" display="none">
	<g display="inline">
		<path fill="#333333" d="M14.773,5.311c-3.052,0-5.534,2.483-5.534,5.535s2.482,5.534,5.534,5.534s5.534-2.482,5.534-5.534
			S17.825,5.311,14.773,5.311z M14.773,15.458c-2.543,0-4.612-2.068-4.612-4.612s2.068-4.612,4.612-4.612
			c2.544,0,4.611,2.068,4.611,4.612S17.317,15.458,14.773,15.458z M14.772,0.011c-6.104,0-11.069,4.904-11.069,11.07
			c0,6.458,5.535,13.062,9.571,17.704c0.015,0.018,0.663,0.742,1.463,0.742h0.07c0.801,0,1.448-0.725,1.464-0.742
			c4.036-4.643,9.57-11.246,9.57-17.704C25.842,4.915,20.877,0.011,14.772,0.011z M14.88,27.574
			c-0.019,0.018-0.076,0.061-0.125,0.092c-0.009-0.027-0.077-0.08-0.119-0.123c-3.381-3.891-9.089-10.455-9.089-16.462
			c0-5.087,4.139-9.226,9.225-9.226c5.087,0,9.226,4.139,9.226,9.226C23.998,17.088,18.29,23.652,14.88,27.574z"/>
	</g>
</g>
<g id="eye" display="none">
	<g display="inline">
		<path fill="#333333" d="M29.507,14.566c-0.01-0.038-0.005-0.08-0.019-0.118c-0.006-0.016-0.02-0.024-0.025-0.038
			c-0.01-0.023-0.008-0.047-0.02-0.069c-2.682-5.119-8.516-8.789-14.67-8.789c-6.155,0-11.989,3.663-14.671,8.782
			c-0.012,0.022-0.01,0.047-0.019,0.069c-0.006,0.014-0.02,0.023-0.025,0.038c-0.015,0.038-0.009,0.08-0.018,0.118
			c-0.016,0.069-0.033,0.136-0.033,0.207c0,0.069,0.017,0.137,0.033,0.206c0.009,0.038,0.003,0.08,0.018,0.117
			c0.005,0.016,0.019,0.024,0.025,0.04c0.009,0.021,0.007,0.047,0.019,0.068c2.682,5.121,8.516,8.789,14.671,8.789
			c6.155,0,11.989-3.662,14.67-8.783c0.012-0.022,0.01-0.046,0.02-0.069c0.006-0.014,0.02-0.022,0.025-0.037
			c0.014-0.038,0.009-0.08,0.019-0.119c0.015-0.069,0.031-0.135,0.031-0.206C29.538,14.703,29.521,14.635,29.507,14.566z
			 M14.773,22.143c-5.189,0-10.269-2.945-12.801-7.375c2.545-4.436,7.619-7.37,12.801-7.37c5.188,0,10.268,2.944,12.801,7.374
			C25.029,19.207,19.955,22.143,14.773,22.143z M14.773,11.082c-0.002,0-0.003,0.002-0.005,0.002
			c-2.037,0.003-3.688,1.652-3.688,3.686c0,0.255,0.207,0.461,0.462,0.461c0.254,0,0.461-0.206,0.461-0.461
			c0-1.524,1.243-2.765,2.771-2.765c0.254,0,0.461-0.207,0.461-0.461C15.234,11.289,15.027,11.082,14.773,11.082z M14.751,8.316
			c-3.573,0-6.469,2.891-6.469,6.456c0,3.566,2.896,6.457,6.469,6.457c3.573,0,6.469-2.891,6.469-6.457
			C21.221,11.207,18.324,8.316,14.751,8.316z M14.751,20.307c-3.058,0-5.545-2.482-5.545-5.535c0-3.051,2.488-5.533,5.545-5.533
			c3.057,0,5.545,2.482,5.545,5.533C20.297,17.824,17.809,20.307,14.751,20.307z"/>
	</g>
</g>
<g id="bubble" display="none">
	<g display="inline">
		<path fill="#333333" d="M14.773,6.467c-5.5,0-10.146,2.957-10.146,6.457c0,0.255,0.207,0.461,0.461,0.461s0.461-0.207,0.461-0.461
			c0-2.948,4.31-5.534,9.224-5.534c0.255,0,0.461-0.206,0.461-0.461S15.028,6.467,14.773,6.467z M14.773,1.855
			c-8.151,0-14.758,4.956-14.758,11.068c0,3.807,2.563,7.164,6.464,9.156c0,0.025-0.007,0.041-0.007,0.068
			c0,1.654-1.235,3.434-1.778,4.369c0.001,0,0.001,0,0.001,0c-0.043,0.1-0.068,0.211-0.068,0.33c0,0.461,0.374,0.836,0.836,0.836
			c0.086,0,0.239-0.023,0.235-0.012c2.882-0.473,5.598-3.121,6.229-3.891c0.921,0.137,1.872,0.211,2.847,0.211
			c8.15,0,14.758-4.955,14.758-11.068C29.531,6.812,22.923,1.855,14.773,1.855z M14.773,22.148c-0.846,0-1.713-0.064-2.579-0.191
			c-0.089-0.014-0.179-0.02-0.268-0.02c-0.547,0-1.073,0.244-1.426,0.674c-0.395,0.482-1.518,1.553-2.846,2.342
			c0.359-0.824,0.642-1.75,0.661-2.703c0.005-0.059,0.008-0.119,0.008-0.17c0-0.693-0.388-1.328-1.005-1.643
			c-3.418-1.746-5.458-4.554-5.458-7.514c0-5.085,5.793-9.224,12.914-9.224s12.913,4.138,12.913,9.224
			C27.686,18.01,21.894,22.148,14.773,22.148z"/>
	</g>
</g>
<g id="stack" display="none">
	<g display="inline">
		<path fill="#333333" d="M29.461,17.033L25.77,3.192c-0.225-0.786-0.953-1.336-1.773-1.336H5.548c-0.82,0-1.549,0.55-1.772,1.336
			L0.084,17.033c-0.047,0.168-0.07,0.338-0.07,0.504v6.455c0,2.039,1.652,3.691,3.689,3.691h22.138c2.037,0,3.689-1.652,3.689-3.691
			v-6.455C29.531,17.371,29.508,17.201,29.461,17.033z M27.686,23.992c0,1.018-0.828,1.846-1.844,1.846H3.704
			c-1.017,0-1.845-0.828-1.845-1.846v-6.455l3.69-13.838h18.447l3.689,13.838V23.992z M21.914,5.545H7.631
			c-0.418,0-0.783,0.281-0.892,0.686L3.562,17.299c-0.073,0.277-0.015,0.572,0.16,0.799c0.175,0.229,0.445,0.361,0.731,0.361h4.214
			l1.335,2.67c0.312,0.625,0.951,1.02,1.65,1.02h6.24c0.699,0,1.338-0.395,1.65-1.02l1.336-2.67h4.213
			c0.287,0,0.557-0.133,0.732-0.361c0.174-0.227,0.232-0.521,0.16-0.799L22.807,6.23C22.697,5.826,22.332,5.545,21.914,5.545z
			 M20.879,16.613c-0.703,0-1.336,0.391-1.65,1.02l-1.336,2.67h-6.24l-1.335-2.67c-0.315-0.629-0.948-1.02-1.65-1.02H4.934
			L7.631,6.467h14.283l2.697,10.146H20.879z"/>
	</g>
</g>
<g id="cup" display="none">
	<g display="inline">
		<path fill="#333333" d="M25.944,4.643l-1.12-3.372c-0.251-0.753-0.956-1.261-1.75-1.261H6.471c-0.794,0-1.499,0.508-1.75,1.261
			l-1.13,3.374C2.628,4.707,1.859,5.489,1.859,6.467v2.767c0,1.019,0.826,1.845,1.845,1.845h0.954c0,0.069-0.028,0.134-0.021,0.204
			l1.845,16.604c0.104,0.934,0.893,1.641,1.833,1.641h12.914c0.94,0,1.729-0.707,1.833-1.641l1.845-16.604
			c0.008-0.069-0.021-0.134-0.021-0.204h0.954c1.019,0,1.845-0.826,1.845-1.845V6.467C27.686,5.485,26.912,4.7,25.944,4.643z
			 M6.471,1.855h16.604l0.922,2.767H5.549L6.471,1.855z M21.229,27.684H8.315l-0.307-2.768h13.527L21.229,27.684z M21.639,23.992
			H7.906l-1.025-9.223h15.783L21.639,23.992z M22.767,13.846H6.778l-0.308-2.767h16.604L22.767,13.846z M25.841,9.234H3.704V6.467
			h22.137V9.234z"/>
	</g>
</g>
<g id="phone" display="none">
	<g display="inline">
		<path fill="#333333" d="M22.152,0.011H7.393c-1.528,0-2.767,1.239-2.767,2.768v23.983c0,1.527,1.238,2.766,2.767,2.766h14.759
			c1.527,0,2.766-1.24,2.766-2.768V2.778C24.918,1.249,23.68,0.011,22.152,0.011z M23.074,26.76c0,0.51-0.414,0.924-0.922,0.924
			H7.393c-0.509,0-0.922-0.414-0.922-0.922v-1.85h16.603V26.76z M23.074,23.99H6.471V5.546l16.603-0.002V23.99z M23.074,4.623H6.471
			V2.779c0-0.509,0.413-0.922,0.922-0.922l14.759-0.002c0.508,0,0.922,0.415,0.922,0.923V4.623z M16.156,2.778h-2.767
			c-0.255,0-0.462,0.205-0.462,0.461c0,0.255,0.207,0.461,0.462,0.461h2.767c0.254,0,0.461-0.207,0.461-0.461
			C16.617,2.983,16.41,2.778,16.156,2.778z M14.311,26.756h0.923c0.255,0,0.461-0.205,0.461-0.461s-0.206-0.461-0.461-0.461h-0.923
			c-0.255,0-0.461,0.205-0.461,0.461S14.056,26.756,14.311,26.756z"/>
	</g>
</g>
<g id="news" display="none">
	<g display="inline">
		<path fill="#333333" d="M26.764,0.011H6.471c-1.529,0-2.767,1.238-2.767,2.767v1.845H2.782c-1.529,0-2.767,1.239-2.767,2.768
			v18.448c0,2.037,1.652,3.689,3.689,3.689h22.138c2.037,0,3.689-1.652,3.689-3.689V2.778C29.531,1.25,28.292,0.011,26.764,0.011z
			 M27.686,25.838c0,1.016-0.827,1.844-1.844,1.844H3.704c-1.017,0-1.845-0.828-1.845-1.844V7.39c0-0.509,0.413-0.923,0.922-0.923
			h0.922v18.449c0,0.51,0.413,0.922,0.922,0.922s0.922-0.412,0.922-0.922V2.778c0-0.509,0.414-0.922,0.922-0.922h20.292
			c0.509,0,0.922,0.413,0.922,0.922V25.838z M18,12.007h7.379c0.256,0,0.461-0.206,0.461-0.461s-0.205-0.462-0.461-0.462H18
			c-0.255,0-0.461,0.207-0.461,0.462S17.745,12.007,18,12.007z M18,9.24h7.379c0.256,0,0.461-0.206,0.461-0.461
			s-0.205-0.461-0.461-0.461H18c-0.255,0-0.461,0.206-0.461,0.461S17.745,9.24,18,9.24z M18,6.473h7.379
			c0.256,0,0.461-0.206,0.461-0.461S25.635,5.55,25.379,5.55H18c-0.255,0-0.461,0.207-0.461,0.462S17.745,6.473,18,6.473z
			 M15.234,24.918H7.854c-0.255,0-0.461,0.209-0.461,0.463c0,0.256,0.206,0.461,0.461,0.461h7.379c0.255,0,0.461-0.205,0.461-0.461
			C15.695,25.127,15.489,24.918,15.234,24.918z M15.234,22.152H7.854c-0.255,0-0.461,0.207-0.461,0.461
			c0,0.256,0.206,0.461,0.461,0.461h7.379c0.255,0,0.461-0.205,0.461-0.461C15.695,22.359,15.489,22.152,15.234,22.152z
			 M15.234,19.385H7.854c-0.255,0-0.461,0.207-0.461,0.461c0,0.256,0.206,0.461,0.461,0.461h7.379c0.255,0,0.461-0.205,0.461-0.461
			C15.695,19.592,15.489,19.385,15.234,19.385z M25.38,24.918h-7.379c-0.255,0-0.462,0.209-0.462,0.463
			c0,0.256,0.207,0.461,0.462,0.461h7.379c0.255,0,0.462-0.205,0.462-0.461C25.842,25.127,25.635,24.918,25.38,24.918z
			 M25.38,22.152h-7.379c-0.255,0-0.462,0.207-0.462,0.461c0,0.256,0.207,0.461,0.462,0.461h7.379c0.255,0,0.462-0.205,0.462-0.461
			C25.842,22.359,25.635,22.152,25.38,22.152z M25.38,19.385h-7.379c-0.255,0-0.462,0.207-0.462,0.461
			c0,0.256,0.207,0.461,0.462,0.461h7.379c0.255,0,0.462-0.205,0.462-0.461C25.842,19.592,25.635,19.385,25.38,19.385z
			 M25.38,13.851H7.854c-0.255,0-0.461,0.206-0.461,0.461s0.206,0.462,0.461,0.462H25.38c0.255,0,0.462-0.207,0.462-0.462
			S25.635,13.851,25.38,13.851z M25.38,16.617H7.854c-0.255,0-0.461,0.207-0.461,0.461c0,0.256,0.206,0.461,0.461,0.461H25.38
			c0.255,0,0.462-0.205,0.462-0.461C25.842,16.824,25.635,16.617,25.38,16.617z M8.316,12.001h6.457c0.51,0,0.922-0.412,0.922-0.922
			V4.627c0-0.51-0.413-0.923-0.922-0.923H8.316c-0.51,0-0.922,0.413-0.922,0.923v6.452C7.394,11.589,7.806,12.001,8.316,12.001z
			 M9.238,5.545h4.612v4.611H9.238V5.545z"/>
	</g>
</g>
<g id="mail" display="none">
	<g display="inline">
		<path fill="#333333" d="M25.841,5.084H3.704c-2.037,0-3.689,1.651-3.689,3.689v11.992c0,2.037,1.652,3.689,3.689,3.689h22.137
			c2.038,0,3.69-1.652,3.69-3.689V8.773C29.531,6.735,27.879,5.084,25.841,5.084z M1.859,9.927l6.456,4.842l-6.456,4.842V9.927z
			 M25.841,22.609H3.704c-1.017,0-1.845-0.826-1.845-1.844l7.224-5.419l4.029,3.023c0.492,0.367,1.076,0.553,1.66,0.553
			s1.168-0.186,1.66-0.553l4.029-3.023l7.224,5.419C27.686,21.783,26.857,22.609,25.841,22.609z M27.686,19.611l-6.455-4.842
			l6.455-4.842V19.611z M15.879,17.631C15.557,17.871,15.174,18,14.772,18s-0.785-0.129-1.107-0.369l-3.814-2.862l-0.769-0.576
			L1.859,8.774V8.773c0-1.017,0.828-1.845,1.845-1.845h22.137c1.017,0,1.845,0.828,1.845,1.845L15.879,17.631z"/>
	</g>
</g>
<g id="like">
	<g>
		<path fill="#333333" d="M26.915,9.669c-1.151-0.303-3.864-0.299-7.829-0.403c0.188-0.865,0.23-1.646,0.23-3.031
			c0-3.309-2.41-6.224-4.543-6.224c-1.506,0-2.749,1.231-2.767,2.745c-0.021,1.857-0.595,5.066-3.69,6.692
			c-0.227,0.12-0.876,0.44-0.971,0.482l0.048,0.041C6.909,9.554,6.238,9.235,5.549,9.235H2.782c-1.526,0-2.767,1.241-2.767,2.767
			V26.76c0,1.525,1.241,2.768,2.767,2.768h2.767c1.098,0,2.016-0.662,2.461-1.592c0.011,0.002,0.031,0.008,0.043,0.01
			c0.061,0.016,0.132,0.035,0.221,0.059c0.016,0.002,0.025,0.004,0.042,0.01c0.532,0.131,1.554,0.377,3.74,0.879
			C12.525,29,15,29.527,17.566,29.527h5.041c1.538,0,2.645-0.592,3.305-1.777c0.01-0.02,0.223-0.434,0.395-0.994
			c0.131-0.422,0.179-1.018,0.021-1.623c0.99-0.68,1.31-1.709,1.518-2.379c0.347-1.1,0.242-1.924,0.001-2.516
			c0.557-0.525,1.032-1.328,1.233-2.551c0.124-0.758-0.01-1.539-0.359-2.188c0.521-0.586,0.761-1.324,0.787-2.007l0.011-0.192
			c0.007-0.122,0.013-0.196,0.013-0.463C29.531,11.672,28.725,10.187,26.915,9.669z M6.471,26.76c0,0.51-0.413,0.922-0.922,0.922
			H2.782c-0.51,0-0.922-0.412-0.922-0.922V12.001c0-0.51,0.413-0.922,0.922-0.922h2.767c0.51,0,0.922,0.412,0.922,0.922V26.76z
			 M27.666,13.417c-0.02,0.456-0.211,1.352-1.824,1.352c-1.384,0-1.846,0-1.846,0c-0.254,0-0.461,0.206-0.461,0.461
			s0.207,0.462,0.461,0.462c0,0,0.404,0,1.787,0c1.385,0,1.566,1.148,1.477,1.701c-0.113,0.688-0.437,1.988-1.994,1.988
			c-1.557,0-2.191,0-2.191,0c-0.255,0-0.461,0.205-0.461,0.461c0,0.254,0.206,0.461,0.461,0.461c0,0,1.096,0,1.816,0
			c1.557,0,1.42,1.188,1.195,1.896c-0.293,0.932-0.473,1.793-2.434,1.793c-0.664,0-1.506,0-1.506,0
			c-0.255,0-0.461,0.207-0.461,0.463c0,0.254,0.206,0.461,0.461,0.461c0,0,0.64,0,1.447,0c1.008,0,1.057,0.955,0.951,1.297
			c-0.115,0.375-0.252,0.652-0.258,0.664c-0.279,0.502-0.729,0.805-1.68,0.805h-5.041c-2.534,0-5.046-0.574-5.111-0.588
			c-3.832-0.883-4.034-0.951-4.274-1.02c0,0-0.78-0.133-0.78-0.812l-0.007-12.74c0-0.433,0.276-0.823,0.732-0.962
			c0.057-0.022,0.134-0.046,0.19-0.069c4.214-1.744,5.497-5.57,5.535-8.713c0.005-0.441,0.346-0.922,0.922-0.922
			c0.976,0,2.699,1.957,2.699,4.379c0,2.188-0.087,2.565-0.854,4.845c9.225,0,9.159,0.133,9.974,0.346
			c1.009,0.288,1.095,1.124,1.095,1.412C27.686,13.154,27.678,13.108,27.666,13.417z M4.166,23.992
			c-0.764,0-1.384,0.621-1.384,1.385s0.62,1.383,1.384,1.383c0.764,0,1.383-0.619,1.383-1.383S4.929,23.992,4.166,23.992z
			 M4.166,25.838c-0.254,0-0.461-0.207-0.461-0.461s0.207-0.461,0.461-0.461c0.254,0,0.461,0.207,0.461,0.461
			S4.419,25.838,4.166,25.838z"/>
	</g>
</g>
<g id="photo" display="none">
	<g display="inline">
		<path fill="#333333" d="M24.918,0.011H4.626c-2.037,0-3.689,1.651-3.689,3.689v22.137c0,2.037,1.652,3.689,3.689,3.689h20.292
			c2.038,0,3.69-1.652,3.69-3.689V3.701C28.608,1.663,26.956,0.011,24.918,0.011z M26.763,25.838c0,1.016-0.827,1.844-1.845,1.844
			H4.626c-1.017,0-1.845-0.828-1.845-1.844V3.701c0-1.018,0.828-1.845,1.845-1.845h20.292c1.018,0,1.845,0.827,1.845,1.845V25.838z
			 M23.996,3.701H5.548c-0.51,0-0.922,0.412-0.922,0.922v16.604c0,0.51,0.412,0.922,0.922,0.922h18.448
			c0.51,0,0.922-0.412,0.922-0.922V4.623C24.918,4.113,24.506,3.701,23.996,3.701z M5.548,21.227v-7.75l3.69-4.242l7.439,8.433
			l0.535,0.607l2.548,2.951H5.548z M23.996,21.227H20.99l-3.162-3.648l2.479-2.809l3.689,4.04V21.227z M23.996,17.416l-2.998-3.256
			c-0.176-0.199-0.427-0.312-0.691-0.312s-0.517,0.113-0.692,0.312l-2.4,2.721L9.93,8.625C9.754,8.426,9.503,8.312,9.238,8.312
			c-0.266,0-0.517,0.114-0.692,0.312l-2.998,3.458v-7.46h18.448V17.416z M18.462,12.001c1.528,0,2.767-1.238,2.767-2.767
			s-1.238-2.768-2.767-2.768c-1.529,0-2.768,1.239-2.768,2.768S16.933,12.001,18.462,12.001z M18.462,7.39
			c1.017,0,1.845,0.828,1.845,1.845s-0.828,1.845-1.845,1.845c-1.018,0-1.845-0.828-1.845-1.845S17.444,7.39,18.462,7.39z"/>
	</g>
</g>
<g id="note" display="none">
	<g display="inline">
		<path fill="#333333" d="M28.99,7.008l-5.534-5.534c-0.346-0.347-0.815-0.541-1.305-0.541H2.781c-1.525,0-2.767,1.241-2.767,2.768
			v22.137c0,1.525,1.241,2.768,2.767,2.768h23.982c1.525,0,2.767-1.242,2.767-2.768V8.312C29.53,7.824,29.336,7.354,28.99,7.008z
			 M27.686,25.838c0,0.51-0.412,0.922-0.922,0.922H2.781c-0.51,0-0.922-0.412-0.922-0.922V3.701c0-0.51,0.412-0.923,0.922-0.923
			h18.448v3.689h-0.001c0,1.529,1.238,2.768,2.767,2.768h3.69V25.838z M23.995,8.312c-1.017,0-1.845-0.827-1.845-1.845h0.001V2.778
			l5.534,5.534H23.995z M14.312,7.39h4.611c0.255,0,0.462-0.206,0.462-0.461s-0.207-0.462-0.462-0.462h-4.611
			c-0.255,0-0.462,0.207-0.462,0.462S14.057,7.39,14.312,7.39z M14.312,10.157h4.611c0.255,0,0.462-0.206,0.462-0.461
			s-0.207-0.461-0.462-0.461h-4.611c-0.255,0-0.462,0.206-0.462,0.461S14.057,10.157,14.312,10.157z M13.85,12.463
			c0,0.255,0.207,0.461,0.462,0.461H25.38c0.255,0,0.461-0.206,0.461-0.461s-0.206-0.462-0.461-0.462H14.312
			C14.057,12.001,13.85,12.208,13.85,12.463z M25.38,17.537H4.165c-0.255,0-0.461,0.205-0.461,0.461
			c0,0.254,0.206,0.461,0.461,0.461H25.38c0.255,0,0.461-0.207,0.461-0.461C25.841,17.742,25.635,17.537,25.38,17.537z
			 M25.38,20.303H4.165c-0.255,0-0.461,0.205-0.461,0.461s0.206,0.463,0.461,0.463H25.38c0.255,0,0.461-0.207,0.461-0.463
			S25.635,20.303,25.38,20.303z M25.38,23.07H4.165c-0.255,0-0.461,0.205-0.461,0.461c0,0.254,0.206,0.461,0.461,0.461H25.38
			c0.255,0,0.461-0.207,0.461-0.461C25.841,23.275,25.635,23.07,25.38,23.07z M25.38,14.769H4.165c-0.255,0-0.461,0.206-0.461,0.461
			s0.206,0.462,0.461,0.462H25.38c0.255,0,0.461-0.207,0.461-0.462S25.635,14.769,25.38,14.769z M4.626,12.924h6.457
			c0.51,0,0.922-0.412,0.922-0.923V6.467c0-0.51-0.412-0.922-0.922-0.922H4.626c-0.51,0-0.922,0.412-0.922,0.922v5.534
			C3.704,12.512,4.116,12.924,4.626,12.924z M5.549,7.39h4.611v3.689H5.549V7.39z"/>
	</g>
</g>
<g id="clock" display="none">
	<g display="inline">
		<path fill="#333333" d="M13.85,10.157c0.51,0,0.922-0.412,0.922-0.922S14.36,8.312,13.85,8.312s-0.923,0.413-0.923,0.923
			S13.34,10.157,13.85,10.157z M13.85,19.381c-0.51,0-0.923,0.412-0.923,0.922s0.413,0.924,0.923,0.924s0.922-0.414,0.922-0.924
			S14.36,19.381,13.85,19.381z M8.316,13.847c-0.51,0-0.923,0.412-0.923,0.922s0.413,0.923,0.923,0.923s0.922-0.413,0.922-0.923
			S8.826,13.847,8.316,13.847z M18.461,14.769c0,0.51,0.414,0.923,0.924,0.923s0.922-0.413,0.922-0.923s-0.412-0.922-0.922-0.922
			S18.461,14.259,18.461,14.769z M9.285,18.029c-0.361,0.361-0.361,0.945,0,1.305c0.36,0.361,0.943,0.361,1.305,0
			c0.36-0.359,0.36-0.943,0-1.305C10.228,17.67,9.645,17.67,9.285,18.029z M9.285,10.204c-0.361,0.36-0.361,0.943-0.001,1.305
			c0.361,0.36,0.944,0.36,1.306,0c0.36-0.361,0.36-0.944,0-1.305C10.228,9.843,9.645,9.843,9.285,10.204z M17.111,18.029
			c-0.361,0.361-0.361,0.945,0,1.305c0.361,0.361,0.943,0.361,1.305,0c0.359-0.359,0.359-0.943-0.002-1.305
			C18.055,17.67,17.473,17.67,17.111,18.029z M23.074,12.924c-0.064,0-0.119,0.03-0.182,0.037c-0.322-1.609-1.078-3.049-2.119-4.237
			l-1.324-7.205c-0.162-0.874-0.924-1.508-1.812-1.508h-7.38c-0.889,0-1.65,0.634-1.813,1.508L7.151,8.482
			c-1.549,1.649-2.524,3.845-2.524,6.287c0,2.381,0.935,4.524,2.417,6.159l1.303,7.092c0.163,0.873,0.925,1.508,1.814,1.508h7.378
			c0.889,0,1.652-0.635,1.814-1.508l1.314-7.086c1.096-1.209,1.893-2.693,2.225-4.357c0.062,0.008,0.117,0.037,0.182,0.037
			c1.018,0,1.844-0.827,1.844-1.844C24.918,13.75,24.092,12.924,23.074,12.924z M10.256,1.856h7.38l0.922,4.969
			c-1.363-0.792-2.923-1.279-4.612-1.279c-1.689,0-3.25,0.487-4.612,1.279L10.256,1.856z M17.539,27.682h-7.378l-0.923-4.969
			c1.362,0.791,2.923,1.279,4.612,1.279c1.688,0,3.25-0.488,4.611-1.279L17.539,27.682z M13.85,22.148
			c-4.069,0-7.379-3.311-7.379-7.379c0-4.068,3.31-7.379,7.379-7.379c4.068,0,7.378,3.311,7.378,7.379
			C21.229,18.838,17.918,22.148,13.85,22.148z M18.408,10.181c-0.111-0.111-0.293-0.12-0.418-0.02l-4.789,3.952
			c-0.177,0.178-0.274,0.412-0.274,0.663c0,0.242,0.094,0.473,0.267,0.645s0.404,0.268,0.652,0.27
			c0.23-0.002,0.471-0.088,0.646-0.256l1.704-2.053l2.238-2.785C18.531,10.473,18.52,10.293,18.408,10.181z"/>
	</g>
</g>
<g id="paperplane" display="none">
	<g display="inline">
		<path fill="#333333" d="M29.109,0.159c-0.152-0.1-0.327-0.148-0.501-0.148c-0.179,0-0.356,0.051-0.513,0.155L0.425,18.615
			c-0.285,0.188-0.441,0.521-0.405,0.861c0.035,0.342,0.256,0.635,0.574,0.762l7.217,2.887l3.393,5.938
			c0.162,0.285,0.464,0.463,0.792,0.465h0.009c0.324,0,0.625-0.17,0.791-0.447l1.917-3.195l8.942,3.576
			c0.109,0.045,0.226,0.066,0.342,0.066c0.156,0,0.312-0.039,0.452-0.119c0.243-0.137,0.411-0.375,0.458-0.65l4.611-27.673
			C29.578,0.723,29.418,0.359,29.109,0.159z M8.497,21.412l-5.59-2.236L24.283,4.924L8.742,21.562
			C8.66,21.514,8.586,21.447,8.497,21.412z M11.984,26.709l-2.571-4.498c-0.002-0.004-0.004-0.006-0.006-0.01L26.879,3.499
			L11.984,26.709z M23.275,27.322l-7.878-3.15c-0.188-0.074-0.383-0.1-0.576-0.109L26.953,5.256L23.275,27.322z"/>
	</g>
</g>
<g id="params" display="none">
	<g display="inline">
		<path fill="#333333" d="M7.394,5.565V2.778c0-1.525-1.241-2.768-2.768-2.768c-1.526,0-2.767,1.242-2.767,2.768v2.787
			C0.745,6.408,0.014,7.73,0.014,9.235c0,1.504,0.73,2.826,1.845,3.668v13.858c0,1.525,1.241,2.766,2.767,2.766
			c1.526,0,2.768-1.24,2.768-2.766V12.903c1.114-0.842,1.845-2.164,1.845-3.668C9.238,7.73,8.508,6.408,7.394,5.565z M3.704,2.778
			c0-0.51,0.413-0.922,0.922-0.922c0.51,0,0.923,0.412,0.923,0.922v1.937C5.25,4.655,4.942,4.623,4.626,4.623
			c-0.316,0-0.624,0.032-0.922,0.092V2.778z M5.549,26.762c0,0.51-0.413,0.922-0.923,0.922c-0.51,0-0.922-0.412-0.922-0.922V13.753
			c0.298,0.062,0.606,0.094,0.922,0.094c0.316,0,0.625-0.032,0.923-0.094V26.762z M7.269,10.01
			c-0.014,0.049-0.028,0.098-0.045,0.146c-0.087,0.243-0.2,0.475-0.349,0.68c-0.003,0.005-0.009,0.009-0.013,0.015
			c-0.16,0.22-0.351,0.414-0.568,0.578c-0.003,0.003-0.006,0.005-0.009,0.007c-0.223,0.168-0.47,0.303-0.737,0.396
			c-0.29,0.104-0.598,0.171-0.923,0.171s-0.632-0.066-0.922-0.171c-0.267-0.094-0.514-0.229-0.737-0.396
			c-0.002-0.002-0.005-0.004-0.009-0.007C2.741,11.264,2.55,11.069,2.39,10.85c-0.003-0.006-0.009-0.01-0.013-0.015
			c-0.148-0.205-0.261-0.437-0.349-0.68c-0.017-0.048-0.031-0.097-0.045-0.146C1.91,9.763,1.859,9.505,1.859,9.235
			c0-0.272,0.051-0.53,0.125-0.776C1.998,8.41,2.011,8.361,2.028,8.314c0.087-0.243,0.2-0.474,0.349-0.681
			C2.38,7.628,2.386,7.624,2.39,7.619c0.16-0.218,0.351-0.414,0.568-0.578c0.003-0.002,0.006-0.006,0.009-0.008
			c0.223-0.165,0.47-0.301,0.737-0.396c0.29-0.104,0.597-0.17,0.922-0.17s0.633,0.066,0.923,0.17
			c0.267,0.095,0.514,0.23,0.737,0.396c0.002,0.002,0.005,0.006,0.009,0.008c0.217,0.164,0.408,0.36,0.568,0.578
			c0.003,0.005,0.009,0.009,0.013,0.015c0.148,0.207,0.261,0.438,0.349,0.681C7.241,8.361,7.255,8.41,7.269,8.459
			c0.074,0.246,0.125,0.504,0.125,0.776C7.394,9.505,7.343,9.763,7.269,10.01z M27.686,5.565V2.778c0-1.525-1.241-2.768-2.768-2.768
			c-1.525,0-2.767,1.242-2.767,2.768v2.787c-1.114,0.843-1.845,2.165-1.845,3.67c0,1.504,0.73,2.826,1.845,3.668v13.858
			c0,1.525,1.241,2.766,2.767,2.766c1.526,0,2.768-1.24,2.768-2.766V12.903c1.115-0.842,1.846-2.164,1.846-3.668
			C29.531,7.73,28.801,6.408,27.686,5.565z M23.996,2.778c0-0.51,0.412-0.922,0.922-0.922c0.511,0,0.923,0.412,0.923,0.922v1.937
			c-0.298-0.06-0.606-0.092-0.923-0.092c-0.315,0-0.623,0.032-0.922,0.092V2.778z M25.841,26.762c0,0.51-0.412,0.922-0.923,0.922
			c-0.51,0-0.922-0.412-0.922-0.922V13.753c0.299,0.062,0.606,0.094,0.922,0.094c0.316,0,0.625-0.032,0.923-0.094V26.762z
			 M27.562,10.01c-0.015,0.049-0.028,0.098-0.045,0.146c-0.087,0.243-0.2,0.475-0.349,0.68c-0.004,0.005-0.01,0.009-0.013,0.015
			c-0.16,0.22-0.351,0.414-0.568,0.578c-0.003,0.003-0.007,0.005-0.009,0.007c-0.223,0.168-0.471,0.303-0.737,0.396
			c-0.29,0.104-0.597,0.171-0.923,0.171c-0.324,0-0.632-0.066-0.922-0.171c-0.267-0.094-0.514-0.229-0.736-0.396
			c-0.003-0.002-0.006-0.004-0.01-0.007c-0.217-0.164-0.408-0.358-0.568-0.578c-0.003-0.006-0.009-0.01-0.012-0.015
			c-0.148-0.205-0.262-0.437-0.35-0.68c-0.017-0.048-0.03-0.097-0.045-0.146c-0.073-0.247-0.124-0.505-0.124-0.774
			c0-0.272,0.051-0.53,0.124-0.776c0.015-0.049,0.028-0.098,0.045-0.145c0.088-0.243,0.201-0.474,0.35-0.681
			c0.003-0.006,0.009-0.01,0.012-0.015c0.16-0.218,0.352-0.414,0.568-0.578c0.004-0.002,0.007-0.006,0.01-0.008
			c0.223-0.165,0.47-0.301,0.736-0.396c0.29-0.104,0.598-0.17,0.922-0.17c0.326,0,0.633,0.066,0.923,0.17
			c0.267,0.095,0.515,0.23,0.737,0.396c0.002,0.002,0.006,0.006,0.009,0.008c0.218,0.164,0.408,0.36,0.568,0.578
			c0.003,0.005,0.009,0.009,0.013,0.015c0.148,0.207,0.262,0.438,0.349,0.681c0.017,0.047,0.03,0.096,0.045,0.145
			c0.073,0.246,0.124,0.504,0.124,0.776C27.686,9.505,27.635,9.763,27.562,10.01z M17.539,16.635V2.778
			c0-1.525-1.24-2.768-2.767-2.768c-1.526,0-2.767,1.242-2.767,2.768v13.856c-1.114,0.844-1.845,2.166-1.845,3.67
			s0.73,2.826,1.845,3.668v2.789c0,1.525,1.241,2.766,2.767,2.766c1.526,0,2.767-1.24,2.767-2.766v-2.789
			c1.115-0.842,1.846-2.164,1.846-3.668S18.654,17.479,17.539,16.635z M13.85,2.778c0-0.51,0.413-0.922,0.922-0.922
			s0.922,0.412,0.922,0.922v13.005c-0.298-0.059-0.606-0.092-0.922-0.092s-0.624,0.033-0.922,0.092V2.778z M15.695,26.762
			c0,0.51-0.413,0.922-0.922,0.922s-0.922-0.412-0.922-0.922v-1.939c0.298,0.061,0.606,0.094,0.922,0.094s0.624-0.033,0.922-0.094
			V26.762z M17.415,21.078c-0.015,0.049-0.028,0.098-0.045,0.146c-0.087,0.244-0.2,0.475-0.349,0.68
			c-0.004,0.006-0.009,0.008-0.012,0.014c-0.161,0.221-0.352,0.414-0.569,0.578c-0.003,0.004-0.006,0.006-0.009,0.008
			c-0.223,0.168-0.47,0.303-0.737,0.396c-0.29,0.104-0.597,0.172-0.922,0.172S14.14,23.004,13.85,22.9
			c-0.267-0.094-0.514-0.229-0.737-0.396c-0.003-0.002-0.005-0.004-0.009-0.008c-0.217-0.164-0.408-0.357-0.568-0.578
			c-0.003-0.006-0.009-0.008-0.012-0.014c-0.149-0.205-0.261-0.436-0.349-0.68c-0.017-0.049-0.031-0.098-0.045-0.146
			c-0.074-0.246-0.124-0.504-0.124-0.773c0-0.273,0.05-0.529,0.124-0.777c0.015-0.049,0.028-0.098,0.045-0.145
			c0.087-0.242,0.2-0.473,0.349-0.68c0.003-0.006,0.009-0.01,0.012-0.016c0.161-0.217,0.352-0.414,0.568-0.578
			c0.004-0.002,0.006-0.004,0.009-0.006c0.223-0.166,0.47-0.301,0.737-0.396c0.29-0.104,0.597-0.17,0.922-0.17
			s0.632,0.066,0.922,0.17c0.267,0.096,0.514,0.23,0.737,0.396c0.003,0.002,0.006,0.004,0.009,0.006
			c0.218,0.164,0.408,0.361,0.569,0.578c0.003,0.006,0.008,0.01,0.012,0.016c0.148,0.207,0.262,0.438,0.349,0.68
			c0.017,0.047,0.03,0.096,0.045,0.145c0.074,0.248,0.124,0.504,0.124,0.777C17.539,20.574,17.489,20.832,17.415,21.078z"/>
	</g>
</g>
<g id="banknote" display="none">
	<g display="inline">
		<path fill="#333333" d="M28.99,9.775l-9.224-9.224c-0.458-0.458-1.12-0.642-1.749-0.486c-0.331,0.081-0.627,0.252-0.86,0.486
			c-0.209,0.209-0.368,0.469-0.458,0.759c-0.418,1.354-1.141,2.532-2.209,3.601c-1.428,1.427-3.287,2.508-5.255,3.65
			c-2.088,1.21-4.246,2.464-6.014,4.231c-1.502,1.504-2.526,3.177-3.125,5.119c-0.202,0.656-0.026,1.365,0.458,1.852l9.224,9.223
			c0.458,0.457,1.121,0.643,1.749,0.486c0.332-0.082,0.627-0.252,0.861-0.486c0.209-0.209,0.367-0.469,0.458-0.76
			c0.419-1.355,1.141-2.533,2.21-3.602c1.427-1.426,3.286-2.506,5.255-3.648c2.087-1.213,4.244-2.467,6.013-4.232
			c1.503-1.503,2.526-3.178,3.125-5.12C29.65,10.97,29.475,10.259,28.99,9.775z M11.083,27.682c-3.055-3.055-6.169-6.17-9.225-9.223
			c2.621-8.487,13.982-8.116,16.603-16.603c3.056,3.053,6.17,6.168,9.225,9.224C25.064,19.564,13.704,19.195,11.083,27.682z
			 M18.057,13.754c-0.301-0.252-0.604-0.423-0.908-0.508c-0.303-0.084-0.605-0.119-0.911-0.097c-0.303,0.023-0.612,0.091-0.922,0.21
			c-0.31,0.121-0.622,0.253-0.935,0.403c-0.495-0.568-0.991-1.13-1.486-1.653c0.224-0.202,0.44-0.305,0.649-0.312
			c0.209-0.009,0.411,0.013,0.602,0.062c0.194,0.048,0.373,0.09,0.537,0.122c0.166,0.032,0.31-0.004,0.436-0.11
			c0.133-0.115,0.208-0.265,0.218-0.444c0.009-0.183-0.06-0.358-0.211-0.531c-0.194-0.224-0.429-0.358-0.71-0.409
			c-0.277-0.049-0.562-0.045-0.857,0.02c-0.292,0.066-0.569,0.177-0.832,0.332c-0.263,0.154-0.474,0.313-0.631,0.468
			c-0.06-0.058-0.12-0.113-0.18-0.169c-0.066-0.062-0.149-0.094-0.249-0.092c-0.101,0-0.184,0.043-0.252,0.122
			c-0.067,0.077-0.098,0.168-0.085,0.263c0.009,0.1,0.049,0.175,0.117,0.232c0.061,0.051,0.12,0.102,0.18,0.153
			c-0.236,0.285-0.431,0.601-0.583,0.932c-0.155,0.333-0.247,0.663-0.281,0.983c-0.036,0.322-0.002,0.618,0.097,0.892
			c0.099,0.276,0.281,0.511,0.548,0.731c0.434,0.36,0.946,0.514,1.539,0.479c0.591-0.036,1.229-0.213,1.913-0.58
			c0.545,0.629,1.091,1.254,1.636,1.834c-0.23,0.193-0.433,0.307-0.611,0.342c-0.178,0.037-0.337,0.035-0.481-0.01
			s-0.277-0.109-0.4-0.191c-0.123-0.086-0.243-0.158-0.364-0.217c-0.119-0.059-0.242-0.092-0.368-0.094s-0.259,0.061-0.407,0.186
			c-0.151,0.131-0.227,0.285-0.227,0.457s0.08,0.346,0.234,0.523c0.157,0.176,0.36,0.324,0.607,0.441
			c0.247,0.117,0.524,0.191,0.831,0.211c0.307,0.021,0.629-0.025,0.97-0.152c0.342-0.123,0.681-0.35,1.014-0.684
			c0.162,0.156,0.324,0.307,0.484,0.449c0.068,0.061,0.152,0.09,0.253,0.082c0.097-0.004,0.182-0.049,0.249-0.131
			c0.068-0.082,0.097-0.174,0.086-0.27c-0.01-0.098-0.049-0.172-0.115-0.225c-0.162-0.131-0.324-0.268-0.486-0.41
			c0.275-0.34,0.497-0.697,0.661-1.049c0.163-0.356,0.261-0.698,0.294-1.015c0.031-0.318-0.006-0.606-0.11-0.868
			C18.504,14.2,18.32,13.972,18.057,13.754z M12.901,14.379c-0.261,0.011-0.489-0.075-0.688-0.268
			c-0.085-0.082-0.144-0.181-0.18-0.298c-0.038-0.117-0.051-0.245-0.036-0.386c0.013-0.139,0.054-0.282,0.126-0.428
			c0.068-0.146,0.169-0.292,0.299-0.432c0.467,0.464,0.934,0.974,1.401,1.501C13.47,14.264,13.162,14.369,12.901,14.379z
			 M17.252,16.227c-0.083,0.152-0.179,0.289-0.291,0.408c-0.516-0.521-1.033-1.095-1.549-1.684c0.132-0.06,0.271-0.12,0.42-0.184
			s0.299-0.104,0.449-0.13c0.152-0.023,0.304-0.016,0.455,0.02c0.149,0.038,0.292,0.119,0.424,0.247
			c0.129,0.13,0.213,0.265,0.244,0.411c0.037,0.147,0.038,0.297,0.014,0.45C17.391,15.918,17.336,16.072,17.252,16.227z
			 M13.589,20.469h-0.001c-0.577,0.443-1.14,0.91-1.66,1.432c-0.501,0.502-0.954,1.029-1.348,1.568l-0.63,0.861l0.002,0.002
			c-0.116,0.18-0.096,0.422,0.061,0.578c0.18,0.18,0.474,0.18,0.655,0c0.028-0.029,0.05-0.061,0.068-0.092l0.589-0.807
			c0.366-0.5,0.788-0.992,1.255-1.459c0.517-0.516,0.997-0.916,1.581-1.359l-0.002-0.002c0.016-0.012,0.033-0.023,0.047-0.037
			c0.181-0.182,0.181-0.475,0-0.654C14.038,20.33,13.77,20.322,13.589,20.469z M19.57,4.717c-0.182-0.182-0.476-0.182-0.658,0
			c-0.033,0.034-0.059,0.074-0.08,0.113l-0.613,0.84c-0.364,0.501-0.787,0.991-1.254,1.457c-0.481,0.483-1.005,0.917-1.546,1.332
			C15.38,8.48,15.342,8.504,15.31,8.538c-0.182,0.182-0.182,0.478,0,0.659c0.177,0.179,0.462,0.182,0.646,0.013l0.002,0.002
			c0.577-0.443,1.139-0.912,1.659-1.433c0.501-0.501,0.954-1.026,1.348-1.565l0.631-0.864l-0.002-0.002
			C19.75,5.164,19.744,4.89,19.57,4.717z"/>
	</g>
</g>
<g id="data" display="none">
	<g display="inline">
		<path fill="#333333" d="M14.773,0.011c-6.22,0-12.914,1.876-12.914,5.996v17.526c0,4.117,6.694,5.994,12.914,5.994
			c6.219,0,12.913-1.877,12.913-5.994V6.007C27.686,1.887,20.992,0.011,14.773,0.011z M25.842,23.533
			c0,2.291-4.955,4.15-11.069,4.15c-6.114,0-11.069-1.859-11.069-4.15v-3.447c1.906,1.965,6.504,2.986,11.069,2.986
			c4.565,0,9.163-1.021,11.069-2.986V23.533z M25.842,17.998h-0.004c0,0.01,0.004,0.02,0.004,0.029
			c0,2.277-4.957,4.121-11.069,4.121c-6.113,0-11.069-1.844-11.069-4.121c0-0.01,0.004-0.02,0.004-0.029H3.704v-3.446
			c1.906,1.963,6.504,2.985,11.069,2.985c4.565,0,9.163-1.021,11.069-2.985V17.998z M25.842,12.464h-0.004
			c0,0.009,0.004,0.02,0.004,0.028c0,2.278-4.957,4.123-11.069,4.123c-6.113,0-11.069-1.845-11.069-4.123
			c0-0.009,0.004-0.02,0.004-0.028H3.704V9.295c2.418,1.841,6.85,2.707,11.069,2.707c4.219,0,8.651-0.866,11.069-2.707V12.464z
			 M14.773,10.157c-6.114,0-11.069-1.859-11.069-4.15c0-2.293,4.955-4.15,11.069-4.15c6.114,0,11.069,1.857,11.069,4.15
			C25.842,8.298,20.887,10.157,14.773,10.157z M23.074,24.916c0.51,0,0.922-0.412,0.922-0.922s-0.412-0.922-0.922-0.922
			s-0.922,0.412-0.922,0.922S22.564,24.916,23.074,24.916z M23.074,19.381c0.51,0,0.922-0.412,0.922-0.922s-0.412-0.922-0.922-0.922
			s-0.922,0.412-0.922,0.922S22.564,19.381,23.074,19.381z M23.074,13.847c0.51,0,0.922-0.412,0.922-0.922
			c0-0.51-0.412-0.923-0.922-0.923s-0.922,0.413-0.922,0.923C22.152,13.435,22.564,13.847,23.074,13.847z"/>
	</g>
</g>
<g id="music" display="none">
	<g display="inline">
		<path fill="#333333" d="M28.871,0.443c-0.334-0.281-0.754-0.433-1.186-0.433c-0.105,0-0.213,0.01-0.32,0.029L11.683,2.808
			c-0.882,0.154-1.523,0.92-1.523,1.815v15.838c-0.936-0.68-2.149-1.08-3.499-1.08c-0.784,0-1.569,0.131-2.334,0.385
			c-1.75,0.584-3.153,1.754-3.851,3.213c-0.539,1.129-0.608,2.355-0.197,3.457c0.701,1.879,2.696,3.092,5.08,3.092
			c0.784,0,1.568-0.127,2.332-0.383c1.75-0.582,3.153-1.754,3.851-3.211c0.301-0.629,0.44-1.287,0.446-1.939h0.017V9.235
			c0.105,0,0.214-0.01,0.32-0.027l15.361-2.711v11.196c-0.936-0.68-2.148-1.078-3.5-1.078c-0.783,0-1.566,0.129-2.332,0.383
			c-1.75,0.584-3.154,1.756-3.85,3.215c-0.539,1.127-0.609,2.354-0.197,3.455c0.701,1.879,2.693,3.094,5.078,3.094
			c0.783,0,1.57-0.129,2.334-0.385c1.75-0.582,3.152-1.752,3.85-3.211c0.301-0.627,0.441-1.287,0.447-1.939h0.016V1.856
			C29.531,1.312,29.289,0.793,28.871,0.443z M7.106,27.395c-2.211,0.738-4.495,0.018-5.101-1.605
			c-0.607-1.623,0.692-3.535,2.902-4.271c2.211-0.738,4.495-0.02,5.101,1.604C10.615,24.744,9.316,26.658,7.106,27.395z
			 M27.65,4.623L11.967,7.391V4.623L27.65,1.856V4.623z M24.598,24.627c-2.209,0.738-4.494,0.018-5.1-1.604
			c-0.607-1.623,0.691-3.537,2.902-4.273c2.211-0.738,4.494-0.018,5.1,1.605C28.107,21.979,26.809,23.891,24.598,24.627z"/>
	</g>
</g>
<g id="megaphone" display="none">
	<g display="inline">
		<path fill="#333333" d="M23.074,0.011c-1.894,0-3.381,1.301-4.45,3.309l-0.02-0.012c-1.552,3.038-3.861,5.005-6.392,5.005H3.704
			c-2.069,0-3.689,2.027-3.689,4.612c0,2.587,1.62,4.612,3.689,4.612c1.017,0.004,1.84,0.826,1.84,1.844v8.303
			c0,1.02,0.826,1.844,1.845,1.844h3.689c1.019,0,1.845-0.824,1.845-1.844v-0.922c0-0.924-0.922-1.336-0.922-1.846v-6.457
			c0-0.021,0.014-0.035,0.016-0.057c0.01-0.133,0.045-0.254,0.104-0.365c0.017-0.029,0.034-0.053,0.055-0.08
			c0.073-0.109,0.166-0.201,0.28-0.27c0.005-0.004,0.007-0.01,0.012-0.014c0.004,0,0.007-0.004,0.011-0.004
			c0.073-0.041,0.162-0.051,0.244-0.074c2.329,0.248,4.437,2.127,5.883,4.957l0.024-0.012c1.068,2,2.554,3.297,4.445,3.297
			c4.238,0,6.456-6.496,6.456-12.913S27.312,0.011,23.074,0.011z M3.704,15.692c-1.02,0-1.846-1.237-1.846-2.767
			c0-1.528,0.826-2.768,1.846-2.768h6.469c-0.572,0.672-0.935,1.648-0.935,2.768c0,1.121,0.362,2.097,0.935,2.767H3.704z
			 M11.078,27.684H7.389v-8.303c0-0.672-0.18-1.299-0.495-1.844h0.644v0.012h2.774c-0.099,0.285-0.155,0.59-0.155,0.91v6.457
			c0,0.889,0.496,1.479,0.792,1.832c0.041,0.049,0.089,0.1,0.13,0.154V27.684z M12.213,15.703h-0.208v-0.011
			c-1.019,0-1.845-1.237-1.845-2.767c0-1.528,0.826-2.768,1.845-2.768h0.208c1.739,0,3.369-0.685,4.803-1.86
			c-0.264,1.484-0.398,3.057-0.398,4.628c0,1.577,0.135,3.155,0.399,4.642C15.584,16.387,13.953,15.703,12.213,15.703z
			 M18.613,15.692c-0.096-0.886-0.151-1.809-0.151-2.767c0-0.957,0.056-1.881,0.151-2.768h2.616c1.019,0,1.845,1.239,1.845,2.768
			c0,1.53-0.826,2.767-1.845,2.767H18.613z M23.074,23.994c-1.861,0-3.459-2.648-4.189-6.457h2.345c2.068,0,3.689-2.025,3.689-4.612
			c0-2.585-1.621-4.612-3.689-4.612h-2.345c0.73-3.807,2.328-6.456,4.189-6.456c2.547,0,4.611,4.956,4.611,11.068
			S25.621,23.994,23.074,23.994z"/>
	</g>
</g>
<g id="study" display="none">
	<path display="inline" fill="none" d="M29.531,7.39c0-1.298-0.883-2.406-2.145-2.697l-12.004-2.77
		c-0.201-0.045-0.407-0.067-0.61-0.067s-0.409,0.022-0.622,0.069L2.16,4.693C0.897,4.984,0.015,6.092,0.015,7.39
		c0,1.297,0.882,2.405,2.145,2.696l2.467,0.569v7.803c0,2.447,2.802,4.611,10.146,4.611c7.345,0,10.146-2.164,10.146-4.611v-7.803
		l2.466-0.569C28.648,9.795,29.531,8.687,29.531,7.39z M23.074,18.459c0,1.02-2.768,2.766-8.302,2.766s-8.301-1.746-8.301-2.766
		v-7.377l7.691,1.775c0.202,0.045,0.407,0.067,0.61,0.067s0.409-0.022,0.623-0.07l7.679-1.772V18.459z M14.98,11.056
		c-0.068,0.015-0.138,0.023-0.208,0.023s-0.139-0.009-0.208-0.023L2.574,8.289C2.156,8.192,1.859,7.82,1.859,7.39
		s0.296-0.803,0.714-0.899l11.991-2.767c0.068-0.016,0.138-0.023,0.208-0.023s0.139,0.008,0.208,0.023l11.991,2.767
		c0.419,0.097,0.715,0.47,0.715,0.899s-0.296,0.802-0.715,0.898L14.98,11.056z M26.764,12.001v8.301c0,0.51,0.413,0.922,0.922,0.922
		c0.51,0,0.923-0.412,0.923-0.922v-8.301c0-0.51-0.413-0.922-0.923-0.922C27.177,11.08,26.764,11.492,26.764,12.001z M27.686,22.148
		c-1.018,0-1.844,2.67-1.844,3.689c0,1.018,0.826,1.844,1.844,1.844c1.02,0,1.846-0.826,1.846-1.844
		C29.531,24.818,28.705,22.148,27.686,22.148z"/>
</g>
<g id="lab" display="none">
	<g display="inline">
		<path fill="#333333" d="M19.091,3.454c-0.436-0.437-1.015-0.676-1.63-0.676c-0.617,0-1.195,0.239-1.632,0.677l-1.302,1.302
			c-0.437,0.436-0.677,1.015-0.677,1.632c0,0.435,0.119,0.851,0.342,1.212L1.669,12.616c-0.837,0.369-1.438,1.125-1.607,2.02
			c-0.17,0.901,0.115,1.825,0.77,2.479l11.733,11.604c0.505,0.504,1.177,0.793,1.886,0.809c0.016,0,0.055,0,0.071,0
			c0.187,0,0.375-0.018,0.563-0.057c0.916-0.189,1.668-0.824,2.008-1.688l4.927-12.336c0.373,0.243,0.807,0.375,1.263,0.375
			c0.616,0,1.196-0.24,1.63-0.677l1.299-1.298c0.439-0.437,0.682-1.017,0.682-1.636c0-0.618-0.242-1.198-0.676-1.63L19.091,3.454z
			 M15.379,27.1c-0.114,0.289-0.366,0.502-0.669,0.564c-0.07,0.016-0.141,0.021-0.211,0.02c-0.234-0.006-0.46-0.1-0.629-0.27
			L2.129,15.803c-0.216-0.216-0.311-0.523-0.254-0.823c0.056-0.299,0.257-0.552,0.536-0.674l5.735-2.297
			c3.864,1.285,7.729,0.047,11.594,4.171L15.379,27.1z M24.912,12.537l-1.305,1.304c-0.18,0.181-0.471,0.181-0.651,0l-1.63-1.63
			l-1.322,3.311l0.111-0.279c-2.777-2.772-5.599-3.122-8.145-3.434c-0.818-0.101-1.611-0.205-2.391-0.374l7.833-3.138L15.83,6.716
			c-0.18-0.181-0.18-0.473,0-0.652l1.304-1.306c0.18-0.18,0.472-0.18,0.652,0l7.125,7.127
			C25.093,12.065,25.093,12.357,24.912,12.537z M15.233,19.381c1.271,0,2.306-1.033,2.306-2.305c0-1.272-1.034-2.306-2.306-2.306
			c-1.271,0-2.306,1.034-2.306,2.306C12.928,18.348,13.962,19.381,15.233,19.381z M15.233,15.692c0.765,0,1.384,0.621,1.384,1.384
			s-0.619,1.383-1.384,1.383c-0.764,0-1.383-0.619-1.383-1.383S14.469,15.692,15.233,15.692z M27.225,0.011
			c-1.271,0-2.307,1.034-2.307,2.307c0,1.271,1.035,2.306,2.307,2.306s2.307-1.034,2.307-2.306
			C29.531,1.045,28.496,0.011,27.225,0.011z M27.225,3.701c-0.764,0-1.384-0.62-1.384-1.384s0.62-1.384,1.384-1.384
			s1.384,0.62,1.384,1.384S27.988,3.701,27.225,3.701z M7.394,15.692c0,1.017,0.827,1.845,1.845,1.845
			c1.017,0,1.845-0.828,1.845-1.845c0-1.017-0.828-1.845-1.845-1.845C8.221,13.847,7.394,14.675,7.394,15.692z M9.238,14.77
			c0.509,0,0.922,0.412,0.922,0.922c0,0.509-0.413,0.923-0.922,0.923c-0.51,0-0.922-0.414-0.922-0.923
			C8.316,15.182,8.729,14.77,9.238,14.77z M12.005,22.148c0.509,0,0.922-0.412,0.922-0.922s-0.413-0.922-0.922-0.922
			s-0.922,0.412-0.922,0.922S11.496,22.148,12.005,22.148z M26.764,6.468c-0.51,0-0.923,0.413-0.923,0.923s0.413,0.922,0.923,0.922
			s0.922-0.412,0.922-0.922S27.273,6.468,26.764,6.468z"/>
	</g>
</g>
<g id="food" display="none">
	<g display="inline">
		<path fill="#333333" d="M27.225,19.373h-2.482c-0.041-0.223-0.093-0.438-0.147-0.652l4.426-2.219
			c0.456-0.229,0.641-0.783,0.412-1.24c-0.228-0.456-0.78-0.64-1.237-0.413l-4.222,2.116c-1.612-3.483-5.126-5.91-9.201-5.91
			c-4.964,0-9.099,3.593-9.971,8.318H2.32c-1.271,0-2.306,1.035-2.306,2.311c0,0.453,0.166,0.889,0.466,1.229l3.223,3.633v0.684
			c0,1.275,1.035,2.311,2.307,2.311h17.525c1.271,0,2.306-1.035,2.306-2.311v-0.684l3.224-3.633c0.3-0.34,0.466-0.775,0.466-1.229
			C29.53,20.408,28.496,19.373,27.225,19.373z M23.752,19.141c0.018,0.078,0.043,0.154,0.058,0.232h-0.519L23.752,19.141z
			 M14.772,11.979c3.716,0,6.917,2.219,8.377,5.398l-0.821,0.412c-1.305-2.879-4.194-4.886-7.556-4.886
			c-3.95,0-7.25,2.766-8.089,6.47H5.734C6.591,15.16,10.318,11.979,14.772,11.979z M14.772,16.6c-1.886,0-3.507,1.145-4.222,2.773
			h-0.99c0.762-2.15,2.807-3.697,5.211-3.697c2.274,0,4.231,1.382,5.081,3.351l-0.688,0.346h-0.173
			C18.279,17.744,16.658,16.6,14.772,16.6z M17.948,19.373h-1.129c-0.507-0.562-1.233-0.924-2.047-0.924
			c-0.815,0-1.541,0.361-2.047,0.924h-1.129c0.64-1.1,1.817-1.85,3.177-1.85C16.131,17.523,17.309,18.273,17.948,19.373z
			 M14.772,14.751c-2.919,0-5.389,1.952-6.185,4.622H7.636c0.823-3.184,3.706-5.545,7.137-5.545c2.995,0,5.573,1.801,6.729,4.375
			l-0.823,0.412C19.674,16.344,17.406,14.751,14.772,14.751z M23.996,25.842v1.387c0,0.256-0.206,0.463-0.461,0.463H6.01
			c-0.255,0-0.461-0.207-0.461-0.463v-1.387l-3.689-4.158c0-0.256,0.206-0.463,0.461-0.463h24.904c0.255,0,0.461,0.207,0.461,0.463
			L23.996,25.842z M7.372,10.788c0.003,0.005,0.004,0.011,0.007,0.016c0,0,0.001,0,0.001,0c0.078,0.149,0.23,0.251,0.409,0.251
			c0.255,0,0.463-0.209,0.463-0.465c0-0.04-0.006-0.078-0.016-0.115c0.001-0.007,0.001-0.012,0-0.019
			C7.891,9.642,8.219,8.747,8.623,7.784c0.437-1.041,0.905-2.196,0.389-3.371c-0.065-0.17-0.229-0.29-0.421-0.29
			c-0.25,0-0.452,0.203-0.452,0.453c0,0.055,0.011,0.107,0.029,0.156c0,0.002,0,0.003,0.001,0.005l0.003,0.009
			c0.002,0.003,0.003,0.007,0.004,0.011c0.373,0.84,0.012,1.701-0.394,2.673c-0.43,1.025-0.906,2.162-0.426,3.319
			C7.36,10.763,7.365,10.775,7.372,10.788z M18.605,10.653c0.002,0.006,0.004,0.012,0.007,0.017h0.001
			c0.078,0.147,0.23,0.25,0.409,0.25c0.256,0,0.464-0.209,0.464-0.464c0-0.04-0.008-0.08-0.016-0.116
			c0.001-0.007,0.001-0.012-0.001-0.019c-0.345-0.814-0.018-1.709,0.386-2.672c0.438-1.041,0.905-2.195,0.391-3.371
			c-0.066-0.17-0.23-0.289-0.422-0.289c-0.25,0-0.451,0.202-0.451,0.453c0,0.055,0.01,0.106,0.028,0.155
			c0.001,0.002,0.001,0.004,0.001,0.006c0.002,0.003,0.002,0.005,0.004,0.008c0.002,0.004,0.003,0.007,0.004,0.011
			c0.372,0.841,0.012,1.702-0.395,2.674c-0.43,1.024-0.906,2.161-0.426,3.319C18.594,10.629,18.599,10.642,18.605,10.653z
			 M13.867,6.665c0.002,0.006,0.004,0.011,0.007,0.017c0,0,0,0,0.001,0c0.078,0.148,0.23,0.25,0.41,0.25
			c0.255,0,0.463-0.208,0.463-0.465c0-0.039-0.006-0.078-0.016-0.115c0.002-0.006,0.002-0.012,0-0.018
			c-0.346-0.815-0.018-1.71,0.386-2.673c0.436-1.04,0.904-2.196,0.389-3.371C15.441,0.12,15.278,0,15.086,0
			c-0.249,0-0.452,0.203-0.452,0.453c0,0.056,0.012,0.107,0.029,0.156c0.001,0.002,0.001,0.004,0.002,0.005
			c0.001,0.003,0.001,0.006,0.003,0.009s0.002,0.007,0.004,0.011c0.372,0.84,0.012,1.701-0.395,2.673
			c-0.43,1.025-0.906,2.162-0.427,3.319C13.856,6.64,13.861,6.652,13.867,6.665z"/>
	</g>
</g>
<g id="t-shirt" display="none">
	<g display="inline">
		<path fill="#333333" d="M28.84,5.95L24.227,2.26c-0.328-0.263-0.734-0.404-1.152-0.404H6.471c-0.419,0-0.825,0.142-1.153,0.404
			L0.707,5.95C0.103,6.432-0.135,7.241,0.109,7.973l1.845,5.534c0.183,0.546,0.608,0.976,1.152,1.161
			c0.194,0.067,0.396,0.101,0.598,0.101c0.321,0,0.64-0.084,0.923-0.247v11.316c0,1.018,0.826,1.844,1.845,1.844h16.603
			c1.02,0,1.844-0.826,1.844-1.844V14.522c0.283,0.163,0.604,0.247,0.924,0.247c0.201,0,0.402-0.033,0.598-0.101
			c0.545-0.186,0.971-0.615,1.152-1.161l1.844-5.534C29.68,7.241,29.443,6.432,28.84,5.95z M18.234,3.701
			c-0.508,1.07-1.859,1.845-3.461,1.845c-1.602,0-2.954-0.774-3.463-1.845H18.234z M25.842,12.924l-2.768-1.845v14.758H6.471V11.08
			l-2.768,1.845L1.859,7.39l4.612-3.689h3.853c0.515,1.588,2.303,2.767,4.449,2.767c2.147,0,3.934-1.179,4.448-2.767h3.854
			l4.611,3.689L25.842,12.924z"/>
	</g>
</g>
<g id="fire" display="none">
	<g display="inline">
		<path fill="#333333" d="M20.303,8.312c-0.058,2.468-1.909,4.551-1.909,4.551c0-4.589-3.625-8.24-3.625-8.24
			s-0.049,2.732-1.884,5.486C11.049,3.684,5.54,0.011,5.54,0.011c2.754,10.099-0.917,13.772-0.917,21.116
			c0,4.309,3.646,8.4,9.224,8.4c8.262,0,9.859-3.031,10.714-6.449C25.736,18.373,23.975,12.902,20.303,8.312z M22.771,22.631
			c-0.593,2.367-1.263,5.053-8.925,5.053c-4.619,0-7.379-3.334-7.379-6.557c0-2.469,0.45-4.496,0.926-6.641
			c0.605-2.72,1.225-5.504,0.956-9.188c2.845,3.938,3.857,9.155,3.857,9.155s2.648-3.718,3.36-5.446
			c0.545,1.111,1.046,4.84,1.046,8.53c0,0,2.45-2.018,4.288-5.053C22.836,15.955,23.533,19.582,22.771,22.631z M20.701,15.503
			l-0.783,0.909c-0.972,1.133-1.89,2.205-4.344,3.441c-0.352-1.053-0.67-2.213-0.67-3.989v-1.576l-1.4,2.194
			c-0.472,0.748-0.862,1.367-1.446,2.191c-0.885-1.994-1.51-3.469-1.985-4.807l-0.441-1.246l-0.479,1.393
			c-0.608,1.771-1.186,3.445-1.186,7.789c0,0.256,0.206,0.461,0.462,0.461c0.254,0,0.461-0.205,0.461-0.461
			c0-3.328,0.331-4.977,0.774-6.403c0.479,1.219,1.085,2.606,1.879,4.381l0.324,0.725l0.469-0.639
			c0.766-1.043,1.222-1.744,1.721-2.531c0.146,1.365,0.482,2.344,0.815,3.311l0.168,0.488l0.467-0.221
			c2.493-1.186,3.66-2.264,4.587-3.297c0.144,1.719-0.083,3.6-0.622,4.936c-0.096,0.236,0.02,0.506,0.256,0.6
			c0.056,0.023,0.115,0.035,0.173,0.035c0.182,0,0.355-0.109,0.427-0.289c0.716-1.775,0.93-4.303,0.546-6.441L20.701,15.503z"/>
	</g>
</g>
<g id="world" display="none">
	<g display="inline">
		<path fill="#222821" d="M14.772,0.472c-7.896,0-14.297,6.401-14.297,14.298c0,7.896,6.4,14.296,14.297,14.296
			s14.297-6.4,14.297-14.296C29.069,6.873,22.669,0.472,14.772,0.472z M12.728,2.5c-1.43,1.428-2.606,3.187-3.447,5.177
			C8.142,7.202,7.085,6.574,6.12,5.833C7.897,4.112,10.183,2.923,12.728,2.5z M5.487,6.5c1.051,0.816,2.201,1.507,3.445,2.026
			c-0.645,1.786-1.008,3.738-1.059,5.782h-5.53C2.454,11.314,3.621,8.595,5.487,6.5z M2.344,15.231h5.53
			c0.059,2.357,0.55,4.582,1.387,6.583c-1.168,0.455-2.258,1.062-3.264,1.779C3.831,21.439,2.465,18.492,2.344,15.231z M6.69,24.225
			c0.909-0.631,1.892-1.164,2.94-1.568c0.805,1.668,1.857,3.148,3.097,4.383C10.447,26.66,8.375,25.666,6.69,24.225z M14.312,27.199
			c-0.017-0.002-0.032-0.002-0.049-0.004c-1.533-1.275-2.818-2.934-3.76-4.859c1.207-0.377,2.487-0.582,3.809-0.625V27.199z
			 M14.312,20.789c-1.455,0.043-2.861,0.281-4.187,0.709c-0.8-1.902-1.271-4.021-1.328-6.267h5.515V20.789z M14.312,14.308H8.797
			c0.05-1.931,0.392-3.777,1-5.464c1.422,0.494,2.938,0.781,4.515,0.829V14.308z M14.312,8.75c-1.455-0.047-2.853-0.307-4.167-0.757
			c0.96-2.263,2.38-4.202,4.119-5.65c0.017-0.001,0.031-0.002,0.048-0.003V8.75z M27.201,14.308h-5.53
			c-0.051-2.043-0.414-3.996-1.059-5.782c1.244-0.52,2.396-1.21,3.445-2.026C25.924,8.595,27.092,11.314,27.201,14.308z
			 M23.426,5.833c-0.966,0.741-2.021,1.369-3.161,1.844c-0.841-1.99-2.018-3.749-3.447-5.177
			C19.363,2.923,21.648,4.112,23.426,5.833z M15.233,2.34c0.017,0.001,0.032,0.002,0.048,0.003c1.739,1.448,3.159,3.388,4.119,5.65
			c-1.313,0.45-2.712,0.71-4.167,0.757V2.34z M15.233,9.673c1.577-0.048,3.093-0.335,4.515-0.829c0.608,1.688,0.95,3.533,1,5.464
			h-5.515V9.673z M15.233,15.231h5.515c-0.058,2.246-0.528,4.365-1.327,6.267c-1.326-0.428-2.732-0.666-4.188-0.709V15.231z
			 M15.282,27.195c-0.016,0.002-0.032,0.002-0.049,0.004v-5.488c1.322,0.043,2.602,0.248,3.809,0.625
			C18.101,24.262,16.815,25.92,15.282,27.195z M16.817,27.039c1.239-1.234,2.292-2.715,3.097-4.383
			c1.05,0.404,2.031,0.938,2.94,1.568C21.17,25.666,19.098,26.66,16.817,27.039z M23.548,23.594
			c-1.005-0.717-2.096-1.324-3.264-1.779c0.837-2.002,1.329-4.227,1.387-6.583h5.53C27.081,18.492,25.714,21.439,23.548,23.594z"/>
	</g>
</g>
<g id="truck" display="none">
	<g display="inline">
		<path fill="#222821" d="M22.919,10.568c-0.171-0.257-0.459-0.41-0.768-0.41h-0.922c-0.51,0-0.923,0.412-0.923,0.922v5.534
			c0,0.51,0.413,0.924,0.923,0.924h3.689c0.51,0,0.922-0.414,0.922-0.924v-1.382c0-0.183-0.054-0.36-0.154-0.512L22.919,10.568z
			 M24.919,16.613h-3.689V11.08h0.922l2.768,4.151V16.613z M29.065,14.157l-3.689-5.534C24.861,7.85,24,7.39,23.074,7.39h-3.689
			V5.545c0-1.525-1.241-2.768-2.768-2.768H2.781c-1.525,0-2.767,1.242-2.767,2.768v10.146c0,1.525,1.241,2.767,2.767,2.767v2.768
			c0,1.525,1.241,2.766,2.768,2.766h1.053c0.412,1.588,1.844,2.768,3.559,2.768c1.714,0,3.146-1.18,3.559-2.768h4.873
			c0.412,1.588,1.845,2.768,3.56,2.768c1.713,0,3.146-1.18,3.559-2.768h1.054c1.525,0,2.767-1.24,2.767-2.766v-5.535
			C29.53,15.144,29.37,14.613,29.065,14.157z M2.781,16.613c-0.51,0-0.922-0.412-0.922-0.921V5.545c0-0.51,0.412-0.923,0.922-0.923
			h13.836c0.51,0,0.923,0.413,0.923,0.923v10.146c0,0.509-0.413,0.921-0.923,0.921H2.781z M10.16,24.916
			c-1.02,0-1.845-0.826-1.845-1.846c0-1.018,0.825-1.844,1.845-1.844c1.019,0,1.845,0.826,1.845,1.844
			C12.005,24.09,11.179,24.916,10.16,24.916z M22.151,24.916c-1.02,0-1.845-0.826-1.845-1.846c0-1.018,0.825-1.844,1.845-1.844
			c1.018,0,1.845,0.826,1.845,1.844C23.996,24.09,23.169,24.916,22.151,24.916z M27.686,21.227c0,0.51-0.412,0.922-0.922,0.922
			H25.71c-0.413-1.588-1.846-2.768-3.559-2.768c-1.715,0-3.147,1.18-3.56,2.768h-4.873c-0.413-1.588-1.845-2.768-3.559-2.768
			c-1.715,0-3.146,1.18-3.559,2.768H5.549c-0.51,0-0.923-0.412-0.923-0.922v-2.768h11.991c1.526,0,2.768-1.242,2.768-2.767V9.235
			h3.689c0.308,0,0.596,0.154,0.768,0.411l3.689,5.534c0.101,0.151,0.154,0.329,0.154,0.512V21.227z"/>
	</g>
</g>
<g id="vinyl" display="none">
	<g display="inline">
		<path fill="#222821" d="M20.258,1.069C12.692-1.961,4.102,1.715,1.072,9.283c-3.03,7.567,0.647,16.157,8.214,19.188
			c7.568,3.029,16.158-0.648,19.187-8.215C31.504,12.688,27.824,4.098,20.258,1.069z M26.762,19.568
			c-2.648,6.611-10.18,9.834-16.79,7.188C3.362,24.109,0.138,16.58,2.784,9.968c2.648-6.61,10.179-9.835,16.789-7.187
			C26.184,5.428,29.408,12.958,26.762,19.568z M15.459,13.056c-0.946-0.379-2.021,0.082-2.4,1.026
			c-0.378,0.946,0.081,2.019,1.027,2.4c0.945,0.379,2.021-0.082,2.398-1.028C16.863,14.51,16.404,13.436,15.459,13.056z
			 M15.628,15.113c-0.189,0.471-0.728,0.701-1.2,0.513c-0.472-0.189-0.7-0.727-0.513-1.2c0.19-0.472,0.728-0.701,1.2-0.514
			C15.587,14.101,15.818,14.639,15.628,15.113z M19.91,16.826c1.137-2.837-0.242-6.058-3.08-7.194
			c-2.837-1.138-6.059,0.242-7.196,3.08c-1.137,2.837,0.243,6.057,3.081,7.194C15.552,21.043,18.773,19.664,19.91,16.826z
			 M18.199,16.141c-0.758,1.889-2.91,2.811-4.797,2.053c-1.89-0.756-2.811-2.908-2.055-4.796s2.908-2.809,4.797-2.054
			C18.033,12.1,18.953,14.252,18.199,16.141z M21.623,17.512c0.094-0.236-0.021-0.504-0.256-0.6
			c-0.238-0.094-0.506,0.021-0.602,0.256c-0.664,1.656-1.934,2.887-3.453,3.537c-0.232,0.1-0.342,0.371-0.242,0.604
			c0.102,0.236,0.373,0.344,0.605,0.244c0.008-0.004,0.012-0.01,0.02-0.014C19.424,20.791,20.869,19.393,21.623,17.512z
			 M18.766,24.096c-0.234,0.102-0.344,0.373-0.242,0.605c0.1,0.234,0.371,0.344,0.605,0.244c0.01-0.006,0.02-0.016,0.029-0.023
			c2.592-1.117,4.76-3.217,5.889-6.039c0.096-0.236-0.02-0.506-0.256-0.6s-0.506,0.021-0.6,0.258
			C23.15,21.141,21.152,23.074,18.766,24.096z M23.334,18.199c0.096-0.238-0.02-0.506-0.256-0.602
			c-0.236-0.094-0.504,0.02-0.6,0.258c-0.852,2.127-2.486,3.709-4.439,4.545l0,0c-0.234,0.102-0.342,0.373-0.242,0.605
			c0.1,0.234,0.371,0.344,0.605,0.244c0.01-0.006,0.016-0.014,0.025-0.02C20.586,22.299,22.393,20.549,23.334,18.199z M12.233,8.833
			c0.232-0.101,0.342-0.371,0.242-0.605c-0.103-0.236-0.372-0.343-0.606-0.241C11.861,7.989,11.856,7.996,11.849,8
			c-1.729,0.745-3.173,2.147-3.926,4.027H7.921c-0.094,0.236,0.021,0.503,0.258,0.599c0.236,0.094,0.504-0.021,0.6-0.257
			C9.442,10.714,10.713,9.483,12.233,8.833z M10.781,5.441c0.233-0.101,0.342-0.37,0.241-0.604
			c-0.101-0.235-0.371-0.342-0.605-0.242c-0.011,0.004-0.02,0.015-0.028,0.02c-2.593,1.119-4.76,3.22-5.89,6.039
			c-0.096,0.237,0.02,0.506,0.256,0.602c0.237,0.094,0.504-0.02,0.6-0.258C6.396,8.395,8.392,6.464,10.781,5.441z M11.506,7.138
			V7.136c0.232-0.1,0.343-0.369,0.241-0.605c-0.101-0.232-0.371-0.342-0.605-0.241c-0.009,0.004-0.014,0.013-0.023,0.017
			C8.959,7.239,7.152,8.99,6.21,11.341c-0.095,0.235,0.021,0.504,0.257,0.6c0.236,0.094,0.505-0.02,0.601-0.258
			C7.917,9.555,9.553,7.974,11.506,7.138z"/>
	</g>
</g>
<g id="wallet" display="none">
	<g display="inline">
		<path fill="#333333" d="M16.617,16.152c-1.019,0-1.845,0.826-1.845,1.846s0.826,1.844,1.845,1.844
			c1.019,0,1.845-0.824,1.845-1.844S17.636,16.152,16.617,16.152z M26.765,11.541L26.765,11.541l-0.001-8.302
			c0-1.528-1.239-2.768-2.768-2.768H5.087c-2.797,0-5.073,2.276-5.073,5.073v18.449c0,2.797,2.276,5.072,5.073,5.072h16.602
			c2.798,0,5.074-2.275,5.074-5.072v-1.385h0.001C30.453,19.842,30.453,14.309,26.765,11.541z M5.087,2.316h18.909
			c0.508,0,0.922,0.414,0.922,0.923v5.704c-0.289-0.104-0.597-0.17-0.922-0.17l0,0V4.161c0-0.51-0.414-0.922-0.923-0.922H3.703
			c-0.509,0-0.922,0.412-0.922,0.922v3.638C2.212,7.217,1.859,6.424,1.859,5.545C1.859,3.763,3.304,2.316,5.087,2.316z M3.703,6.929
			V6.007h19.37v0.922H3.703z M23.073,7.852v0.922H5.087c-0.498,0-0.963-0.121-1.384-0.322v-0.6H23.073z M3.703,5.084V4.161h19.37
			v0.923H3.703z M24.918,23.994c0,1.781-1.445,3.229-3.229,3.229H5.087c-1.783,0-3.229-1.447-3.229-3.229V9.455
			c0.878,0.727,2.003,1.163,3.229,1.163h18.909c0.508,0,0.922,0.414,0.922,0.923v1.845h-8.301c-2.547,0-4.612,2.064-4.612,4.612
			c0,2.547,2.065,4.611,4.612,4.611h8.301V23.994z M26.097,20.766h-9.479c-1.525,0-2.767-1.242-2.767-2.768s1.242-2.767,2.767-2.767
			h8.301c0.57-0.008,1.135-0.283,1.479-0.741c0.096-0.129,0.17-0.274,0.23-0.426c0.008-0.021,0.023-0.036,0.031-0.057
			c0.662,0.869,1.027,1.936,1.027,3.069C27.686,18.494,27.113,19.811,26.097,20.766z"/>
	</g>
</g>
<g id="calendar" display="none">
	<g display="inline">
		<path fill="#333333" d="M27.071,2.777h-3.997V0.933c0-0.51-0.413-0.922-0.923-0.922c-0.509,0-0.923,0.412-0.923,0.922v1.845
			h-5.534V0.933c0-0.51-0.413-0.922-0.922-0.922S13.85,0.423,13.85,0.933v1.845H8.316V0.933c0-0.51-0.413-0.922-0.922-0.922
			c-0.51,0-0.922,0.412-0.922,0.922v1.845H2.474c-1.358,0-2.459,1.102-2.459,2.46v21.831c0,1.357,1.101,2.459,2.459,2.459h24.598
			c1.358,0,2.46-1.102,2.46-2.459V5.237C29.531,3.879,28.43,2.777,27.071,2.777z M27.686,27.068c0,0.338-0.275,0.615-0.614,0.615
			H2.474c-0.339,0-0.615-0.277-0.615-0.615V5.237c0-0.339,0.276-0.615,0.615-0.615h3.998v1.846c0,0.51,0.413,0.922,0.922,0.922
			c0.509,0,0.922-0.412,0.922-0.922V4.622h5.534v1.846c0,0.51,0.413,0.922,0.922,0.922s0.922-0.412,0.922-0.922V4.622h5.534v1.846
			c0,0.51,0.414,0.922,0.923,0.922c0.51,0,0.923-0.412,0.923-0.922V4.622h3.997c0.339,0,0.614,0.276,0.614,0.615V27.068z
			 M6.471,13.847h3.689v-2.768H6.471V13.847z M6.471,18.459h3.689v-2.767H6.471V18.459z M6.471,23.07h3.689v-2.768H6.471V23.07z
			 M12.928,23.07h3.689v-2.768h-3.689V23.07z M12.928,18.459h3.689v-2.767h-3.689V18.459z M12.928,13.847h3.689v-2.768h-3.689
			V13.847z M19.385,23.07h3.689v-2.768h-3.689V23.07z M19.385,18.459h3.689v-2.767h-3.689V18.459z M19.385,13.847h3.689v-2.768
			h-3.689V13.847z"/>
	</g>
</g>
<g id="shop" display="none">
	<g display="inline">
		<path fill="#333333" d="M28.977,10.342l-2.766-3.688c-0.107-0.145-0.236-0.27-0.37-0.39V1.855c0-1.019-0.826-1.845-1.845-1.845
			H5.548c-1.019,0-1.845,0.826-1.845,1.845v4.409c-0.132,0.119-0.26,0.243-0.369,0.388l-2.766,3.688
			c-0.358,0.476-0.555,1.065-0.555,1.661v0.922c0,1.527,1.241,2.768,2.767,2.768h0v11.992c0,1.018,0.826,1.844,1.845,1.844h20.292
			c1.02,0,1.846-0.826,1.846-1.844V15.692l0,0c1.525,0,2.768-1.241,2.768-2.768v-0.922C29.531,11.406,29.334,10.816,28.977,10.342z
			 M5.548,1.855h18.448v3.689H5.548V1.855z M18.283,7.39h2.02l3.689,6.458h-3.865L18.283,7.39z M19.168,13.847h-3.935V7.39h2.09
			L19.168,13.847z M12.221,7.39h2.09v6.458h-3.935L12.221,7.39z M9.417,13.847H5.552L9.242,7.39h2.02L9.417,13.847z M4.49,13.847
			H2.782c-0.51,0-0.922-0.413-0.922-0.923v-0.922c0-0.2,0.065-0.394,0.185-0.554l2.767-3.689C4.985,7.526,5.258,7.39,5.549,7.39
			h2.63L4.49,13.847z M18.462,27.684h-6.918v-9.225h6.918V27.684z M24.918,27.684h-5.533v-9.225c0-0.51-0.414-0.922-0.923-0.922
			h-6.918c-0.509,0-0.922,0.412-0.922,0.922v9.225H4.626V15.692h20.292V27.684z M27.686,12.924c0,0.51-0.412,0.923-0.922,0.923
			h-1.709L21.365,7.39h2.631c0.291,0,0.564,0.137,0.738,0.369l2.768,3.689c0.119,0.16,0.184,0.354,0.184,0.554V12.924z"/>
	</g>
</g>
<g id="clip" display="none">
	<g display="inline">
		<path fill="#333333" d="M27.099,3.839c-3.241-3.239-8.498-3.239-11.739,0L1.902,17.121c-2.517,2.516-2.517,6.607,0,9.123
			c2.517,2.514,6.613,2.514,9.13,0L24.489,12.96c1.802-1.8,1.802-4.716,0-6.516c-1.801-1.799-4.722-1.799-6.521,0L7.851,16.549
			c-0.36,0.361-0.36,0.943,0,1.305c0.36,0.359,0.944,0.359,1.305,0L19.272,7.747c1.079-1.076,2.834-1.076,3.913,0
			c1.079,1.078,1.079,2.832,0,3.91L9.728,24.939c-1.801,1.801-4.72,1.801-6.521,0c-1.801-1.799-1.801-4.715,0-6.514L16.532,5.271
			c2.522-2.52,6.611-2.52,9.131,0c2.523,2.521,2.523,6.602,0.001,9.121l-9.985,9.977c-0.362,0.359-0.362,0.941,0,1.301
			c0.36,0.361,0.943,0.361,1.304,0l10.116-10.105C30.341,12.327,30.341,7.077,27.099,3.839z"/>
	</g>
</g>
</svg>
