<?xml version="1.0" encoding="utf-8"?>
<!-- Generator: Adobe Illustrator 16.0.0, SVG Export Plug-In . SVG Version: 6.00 Build 0)  -->
<!DOCTYPE svg PUBLIC "-//W3C//DTD SVG 1.1//EN" "http://www.w3.org/Graphics/SVG/1.1/DTD/svg11.dtd">
<svg version="1.1" id="Layer_1" xmlns="http://www.w3.org/2000/svg" xmlns:xlink="http://www.w3.org/1999/xlink" x="0px" y="0px"
	 width="70px" height="70px" viewBox="0 0 70 70" enable-background="new 0 0 70 70" xml:space="preserve">
<g id="heart" display="none">
	<g display="inline">
		<path fill="#333333" d="M63.761,10.453c-7.923-7.841-20.584-8.005-28.795-0.626c-8.209-7.379-20.871-7.215-28.8,0.626
			c-8.167,8.078-8.167,21.171,0,29.252c2.335,2.311,24.132,23.866,24.132,23.866c2.58,2.553,6.758,2.553,9.338,0
			c0,0,23.861-23.603,24.125-23.866C71.929,31.625,71.929,18.531,63.761,10.453z M60.649,36.626L36.519,60.489
			c-0.854,0.85-2.255,0.85-3.11,0L9.28,36.626c-6.439-6.366-6.439-16.729,0-23.094c6.21-6.14,16.191-6.355,22.726-0.484l2.96,2.66
			l2.959-2.66c6.536-5.871,16.517-5.656,22.725,0.484C67.089,19.897,67.089,30.26,60.649,36.626z M20.234,15.332
			c-0.005,0-0.005,0.002-0.01,0.002c-5.117,0.003-9.27,4.15-9.27,9.265c0,0.604,0.488,1.09,1.092,1.09
			c0.604,0,1.091-0.486,1.091-1.09v-0.002c0-3.912,3.176-7.084,7.091-7.084h0.005c0.603,0,1.091-0.489,1.091-1.092
			C21.325,15.819,20.836,15.332,20.234,15.332z"/>
	</g>
</g>
<g id="cloud" display="none">
	<g display="inline">
		<path fill="#333333" d="M56.574,26.75c-0.957-9.96-9.25-17.776-19.461-17.776c-7.901,0-14.668,4.69-17.787,11.418
			c-0.936-0.298-1.916-0.503-2.951-0.503c-5.427,0-9.824,4.401-9.824,9.824c0,1.082,0.215,2.099,0.536,3.069
			C2.869,35.237,0,39.759,0,44.991c0,7.841,6.354,14.191,14.191,14.191v0.006h39.295v-0.006c9.042,0,16.369-7.326,16.369-16.373
			C69.855,34.826,64.138,28.197,56.574,26.75z M53.486,54.82H14.191c-5.417,0-9.825-4.411-9.825-9.829
			c0-3.49,1.841-6.647,4.921-8.44c2.992-1.72,3.198-2.062,1.943-5.146c-0.211-0.638-0.313-1.19-0.313-1.691
			c0-3.01,2.447-5.458,5.458-5.458c0,0,1.433-0.102,2.951,0.502c2.506,0.998,2.778,0.043,3.962-2.53
			c2.504-5.398,7.93-8.888,13.825-8.888c7.858,0,14.357,5.944,15.111,13.828c0.273,3.128,0.273,3.128,3.532,3.872
			c5.639,1.077,9.735,6.028,9.735,11.769C65.492,49.435,60.106,54.82,53.486,54.82z"/>
	</g>
</g>
<g id="star" display="none">
	<g display="inline">
		<path fill="#333333" d="M69.633,26.347c-0.602-1.744-2.155-3.021-4.022-3.298l-18.177-2.703L39.528,3.942
			c-0.827-1.723-2.607-2.824-4.564-2.824c-1.956,0-3.736,1.101-4.568,2.824l-7.902,16.404L4.316,23.049
			c-1.869,0.277-3.419,1.555-4.02,3.298c-0.603,1.748-0.148,3.673,1.172,4.99l13.32,13.299l-3.089,18.449
			c-0.313,1.858,0.491,3.722,2.072,4.808c0.867,0.597,1.886,0.901,2.903,0.901c0.837,0,1.678-0.207,2.441-0.615l15.849-8.528
			l15.849,8.528c0.763,0.408,1.601,0.615,2.437,0.615c1.021,0,2.039-0.305,2.907-0.901c1.582-1.086,2.381-2.949,2.071-4.808
			l-3.093-18.449l13.327-13.299C69.78,30.02,70.233,28.095,69.633,26.347z M51.529,41.207c-1.119,1.114-1.627,2.682-1.368,4.22
			l3.088,18.454l-15.847-8.533c-0.763-0.406-1.599-0.61-2.438-0.61s-1.681,0.204-2.441,0.61l-15.849,8.533l3.093-18.454
			c0.256-1.538-0.25-3.105-1.366-4.22L5.079,27.908L23.257,25.2c1.659-0.248,3.092-1.285,3.804-2.767l7.903-16.401l7.902,16.401
			c0.712,1.481,2.141,2.519,3.805,2.767l18.177,2.708L51.529,41.207z"/>
	</g>
</g>
<g id="tv" display="none">
	<g display="inline">
		<path fill="#333333" d="M48.437,17.762c-5.917-1.216-11.922-1.832-17.844-1.832s-11.926,0.616-17.841,1.832
			c-0.768,0.157-1.394,0.711-1.639,1.456c-3.153,9.563-3.153,19.258,0,28.821c0.245,0.745,0.872,1.299,1.639,1.457
			c5.915,1.215,11.919,1.835,17.841,1.835s11.927-0.62,17.844-1.835c0.763-0.158,1.392-0.712,1.637-1.457
			c3.152-9.563,3.152-19.258,0-28.821C49.828,18.473,49.199,17.919,48.437,17.762z M47.998,47.36c-11.602,2.38-23.209,2.38-34.807,0
			c-3.019-9.158-3.019-18.307,0-27.46c11.598-2.381,23.206-2.381,34.807,0C51.012,29.054,51.012,38.202,47.998,47.36z
			 M67.408,12.732c-0.425-1.778-1.908-3.104-3.726-3.324c-9.527-1.155-19.189-1.741-28.719-1.741S15.771,8.253,6.243,9.408
			c-1.815,0.22-3.301,1.545-3.726,3.324c-3.34,14.022-3.34,28.244,0,42.264c0.425,1.775,1.911,3.103,3.726,3.324
			c4.588,0.555,9.21,0.966,13.833,1.253c-0.25,0.162-0.409,0.324-0.409,0.49c0,1.206,6.849,2.181,15.297,2.181
			c8.448,0,15.294-0.975,15.294-2.181c0-0.166-0.157-0.328-0.406-0.49c4.622-0.287,9.241-0.698,13.831-1.253
			c1.817-0.222,3.301-1.549,3.726-3.324C70.751,40.976,70.751,26.754,67.408,12.732z M63.16,53.984
			c-18.796,2.279-37.594,2.279-56.393,0c-3.194-13.415-3.194-26.826,0-40.242c18.798-2.279,37.597-2.279,56.393,0
			C66.354,27.159,66.354,40.569,63.16,53.984z M57.909,25.131c1.812,0,3.277-1.466,3.277-3.274c0-1.809-1.466-3.275-3.277-3.275
			c-1.812,0-3.278,1.466-3.278,3.275C54.631,23.665,56.097,25.131,57.909,25.131z M57.909,20.765c0.601,0,1.091,0.49,1.091,1.092
			c0,0.601-0.49,1.091-1.091,1.091c-0.602,0-1.096-0.49-1.096-1.091C56.813,21.255,57.308,20.765,57.909,20.765z M60.096,46.962
			h-6.56c-0.601,0-1.092,0.49-1.092,1.091c0,0.606,0.491,1.092,1.092,1.092h6.56c0.601,0,1.091-0.485,1.091-1.092
			C61.187,47.452,60.696,46.962,60.096,46.962z M62.277,40.411h-6.555c-0.606,0-1.092,0.491-1.092,1.092
			c0,0.605,0.485,1.095,1.092,1.095h6.555c0.605,0,1.096-0.489,1.096-1.095C63.373,40.902,62.883,40.411,62.277,40.411z
			 M62.277,33.862h-6.555c-0.606,0-1.092,0.49-1.092,1.095c0,0.601,0.485,1.092,1.092,1.092h6.555c0.605,0,1.096-0.491,1.096-1.092
			C63.373,34.352,62.883,33.862,62.277,33.862z M29.502,24.705L19.48,25.49c-0.601,0.068-1.167,0.61-1.269,1.202l-0.668,6.084
			c-0.03,0.596,0.435,1.086,1.033,1.086c0.599,0,1.11-0.491,1.133-1.092l0.365-4.132c0.081-0.596,0.636-1.132,1.232-1.192
			l8.196-0.56c0.601-0.023,1.091-0.532,1.091-1.132C30.593,25.153,30.103,24.682,29.502,24.705z"/>
	</g>
</g>
<g id="sound" display="none">
	<g display="inline">
		<path fill="#333333" d="M58.227,30.738h0.004c0.005,0.582,0.471,1.047,1.057,1.047c0.581,0,1.056-0.469,1.056-1.055
			c0-0.005-0.005-0.009-0.005-0.016c-0.013-11.639-9.439-21.07-21.089-21.099c-0.017-0.002-0.035-0.012-0.055-0.012
			c-0.586,0-1.057,0.472-1.057,1.055s0.471,1.055,1.054,1.057v0.008C49.686,11.723,58.227,20.253,58.227,30.738z M20.415,3.007
			c-1.21-1.214-2.834-1.857-4.487-1.857c-0.816,0-1.64,0.157-2.423,0.482c-2.371,0.981-3.919,3.292-3.919,5.857L9.583,36.555
			l-6.599,6.594c-2.479,2.475-2.479,6.491,0,8.967l14.804,14.79c1.24,1.234,2.863,1.856,4.487,1.856s3.246-0.622,4.486-1.856
			l6.601-6.594h29.092c2.569,0,4.881-1.545,5.865-3.916c0.984-2.366,0.439-5.095-1.378-6.907L20.415,3.007z M30.372,57.323
			l-6.604,6.594c-0.535,0.537-1.167,0.617-1.492,0.617c-0.326,0-0.957-0.08-1.494-0.617L5.975,49.126
			c-0.539-0.536-0.62-1.168-0.62-1.495c0-0.325,0.081-0.957,0.62-1.489l6.599-6.599c0.02-0.019,0.024-0.046,0.044-0.063
			l17.817,17.803C30.416,57.295,30.389,57.305,30.372,57.323z M33.362,56.084c-0.33,0-0.633,0.116-0.946,0.187L13.625,37.497
			c0.071-0.312,0.188-0.617,0.188-0.942l0.002-25.449l45.019,44.978H33.362z M64.41,54.781c-0.327,0.791-1.097,1.303-1.956,1.303
			h-0.626L13.815,8.117V7.489c0-0.859,0.512-1.625,1.304-1.952c0.259-0.107,0.532-0.161,0.808-0.161
			c0.566,0,1.098,0.218,1.496,0.616l46.53,46.485C64.558,53.086,64.735,53.989,64.41,54.781z M39.191,5.376v0.008
			c13.998,0,25.379,11.373,25.379,25.354h0.005c0.004,1.164,0.948,2.103,2.111,2.103c1.172,0,2.116-0.943,2.116-2.111
			c0-0.005-0.004-0.009-0.004-0.016C68.785,14.407,55.569,1.192,39.249,1.163c-0.017-0.002-0.035-0.012-0.055-0.012
			c-1.168,0-2.114,0.945-2.114,2.113C37.08,4.429,38.026,5.374,39.191,5.376z"/>
	</g>
</g>
<g id="video" display="none">
	<g display="inline">
		<path fill="#333333" d="M65.527,13.125h-1.933c-1.146,0-2.251,0.452-3.065,1.257l-5.917,5.834v-2.725
			c0-3.619-2.931-6.549-6.551-6.549H6.583c-3.612,0-6.55,2.938-6.55,6.549v34.931c0,3.619,2.931,6.551,6.55,6.551h41.478
			c3.62,0,6.551-2.932,6.551-6.551v-2.663l5.917,5.834c0.814,0.804,1.919,1.257,3.065,1.257h1.933c2.412,0,4.368-1.955,4.368-4.363
			V17.491C69.896,15.081,67.939,13.125,65.527,13.125z M50.244,52.422c0,1.207-0.976,2.187-2.183,2.187H6.583
			c-1.206,0-2.184-0.979-2.184-2.187V17.491c0-1.207,0.978-2.183,2.184-2.183h41.478c1.207,0,2.183,0.979,2.183,2.183V52.422z
			 M65.527,52.486h-2.183l-8.732-8.732v-0.064l-2.182-2.183v-13.1l10.914-10.916h2.183V52.486z"/>
	</g>
</g>
<g id="trash" display="none">
	<g display="inline">
		<path fill="#333333" d="M64.986,15.237c-0.205-3.373-2.979-6.048-6.402-6.048h-6.439V7.041c0-3.56-2.887-6.444-6.442-6.444H24.226
			c-3.559,0-6.444,2.884-6.444,6.444v2.148h-6.44c-3.425,0-6.195,2.675-6.402,6.048h-0.04v4.687c0,2.372,1.922,4.295,4.295,4.295
			v36.506c0,4.742,3.846,8.589,8.588,8.589h34.362c4.743,0,8.59-3.847,8.59-8.589V24.219c2.369,0,4.293-1.923,4.293-4.295v-4.687
			H64.986z M22.08,7.042c0-1.188,0.959-2.147,2.146-2.147h21.476c1.187,0,2.146,0.96,2.146,2.147v2.147H22.08V7.042z M56.438,60.726
			c0,2.369-1.928,4.298-4.293,4.298H17.782c-2.366,0-4.292-1.929-4.292-4.298V24.219h42.947V60.726z M60.734,19.924H9.194v-4.292
			c0-1.188,0.96-2.149,2.147-2.149h47.242c1.188,0,2.15,0.961,2.15,2.149V19.924z M19.931,60.734h4.295
			c1.187,0,2.146-0.96,2.146-2.146v-27.92c0-1.187-0.959-2.146-2.146-2.146h-4.295c-1.187,0-2.149,0.959-2.149,2.146v27.92
			C17.782,59.774,18.744,60.734,19.931,60.734z M19.931,30.669h4.295v27.92h-4.295V30.669z M32.815,60.734h4.294
			c1.188,0,2.149-0.96,2.149-2.146v-27.92c0-1.187-0.962-2.146-2.149-2.146h-4.294c-1.186,0-2.146,0.959-2.146,2.146v27.92
			C30.669,59.774,31.629,60.734,32.815,60.734z M32.815,30.669h4.294v27.92h-4.294V30.669z M45.702,60.734h4.292
			c1.187,0,2.15-0.96,2.15-2.146v-27.92c0-1.187-0.964-2.146-2.15-2.146h-4.292c-1.188,0-2.15,0.959-2.15,2.146v27.92
			C43.552,59.774,44.515,60.734,45.702,60.734z M45.702,30.669h4.292v27.92h-4.292V30.669z"/>
	</g>
</g>
<g id="user" display="none">
	<g display="inline">
		<path fill="#333333" d="M67.123,61.215c-0.427-0.284-8.189-5.377-19.736-7.874c4.237-5.367,6.955-12.584,8.111-17.388
			c1.602-6.659,0.979-19.685-5.411-27.802C46.349,3.408,41.118,0.9,34.964,0.9S23.58,3.408,19.841,8.15
			c-6.391,8.117-7.013,21.144-5.411,27.802c1.156,4.804,3.874,12.021,8.11,17.388c-11.547,2.497-19.31,7.59-19.736,7.874
			c-1.562,1.04-2.258,2.979-1.713,4.773c0.542,1.797,2.199,3.022,4.073,3.022h59.597c1.875,0,3.533-1.226,4.074-3.022
			C69.381,64.193,68.685,62.255,67.123,61.215z M18.279,23.78c1.16-9.109,6.379-18.623,16.685-18.623
			c10.303,0,15.524,9.514,16.685,18.623c1.26,9.483-1.67,19.411-7.604,26.925l-0.696,0.882c-5.074,5.833-11.695,5.833-16.77,0
			l-0.696-0.882C19.954,43.19,17.015,33.258,18.279,23.78z M5.165,64.758c0.293-0.199,7.505-4.927,18.277-7.253l5.286-1.145
			c1.884,1.239,3.957,2.011,6.236,2.011c2.277,0,4.352-0.771,6.235-2.011l5.287,1.145c10.686,2.308,17.874,6.986,18.275,7.253H5.165
			z"/>
	</g>
</g>
<g id="key" display="none">
	<g display="inline">
		<path fill="#333333" d="M47.692,1.025c-11.711,0-21.207,9.496-21.207,21.207c0,2.725,0.571,5.302,1.512,7.695L2.236,55.693
			c-0.743,0.746-1.206,1.454-1.206,2.592v6.363c0,2.271,1.97,4.237,4.241,4.237h6.363c1.136,0,1.854-0.452,2.6-1.194l3.042-3.043
			h4.968c2.341,0,4.241-1.9,4.241-4.244v-4.239h4.241c2.344,0,4.241-1.899,4.241-4.243v-4.971l5.027-5.024
			c2.392,0.942,4.972,1.513,7.697,1.513c11.71,0,21.208-9.498,21.208-21.207C68.9,10.521,59.402,1.025,47.692,1.025z M47.692,39.201
			c-3.139,0-6.045-0.916-8.568-2.404l-0.728,0.729l-2.387,2.389l-4.038,4.042c-0.795,0.794-1.245,1.872-1.245,2.995v4.971h-4.241
			c-2.342,0-4.241,1.899-4.241,4.243v4.239h-4.968c-1.125,0-2.203,0.448-2.997,1.242l-3.008,3.011L5.28,64.648l-0.007-6.045
			l24.738-24.692c0,0,0,0,0.003,0.004l3.113-3.116c-1.488-2.521-2.4-5.428-2.4-8.566c0-9.37,7.598-16.966,16.965-16.966
			c9.369,0,16.964,7.596,16.964,16.966C64.656,31.603,57.062,39.201,47.692,39.201z M60.029,18.499
			c-2.381-3.312-5.273-6.202-8.599-8.597c-0.546-0.392-1.241-0.491-1.875-0.27c-2.943,1.037-4.958,3.052-5.992,5.998
			c-0.079,0.219-0.115,0.449-0.115,0.678c0,0.421,0.13,0.841,0.384,1.194c2.387,3.318,5.278,6.21,8.595,8.595
			c0.541,0.39,1.242,0.491,1.871,0.271c2.945-1.03,4.964-3.048,5.999-5.997c0.077-0.218,0.116-0.449,0.116-0.677
			C60.413,19.271,60.278,18.852,60.029,18.499z M53.664,24.375c-3.132-2.255-5.862-4.985-8.102-8.043
			c0.822-2.339,2.358-3.874,4.63-4.709c3.135,2.26,5.861,4.981,8.093,8.081C57.458,22.024,55.924,23.551,53.664,24.375z"/>
	</g>
</g>
<g id="search" display="none">
	<g display="inline">
		<path fill="#333333" d="M43.479,0.9c-14.107,0-25.541,11.437-25.541,25.543c0,4.313,1.077,8.37,2.966,11.934L3.146,56.135
			l0.014,0.014c-1.386,1.365-2.251,3.254-2.251,5.354c0,4.146,3.364,7.508,7.514,7.508c2.098,0,3.988-0.864,5.353-2.249
			l-0.004-0.004l17.752-17.753c3.565,1.896,7.631,2.979,11.957,2.979c14.103,0,25.541-11.435,25.541-25.541S57.582,0.9,43.479,0.9z
			 M11.114,64.103c-0.685,0.709-1.634,1.154-2.692,1.154c-2.076,0-3.757-1.682-3.757-3.754c0-1.063,0.447-2.011,1.156-2.695
			L5.803,58.79l17.17-17.166c1.497,2.022,3.286,3.812,5.305,5.312L11.114,64.103z M43.479,47.729
			c-11.754,0-21.286-9.531-21.286-21.286c0-11.755,9.532-21.286,21.286-21.286s21.282,9.531,21.282,21.286
			C64.762,38.198,55.233,47.729,43.479,47.729z M43.479,11.543c-8.229,0-14.9,6.669-14.9,14.9c0,0.586,0.474,1.064,1.064,1.064
			c0.585,0,1.063-0.478,1.063-1.064c0-7.053,5.72-12.771,12.772-12.771c0.587,0,1.064-0.477,1.064-1.065
			C44.544,12.019,44.066,11.543,43.479,11.543z"/>
	</g>
</g>
<g id="settings" display="none">
	<g display="inline">
		<path fill="#333333" d="M66.383,27.704l-6.692-1.341c-0.337-0.967-0.732-1.906-1.171-2.813l3.79-5.685
			c1.153-1.731,0.925-4.038-0.548-5.509l-4.2-4.2c-0.843-0.843-1.959-1.279-3.088-1.279c-0.839,0-1.682,0.241-2.42,0.734L46.37,11.4
			c-0.91-0.441-1.85-0.833-2.816-1.171l-1.34-6.691c-0.406-2.043-2.199-3.512-4.28-3.512h-5.939c-2.081,0-3.874,1.469-4.282,3.512
			l-1.34,6.691c-0.969,0.337-1.907,0.731-2.815,1.171l-5.684-3.789c-0.739-0.493-1.581-0.734-2.42-0.734
			c-1.128,0-2.245,0.436-3.088,1.279l-4.2,4.2c-1.472,1.471-1.702,3.778-0.548,5.509l3.791,5.685
			c-0.442,0.91-0.834,1.848-1.172,2.815l-6.691,1.338c-2.043,0.407-3.511,2.2-3.511,4.281v5.94c0,2.085,1.468,3.879,3.511,4.285
			l6.691,1.34c0.337,0.967,0.733,1.905,1.172,2.816l-3.791,5.681c-1.153,1.733-0.924,4.04,0.548,5.511l4.2,4.197
			c0.843,0.846,1.96,1.281,3.088,1.281c0.839,0,1.683-0.241,2.42-0.735l5.684-3.787c0.91,0.44,1.848,0.832,2.817,1.171l1.338,6.692
			c0.408,2.045,2.201,3.509,4.282,3.509h5.939c2.081,0,3.874-1.464,4.28-3.509l1.342-6.692c0.968-0.339,1.906-0.73,2.814-1.171
			l5.684,3.787c0.74,0.494,1.581,0.735,2.42,0.735c1.129,0,2.245-0.436,3.088-1.281l4.2-4.197c1.473-1.471,1.701-3.777,0.548-5.511
			l-3.79-5.681c0.44-0.911,0.834-1.85,1.171-2.82l6.692-1.336c2.043-0.406,3.511-2.2,3.511-4.285v-5.94
			C69.894,29.904,68.426,28.111,66.383,27.704z M58.833,39.266c-1.516,0.305-2.759,1.386-3.266,2.848
			c-0.281,0.805-0.607,1.586-0.978,2.349c-0.675,1.391-0.562,3.037,0.298,4.322l3.788,5.686l-4.2,4.202l-5.683-3.791
			c-0.731-0.485-1.574-0.734-2.423-0.734c-0.649,0-1.298,0.147-1.902,0.435c-0.756,0.369-1.539,0.697-2.349,0.979
			c-1.458,0.508-2.542,1.752-2.845,3.269l-1.341,6.694h-5.939l-1.338-6.694c-0.303-1.517-1.387-2.761-2.845-3.269
			c-0.807-0.282-1.591-0.605-2.349-0.976c-0.603-0.291-1.253-0.438-1.904-0.438c-0.849,0-1.692,0.249-2.422,0.734l-5.684,3.791
			l-4.2-4.202l3.788-5.686c0.858-1.285,0.971-2.932,0.299-4.322c-0.365-0.759-0.696-1.54-0.978-2.349
			c-0.506-1.462-1.75-2.543-3.266-2.844l-6.691-1.345l-0.002-5.94l6.693-1.336c1.517-0.305,2.76-1.387,3.266-2.848
			c0.282-0.805,0.608-1.588,0.978-2.348c0.674-1.392,0.562-3.038-0.299-4.326l-3.788-5.684l4.2-4.2l5.684,3.789
			c0.73,0.485,1.574,0.732,2.422,0.732c0.649,0,1.298-0.145,1.902-0.434c0.755-0.367,1.539-0.697,2.347-0.979
			c1.459-0.507,2.543-1.75,2.846-3.266l1.341-6.692l5.939-0.002l1.338,6.695c0.304,1.516,1.388,2.759,2.848,3.266
			c0.805,0.282,1.589,0.608,2.347,0.977c0.603,0.292,1.253,0.437,1.904,0.437c0.849,0,1.691-0.247,2.423-0.732l5.683-3.789l4.2,4.2
			l-3.788,5.684c-0.857,1.288-0.971,2.931-0.298,4.324c0.365,0.757,0.696,1.541,0.978,2.347c0.507,1.461,1.75,2.545,3.266,2.845
			l6.692,1.341l0.002,5.94L58.833,39.266z M34.964,19.674c-8.439,0-15.283,6.842-15.283,15.282c0,8.442,6.844,15.283,15.283,15.283
			c8.438,0,15.282-6.841,15.282-15.283C50.246,26.516,43.402,19.674,34.964,19.674z M34.964,48.331
			c-7.383,0-13.372-5.992-13.372-13.375c0-7.382,5.989-13.372,13.372-13.372s13.371,5.99,13.371,13.372
			C48.335,42.339,42.347,48.331,34.964,48.331z M34.964,26.225c-4.824,0-8.732,3.906-8.732,8.732c0,4.827,3.908,8.733,8.732,8.733
			c4.823,0,8.732-3.906,8.732-8.733C43.696,30.131,39.787,26.225,34.964,26.225z M34.964,41.507c-3.615,0-6.551-2.935-6.551-6.55
			c0-3.614,2.936-6.55,6.551-6.55c3.614,0,6.551,2.936,6.551,6.55C41.515,38.572,38.578,41.507,34.964,41.507z"/>
	</g>
</g>
<g id="camera" display="none">
	<g display="inline">
		<path fill="#333333" d="M34.962,20.769c-9.644,0-17.465,7.815-17.465,17.465c0,9.648,7.822,17.465,17.465,17.465
			c9.647,0,17.469-7.816,17.469-17.465C52.431,28.584,44.609,20.769,34.962,20.769z M44.905,46.76
			c-4.707,5.491-12.971,6.124-18.464,1.418c-5.496-4.706-6.129-12.976-1.423-18.467c4.706-5.493,12.976-6.128,18.468-1.419
			C48.982,32.997,49.615,41.263,44.905,46.76z M34.962,29.502c-4.822,0-8.728,3.911-8.733,8.728v0.005
			c0,0.602,0.491,1.092,1.096,1.092c0.601,0,1.091-0.49,1.091-1.092v-0.005c0-3.615,2.931-6.545,6.546-6.545
			c0.605,0,1.095-0.49,1.095-1.091C36.057,29.99,35.567,29.502,34.962,29.502z M64.422,18.673l-9.467-1.58L51.96,9.6
			c-1.004-2.503-3.389-4.115-6.079-4.115H24.047c-2.691,0-5.076,1.612-6.083,4.118l-2.996,7.491l-9.457,1.58
			c-3.176,0.527-5.478,3.243-5.478,6.46v32.743c0,3.614,2.938,6.55,6.55,6.55h56.761c3.61,0,6.551-2.936,6.551-6.55V25.134
			C69.896,21.916,67.594,19.201,64.422,18.673z M65.527,57.877c0,1.206-0.976,2.181-2.183,2.181H6.583
			c-1.206,0-2.184-0.975-2.184-2.181V25.134c0-1.07,0.772-1.981,1.826-2.153l11.886-1.983l3.911-9.773
			c0.328-0.829,1.133-1.374,2.025-1.374h21.833c0.892,0,1.691,0.544,2.024,1.374l3.91,9.773l11.886,1.983
			c1.054,0.172,1.826,1.083,1.826,2.153V57.877z"/>
	</g>
</g>
<g id="tag" display="none">
	<g display="inline">
		<path fill="#333333" d="M68.564,30.33L57.649,12.863c-1.595-2.552-4.396-4.104-7.405-4.104H8.766c-4.823,0-8.732,3.91-8.732,8.732
			v34.931c0,4.821,3.91,8.732,8.732,8.732h41.479c3.01,0,5.811-1.554,7.405-4.105l10.915-17.465
			C70.337,36.755,70.337,33.159,68.564,30.33z M64.864,37.269L53.947,54.737c-0.803,1.28-2.187,2.049-3.703,2.049H8.766
			c-2.407,0-4.366-1.956-4.366-4.364V17.491c0-2.406,1.959-4.366,4.366-4.366h41.479c1.517,0,2.9,0.768,3.703,2.051l10.914,17.464
			C65.742,34.046,65.742,35.863,64.864,37.269z M50.244,28.407c-3.617,0-6.55,2.931-6.55,6.55c0,3.616,2.933,6.55,6.55,6.55
			c3.62,0,6.551-2.935,6.551-6.55C56.795,31.337,53.864,28.407,50.244,28.407z M50.244,39.32c-2.41,0-4.366-1.955-4.366-4.364
			c0-2.413,1.956-4.366,4.366-4.366c2.413,0,4.368,1.953,4.368,4.366C54.612,37.365,52.657,39.32,50.244,39.32z"/>
	</g>
</g>
<g id="lock" display="none">
	<g display="inline">
		<path fill="#333333" d="M54.612,28.407v-8.732c0-10.851-8.797-19.648-19.646-19.648c-10.854,0-19.648,8.797-19.648,19.648v8.732
			c-3.619,0-6.551,2.931-6.551,6.55v15.283c0,10.851,8.797,19.646,19.649,19.646h13.099c10.852,0,19.648-8.796,19.648-19.646V34.957
			C61.163,31.337,58.232,28.407,54.612,28.407z M19.683,19.674c0-8.44,6.842-15.282,15.283-15.282c8.438,0,15.28,6.842,15.28,15.282
			v8.732h-4.365v-8.726c0-6.029-4.887-10.916-10.915-10.916c-6.03,0-10.917,4.887-10.917,10.916v8.726h-4.366V19.674z
			 M43.698,19.674v8.732H26.234v-8.732c0-4.821,3.909-8.732,8.732-8.732C39.787,10.942,43.698,14.853,43.698,19.674z M56.795,50.239
			c0,8.424-6.856,15.278-15.28,15.278H28.416c-8.427,0-15.282-6.854-15.282-15.278V34.957c0-1.206,0.979-2.181,2.184-2.181h39.295
			c1.207,0,2.183,0.976,2.183,2.181V50.239z M34.966,41.507c-2.413,0-4.368,1.956-4.368,4.364c0,1.327,0.729,3.842,1.457,5.834
			c0.596,1.618,1.34,2.898,2.912,2.898c1.706,0,2.313-1.267,2.913-2.875c0.735-1.997,1.451-4.526,1.451-5.857
			C39.33,43.463,37.374,41.507,34.966,41.507z"/>
	</g>
</g>
<g id="bulb" display="none">
	<g display="inline">
		<path fill="#333333" d="M34.966,0.026c-13.265,0-24.016,10.752-24.016,24.014c0,8.799,8.054,18.127,10.985,26.315
			c4.374,12.223,3.888,19.53,13.031,19.53c9.278,0,8.653-7.28,13.03-19.476c2.941-8.209,10.982-17.635,10.982-26.37
			C58.979,10.778,48.229,0.026,34.966,0.026z M34.966,65.518c-2.212,0-3.231-0.249-4.361-2.728l9.252-1.155
			C38.519,65.245,37.54,65.518,34.966,65.518z M41.41,56.748c-0.287,0.98-0.546,1.831-0.786,2.607L29.798,60.71
			c-0.384-1.123-0.8-2.431-1.304-4.137c-0.007-0.019-0.014-0.046-0.019-0.065l13.511-1.691
			C41.794,55.464,41.586,56.144,41.41,56.748z M42.682,52.551l-14.844,1.854c-0.395-1.312-0.841-2.699-1.34-4.165h16.951
			C43.183,51.021,42.915,51.807,42.682,52.551z M45.163,45.871H24.789c-1.088-2.357-2.392-4.715-3.679-7.021
			c-2.85-5.099-5.794-10.369-5.794-14.809c0-10.834,8.815-19.648,19.651-19.648c10.833,0,19.646,8.813,19.646,19.648
			c0,4.405-2.944,9.705-5.797,14.833C47.539,41.174,46.246,43.528,45.163,45.871z M34.966,10.942
			c-7.225,0-13.101,5.875-13.101,13.099c0,0.604,0.49,1.092,1.091,1.092c0.605,0,1.091-0.487,1.091-1.092
			c0-6.018,4.899-10.916,10.918-10.916c0.601,0,1.091-0.488,1.091-1.091C36.057,11.431,35.567,10.942,34.966,10.942z"/>
	</g>
</g>
<g id="pen" display="none">
	<g display="inline">
		<path fill="#333333" d="M64.209,5.66c-3.592-3.586-8.32-5.633-12.979-5.633c-3.931,0-7.554,1.458-10.193,4.098L30.408,14.831
			c-0.032,0.03-0.069,0.051-0.102,0.083c-0.019,0.017-0.027,0.041-0.047,0.058l0.005,0.004L7.714,37.698
			c-1.038,1.03-1.794,2.321-2.212,3.722L0.375,59.994c-0.007,0.051-0.342,1.511-0.342,2.25c0,4.221,3.428,7.642,7.653,7.642
			c0.839,0,2.466-0.402,2.526-0.411l18.508-4.863c1.406-0.415,2.682-1.178,3.722-2.218l33.32-33.58
			C71.823,22.745,71.144,12.58,64.209,5.66z M33.482,17.933c2.575-2.511,6.325-3.233,10.017-2.317l-20.57,20.566
			c-2.025-0.813-4.142-1.276-6.264-1.303L33.482,17.933z M9.133,65.245c-0.238,0.051-0.978,0.24-1.482,0.272
			c-1.796-0.018-3.252-1.479-3.252-3.273c0.026-0.364,0.173-0.993,0.222-1.229l2.3-8.326c2.494-0.069,5.181,0.906,7.289,3.019
			c2.145,2.146,3.152,4.882,3.042,7.401L9.133,65.245z M28.258,60.081c-0.254,0.135-0.508,0.265-0.786,0.347l-8.066,2.117
			c-0.051-2.93-1.244-5.977-3.647-8.375c-2.275-2.279-5.252-3.593-8.223-3.713l2.175-7.877c0.157-0.522,0.469-1.04,0.853-1.493
			c4.381-3.134,11.112-2.21,15.795,2.473C31.305,48.511,32.073,55.755,28.258,60.081z M32.331,44.249
			c-0.813-1.342-1.738-2.631-2.884-3.777c-1.336-1.331-2.867-2.376-4.466-3.254l20.812-20.809c1.632,0.725,3.199,1.756,4.581,3.139
			c1.178,1.176,2.094,2.494,2.791,3.864L32.331,44.249z M51.918,36.524c-0.019,0.018-0.042,0.027-0.057,0.046l0.029,0.028
			L35.017,53.601c0.005-0.541,0.028-1.073-0.018-1.623c-0.18-1.974-0.739-3.905-1.571-5.74l20.64-20.635
			C55.329,29.59,54.682,33.76,51.918,36.524z M62.675,25.728l-3.68,3.705c0-0.492,0.06-0.968,0.014-1.47
			c-0.384-4.224-2.354-8.309-5.552-11.503c-3.555-3.558-8.271-5.601-12.938-5.613l3.614-3.646c1.808-1.806,4.331-2.808,7.097-2.808
			c3.513,0,7.118,1.589,9.892,4.356c2.607,2.602,4.16,5.831,4.383,9.099C65.707,20.898,64.704,23.696,62.675,25.728z"/>
	</g>
</g>
<g id="diamond" display="none">
	<g display="inline">
		<path fill="#333333" d="M68.615,21.142l-11.09-11.091c-0.819-0.818-1.93-1.279-3.088-1.279H15.493c-1.158,0-2.27,0.46-3.088,1.279
			L1.315,21.142c-0.857,0.854-1.285,1.984-1.28,3.114c0.004,1.025,0.372,2.051,1.103,2.874L31.7,59.679
			c0.83,0.935,2.016,1.462,3.264,1.462c1.248,0,2.434-0.527,3.264-1.462L68.79,27.13c0.748-0.841,1.114-1.894,1.104-2.939
			C69.886,23.081,69.454,21.981,68.615,21.142z M52.91,13.138l-4.185,3.485l-3.485-3.485H52.91z M53.068,24.054h-9.852l5.375-4.477
			L53.068,24.054z M47.04,18.025l-5.525,4.606l-4.845-4.036l5.968-4.977L47.04,18.025z M39.811,24.054h-9.693l4.847-4.04
			L39.811,24.054z M39.811,13.138l-4.847,4.038l-4.847-4.038H39.811z M33.258,18.596l-4.845,4.036l-5.526-4.606l4.403-4.406
			L33.258,18.596z M26.709,24.054h-9.851l4.478-4.477L26.709,24.054z M24.688,13.138l-3.486,3.485l-4.183-3.485H24.688z
			 M14.628,13.987l5.023,4.187l-5.88,5.88H4.413L14.628,13.987z M6.287,26.238h7.759l13.723,22.874L6.287,26.238z M16.588,26.238
			h10.713l5.356,26.779L16.588,26.238z M29.527,26.238H40.4L34.964,53.42L29.527,26.238z M37.271,53.018l5.355-26.779H53.34
			L37.271,53.018z M42.157,49.112l13.725-22.874h7.761L42.157,49.112z M56.156,24.054l-5.879-5.88l5.015-4.182l10.059,10.062H56.156
			z"/>
	</g>
</g>
<g id="display" display="none">
	<g display="inline">
		<path fill="#333333" d="M58.977,10.938L10.95,10.946c-1.207,0-2.184,0.968-2.184,2.175v30.564c0,1.207,0.978,2.182,2.184,2.182
			h48.027c1.207,0,2.187-0.975,2.187-2.182V13.121C61.163,11.914,60.184,10.938,58.977,10.938z M58.977,43.694H10.95V13.121h48.027
			V43.694z M63.345,2.213H6.583c-3.619,0-6.55,2.931-6.55,6.55v43.663c0,3.61,2.922,6.537,6.527,6.547h21.855v2.652L14.788,63.4
			c-0.976,0.24-1.655,1.114-1.655,2.117c0,1.207,0.975,2.182,2.182,2.182h39.297c1.207,0,2.183-0.975,2.183-2.182
			c0-1.003-0.685-1.877-1.655-2.117l-13.627-1.775v-2.652h21.852c3.61-0.01,6.531-2.937,6.531-6.547V8.763
			C69.896,5.144,66.96,2.213,63.345,2.213z M65.527,52.426c0,1.203-0.98,2.183-2.183,2.183H6.583c-1.206,0-2.184-0.979-2.184-2.183
			V8.763c0-1.205,0.978-2.184,2.184-2.184h56.761c1.202,0,2.183,0.979,2.183,2.184V52.426z"/>
	</g>
</g>
<g id="location" display="none">
	<g display="inline">
		<path fill="#333333" d="M34.966,12.569c-7.223,0-13.098,5.877-13.098,13.1c0,7.222,5.875,13.097,13.098,13.097
			s13.1-5.875,13.1-13.097C48.065,18.446,42.188,12.569,34.966,12.569z M34.966,36.584c-6.019,0-10.914-4.896-10.914-10.916
			c0-6.021,4.895-10.917,10.914-10.917c6.021,0,10.915,4.896,10.915,10.917C45.881,31.688,40.987,36.584,34.966,36.584z
			 M34.964,0.025c-14.449,0-26.199,11.606-26.199,26.202c0,15.286,13.101,30.915,22.651,41.903c0.038,0.041,1.569,1.756,3.465,1.756
			h0.167c1.895,0,3.427-1.715,3.464-1.756c9.554-10.988,22.651-26.617,22.651-41.903C61.163,11.632,49.412,0.025,34.964,0.025z
			 M35.218,65.264c-0.044,0.041-0.178,0.144-0.294,0.218c-0.022-0.065-0.185-0.189-0.282-0.292
			c-8.002-9.208-21.511-24.745-21.511-38.962c0-12.04,9.798-21.835,21.833-21.835c12.04,0,21.835,9.796,21.835,21.835
			C56.799,40.444,43.289,55.981,35.218,65.264z"/>
	</g>
</g>
<g id="eye" display="none">
	<g display="inline">
		<path fill="#333333" d="M69.838,34.476c-0.023-0.093-0.012-0.189-0.045-0.282c-0.013-0.037-0.046-0.055-0.06-0.087
			c-0.022-0.055-0.019-0.111-0.046-0.166C63.341,21.825,49.532,13.14,34.966,13.14c-14.571,0-28.377,8.669-34.725,20.787
			c-0.027,0.051-0.023,0.111-0.045,0.162c-0.014,0.033-0.046,0.055-0.059,0.093c-0.035,0.087-0.022,0.189-0.043,0.277
			c-0.038,0.167-0.077,0.324-0.077,0.49c0,0.167,0.039,0.324,0.077,0.49c0.021,0.088,0.008,0.189,0.043,0.278
			c0.013,0.037,0.044,0.055,0.059,0.093c0.022,0.05,0.018,0.11,0.045,0.161c6.347,12.122,20.154,20.802,34.725,20.802
			c14.566,0,28.375-8.668,34.722-20.788c0.027-0.051,0.023-0.106,0.046-0.162c0.014-0.033,0.047-0.055,0.06-0.087
			c0.033-0.093,0.021-0.189,0.045-0.282c0.035-0.166,0.073-0.319,0.073-0.49C69.911,34.8,69.873,34.638,69.838,34.476z
			 M34.966,52.407c-12.282,0-24.305-6.971-30.298-17.455c6.024-10.5,18.032-17.444,30.298-17.444
			c12.278,0,24.302,6.968,30.298,17.454C59.24,45.46,47.229,52.407,34.966,52.407z M34.966,26.229c-0.004,0-0.009,0.005-0.013,0.005
			c-4.822,0.007-8.73,3.909-8.73,8.723c0,0.601,0.487,1.092,1.093,1.092c0.601,0,1.091-0.491,1.091-1.092
			c0-3.61,2.94-6.545,6.56-6.545c0.601,0,1.091-0.49,1.091-1.091S35.567,26.229,34.966,26.229z M34.915,19.682
			c-8.459,0-15.312,6.843-15.312,15.28c0,8.44,6.854,15.282,15.312,15.282c8.455,0,15.312-6.842,15.312-15.282
			C50.227,26.525,43.37,19.682,34.915,19.682z M34.915,48.062c-7.239,0-13.126-5.876-13.126-13.101
			c0-7.221,5.887-13.095,13.126-13.095c7.235,0,13.124,5.875,13.124,13.095C48.039,42.187,42.15,48.062,34.915,48.062z"/>
	</g>
</g>
<g id="bubble" display="none">
	<g display="inline">
		<path fill="#333333" d="M34.966,15.307c-13.02,0-24.016,6.999-24.016,15.282c0,0.603,0.489,1.09,1.092,1.09
			s1.091-0.488,1.091-1.09c0-6.979,10.202-13.099,21.833-13.099c0.601,0,1.091-0.488,1.091-1.091
			C36.057,15.796,35.567,15.307,34.966,15.307z M34.966,4.392c-19.295,0-34.931,11.73-34.931,26.197
			c0,9.01,6.067,16.956,15.299,21.671c0,0.061-0.019,0.097-0.019,0.162c0,3.915-2.921,8.127-4.207,10.341c0.003,0,0.004,0,0.004,0
			c-0.102,0.235-0.162,0.499-0.162,0.781c0,1.091,0.884,1.979,1.98,1.979c0.204,0,0.564-0.057,0.554-0.029
			c6.824-1.118,13.251-7.387,14.742-9.207c2.182,0.322,4.433,0.499,6.74,0.499c19.288,0,34.93-11.729,34.93-26.197
			C69.896,16.122,54.254,4.392,34.966,4.392z M34.966,52.422c-2.003,0-4.056-0.152-6.106-0.453c-0.21-0.033-0.423-0.046-0.633-0.046
			c-1.294,0-2.538,0.577-3.374,1.595c-0.934,1.142-3.592,3.675-6.736,5.542c0.851-1.951,1.521-4.142,1.565-6.397
			c0.011-0.139,0.019-0.282,0.019-0.402c0-1.641-0.918-3.144-2.379-3.888c-8.092-4.133-12.92-10.779-12.92-17.783
			c0-12.037,13.711-21.832,30.565-21.832c16.853,0,30.562,9.795,30.562,21.832C65.527,42.627,51.818,52.422,34.966,52.422z"/>
	</g>
</g>
<g id="stack" display="none">
	<g display="inline">
		<path fill="#333333" d="M69.729,40.314l-8.737-32.76c-0.532-1.861-2.256-3.163-4.197-3.163H13.133
			c-1.943,0-3.667,1.302-4.196,3.163L0.2,40.314c-0.111,0.397-0.167,0.8-0.167,1.192v15.279c0,4.825,3.911,8.737,8.732,8.737h52.397
			c4.821,0,8.732-3.912,8.732-8.737V41.507C69.896,41.114,69.84,40.712,69.729,40.314z M65.527,56.786
			c0,2.408-1.961,4.368-4.364,4.368H8.766c-2.406,0-4.366-1.96-4.366-4.368V41.507l8.734-32.751h43.662l8.732,32.751V56.786z
			 M51.867,13.124H18.061c-0.99,0-1.854,0.666-2.108,1.623L8.431,40.943C8.257,41.6,8.396,42.298,8.81,42.834
			c0.414,0.541,1.054,0.855,1.731,0.855h9.974l3.158,6.318c0.74,1.48,2.251,2.414,3.906,2.414h14.77
			c1.655,0,3.166-0.934,3.906-2.414l3.161-6.318h9.972c0.68,0,1.318-0.314,1.733-0.855c0.412-0.536,0.55-1.234,0.379-1.891
			l-7.521-26.197C53.721,13.79,52.855,13.124,51.867,13.124z M49.416,39.32c-1.664,0-3.161,0.925-3.905,2.414l-3.162,6.318h-14.77
			l-3.158-6.318c-0.749-1.489-2.247-2.414-3.906-2.414h-8.837l6.383-24.013h33.806L58.25,39.32H49.416z"/>
	</g>
</g>
<g id="cup" display="none">
	<g display="inline">
		<path fill="#333333" d="M61.405,10.989l-2.65-7.98c-0.594-1.782-2.264-2.984-4.143-2.984H15.315c-1.879,0-3.548,1.202-4.142,2.984
			l-2.674,7.985c-2.279,0.146-4.098,1.998-4.098,4.313v6.549c0,2.412,1.955,4.367,4.366,4.367h2.258
			c0,0.164-0.067,0.316-0.048,0.483l4.366,39.298c0.245,2.209,2.113,3.882,4.338,3.882h30.565c2.227,0,4.094-1.673,4.339-3.882
			l4.366-39.298c0.019-0.167-0.049-0.319-0.049-0.483h2.259c2.41,0,4.366-1.955,4.366-4.367v-6.549
			C65.527,12.983,63.696,11.125,61.405,10.989z M15.315,4.392h39.297l2.183,6.549H13.133L15.315,4.392z M50.246,65.523H19.681
			l-0.726-6.551h32.018L50.246,65.523z M51.215,56.786H18.713l-2.427-21.83h37.356L51.215,56.786z M53.885,32.77H16.043
			l-0.728-6.547h39.297L53.885,32.77z M61.161,21.856H8.767v-6.549h52.395V21.856z"/>
	</g>
</g>
<g id="phone" display="none">
	<g display="inline">
		<path fill="#333333" d="M52.431,0.025H17.497c-3.615,0-6.547,2.933-6.547,6.552v56.764c0,3.615,2.932,6.545,6.547,6.545h34.934
			c3.615,0,6.546-2.935,6.546-6.55V6.575C58.977,2.956,56.046,0.025,52.431,0.025z M54.612,63.336c0,1.206-0.979,2.188-2.182,2.188
			H17.497c-1.202,0-2.182-0.981-2.182-2.183v-4.378h39.297V63.336z M54.612,56.78H15.315V13.126l39.297-0.004V56.78z M54.612,10.941
			H15.315V6.577c0-1.206,0.98-2.183,2.182-2.183L52.431,4.39c1.202,0,2.182,0.98,2.182,2.185V10.941z M38.239,6.575h-6.551
			c-0.601,0-1.091,0.485-1.091,1.091c0,0.603,0.49,1.092,1.091,1.092h6.551c0.601,0,1.091-0.489,1.091-1.092
			C39.33,7.06,38.84,6.575,38.239,6.575z M33.87,63.326h2.187c0.602,0,1.092-0.484,1.092-1.091c0-0.604-0.49-1.091-1.092-1.091
			H33.87c-0.601,0-1.091,0.486-1.091,1.091C32.779,62.842,33.269,63.326,33.87,63.326z"/>
	</g>
</g>
<g id="news" display="none">
	<g display="inline">
		<path fill="#333333" d="M63.345,0.026h-48.03c-3.617,0-6.548,2.931-6.548,6.548v4.366H6.583c-3.618,0-6.549,2.933-6.549,6.55
			v43.663c0,4.821,3.91,8.731,8.732,8.731h52.396c4.821,0,8.732-3.91,8.732-8.731V6.575C69.896,2.958,66.962,0.026,63.345,0.026z
			 M65.527,61.154c0,2.403-1.958,4.363-4.364,4.363H8.767c-2.407,0-4.366-1.96-4.366-4.363V17.491c0-1.205,0.978-2.184,2.183-2.184
			h2.183v43.666c0,1.205,0.977,2.182,2.183,2.182c1.208,0,2.184-0.977,2.184-2.182V6.575c0-1.205,0.979-2.182,2.182-2.182h48.03
			c1.205,0,2.183,0.978,2.183,2.182V61.154z M42.604,28.42h17.464c0.605,0,1.091-0.49,1.091-1.091c0-0.605-0.485-1.096-1.091-1.096
			H42.604c-0.604,0-1.091,0.49-1.091,1.096C41.513,27.931,41.999,28.42,42.604,28.42z M42.604,21.869h17.464
			c0.605,0,1.091-0.488,1.091-1.09c0-0.604-0.485-1.091-1.091-1.091H42.604c-0.604,0-1.091,0.488-1.091,1.091
			C41.513,21.381,41.999,21.869,42.604,21.869z M42.604,15.321h17.464c0.605,0,1.091-0.488,1.091-1.091
			c0-0.604-0.485-1.093-1.091-1.093H42.604c-0.604,0-1.091,0.49-1.091,1.093C41.513,14.833,41.999,15.321,42.604,15.321z
			 M36.057,58.977H18.59c-0.603,0-1.091,0.495-1.091,1.096c0,0.606,0.488,1.091,1.091,1.091h17.467c0.602,0,1.092-0.484,1.092-1.091
			C37.148,59.472,36.658,58.977,36.057,58.977z M36.057,52.431H18.59c-0.603,0-1.091,0.49-1.091,1.091
			c0,0.606,0.488,1.091,1.091,1.091h17.467c0.602,0,1.092-0.484,1.092-1.091C37.148,52.921,36.658,52.431,36.057,52.431z
			 M36.057,45.881H18.59c-0.603,0-1.091,0.489-1.091,1.09c0,0.606,0.488,1.092,1.091,1.092h17.467c0.602,0,1.092-0.485,1.092-1.092
			C37.148,46.37,36.658,45.881,36.057,45.881z M60.07,58.977H42.605c-0.604,0-1.093,0.495-1.093,1.096
			c0,0.606,0.489,1.091,1.093,1.091H60.07c0.603,0,1.093-0.484,1.093-1.091C61.163,59.472,60.673,58.977,60.07,58.977z
			 M60.07,52.431H42.605c-0.604,0-1.093,0.49-1.093,1.091c0,0.606,0.489,1.091,1.093,1.091H60.07c0.603,0,1.093-0.484,1.093-1.091
			C61.163,52.921,60.673,52.431,60.07,52.431z M60.07,45.881H42.605c-0.604,0-1.093,0.489-1.093,1.09
			c0,0.606,0.489,1.092,1.093,1.092H60.07c0.603,0,1.093-0.485,1.093-1.092C61.163,46.37,60.673,45.881,60.07,45.881z M60.07,32.784
			H18.59c-0.603,0-1.091,0.486-1.091,1.091c0,0.601,0.488,1.091,1.091,1.091h41.48c0.603,0,1.093-0.49,1.093-1.091
			C61.163,33.27,60.673,32.784,60.07,32.784z M60.07,39.33H18.59c-0.603,0-1.091,0.489-1.091,1.091c0,0.605,0.488,1.092,1.091,1.092
			h41.48c0.603,0,1.093-0.486,1.093-1.092C61.163,39.819,60.673,39.33,60.07,39.33z M19.683,28.407h15.281
			c1.207,0,2.185-0.976,2.185-2.182V10.952c0-1.206-0.978-2.184-2.185-2.184H19.683c-1.206,0-2.184,0.978-2.184,2.184v15.272
			C17.499,27.431,18.477,28.407,19.683,28.407z M21.865,13.125h10.914v10.914H21.865V13.125z"/>
	</g>
</g>
<g id="mail" display="none">
	<g display="inline">
		<path fill="#333333" d="M61.161,12.033H8.766c-4.821,0-8.732,3.909-8.732,8.732v28.383c0,4.821,3.911,8.732,8.732,8.732h52.396
			c4.823,0,8.734-3.911,8.734-8.732V20.765C69.896,15.941,65.984,12.033,61.161,12.033z M4.399,23.495l15.279,11.462L4.399,46.417
			V23.495z M61.161,53.513H8.766c-2.406,0-4.366-1.955-4.366-4.364L21.498,36.32l9.537,7.156c1.162,0.869,2.545,1.308,3.929,1.308
			c1.384,0,2.767-0.438,3.929-1.308l9.537-7.156l17.098,12.828C65.527,51.558,63.566,53.513,61.161,53.513z M65.527,46.417
			l-15.279-11.46l15.279-11.462V46.417z M37.582,41.729c-0.763,0.568-1.668,0.874-2.618,0.874s-1.855-0.306-2.618-0.874
			l-9.029-6.773l-1.819-1.363L4.399,20.768v-0.002c0-2.406,1.96-4.366,4.366-4.366h52.396c2.405,0,4.366,1.96,4.366,4.366
			L37.582,41.729z"/>
	</g>
</g>
<g id="like" display="none">
	<g display="inline">
		<path fill="#333333" d="M63.703,22.886c-2.726-0.716-9.146-0.708-18.53-0.954c0.443-2.048,0.546-3.895,0.546-7.174
			c0-7.832-5.704-14.731-10.753-14.731c-3.566,0-6.506,2.915-6.55,6.497c-0.051,4.396-1.408,11.992-8.732,15.84
			c-0.538,0.284-2.075,1.042-2.297,1.142l0.113,0.097c-1.146-0.989-2.734-1.745-4.366-1.745h-6.55c-3.611,0-6.549,2.938-6.549,6.549
			v34.929c0,3.61,2.938,6.55,6.549,6.55h6.55c2.598,0,4.771-1.566,5.824-3.767c0.025,0.005,0.074,0.018,0.102,0.023
			c0.146,0.036,0.314,0.082,0.522,0.138c0.04,0.005,0.061,0.01,0.102,0.023c1.257,0.31,3.678,0.893,8.853,2.08
			c1.11,0.255,6.967,1.502,13.041,1.502h11.932c3.641,0,6.259-1.4,7.821-4.206c0.023-0.047,0.527-1.026,0.934-2.354
			c0.31-0.998,0.424-2.407,0.051-3.841c2.345-1.608,3.101-4.045,3.593-5.631c0.82-2.603,0.573-4.553,0.002-5.953
			c1.317-1.244,2.443-3.145,2.92-6.038c0.293-1.793-0.023-3.643-0.851-5.178c1.234-1.387,1.801-3.134,1.862-4.751l0.025-0.453
			c0.017-0.292,0.03-0.467,0.03-1.096C69.896,27.625,67.986,24.111,63.703,22.886z M15.315,63.336c0,1.206-0.976,2.182-2.182,2.182
			h-6.55c-1.206,0-2.183-0.976-2.183-2.182V28.407c0-1.207,0.977-2.182,2.183-2.182h6.55c1.206,0,2.182,0.976,2.182,2.182V63.336z
			 M65.481,31.758c-0.047,1.078-0.5,3.199-4.318,3.199c-3.275,0-4.368,0-4.368,0c-0.601,0-1.092,0.486-1.092,1.092
			c0,0.601,0.491,1.091,1.092,1.091c0,0,0.956,0,4.229,0c3.277,0,3.707,2.718,3.494,4.025c-0.268,1.628-1.032,4.706-4.719,4.706
			c-3.686,0-5.188,0-5.188,0c-0.603,0-1.091,0.486-1.091,1.091c0,0.601,0.488,1.091,1.091,1.091c0,0,2.594,0,4.3,0
			c3.684,0,3.36,2.811,2.828,4.489c-0.692,2.205-1.118,4.244-5.759,4.244c-1.572,0-3.564,0-3.564,0
			c-0.604,0-1.091,0.489-1.091,1.095c0,0.602,0.487,1.092,1.091,1.092c0,0,1.515,0,3.426,0c2.385,0,2.5,2.26,2.251,3.069
			c-0.273,0.887-0.596,1.544-0.61,1.571c-0.661,1.188-1.725,1.904-3.976,1.904H41.576c-5.997,0-11.945-1.358-12.098-1.391
			c-9.07-2.09-9.546-2.252-10.114-2.414c0,0-1.849-0.313-1.849-1.923l-0.017-30.154c0-1.022,0.654-1.946,1.733-2.274
			c0.134-0.056,0.317-0.111,0.451-0.167c9.972-4.127,13.009-13.183,13.099-20.621c0.011-1.044,0.818-2.182,2.184-2.182
			c2.307,0,6.387,4.632,6.387,10.365c0,5.177-0.206,6.072-2.022,11.467c21.833,0,21.678,0.314,23.606,0.818
			c2.387,0.679,2.591,2.658,2.591,3.342C65.527,31.135,65.509,31.023,65.481,31.758z M9.859,56.786c-1.809,0-3.275,1.47-3.275,3.277
			s1.467,3.272,3.275,3.272c1.808,0,3.274-1.465,3.274-3.272S11.667,56.786,9.859,56.786z M9.859,61.154
			c-0.602,0-1.092-0.49-1.092-1.091c0-0.602,0.49-1.091,1.092-1.091c0.601,0,1.091,0.489,1.091,1.091
			C10.95,60.664,10.46,61.154,9.859,61.154z"/>
	</g>
</g>
<g id="photo" display="none">
	<g display="inline">
		<path fill="#333333" d="M58.977,0.026H10.949c-4.821,0-8.732,3.909-8.732,8.733v52.395c0,4.821,3.911,8.731,8.732,8.731h48.028
			c4.824,0,8.735-3.91,8.735-8.731V8.759C67.712,3.935,63.801,0.026,58.977,0.026z M63.343,61.154c0,2.403-1.958,4.363-4.366,4.363
			H10.949c-2.406,0-4.366-1.96-4.366-4.363V8.759c0-2.409,1.96-4.367,4.366-4.367h48.028c2.408,0,4.366,1.958,4.366,4.367V61.154z
			 M56.795,8.759H13.131c-1.207,0-2.182,0.975-2.182,2.182v39.298c0,1.207,0.976,2.183,2.182,2.183h43.664
			c1.206,0,2.182-0.976,2.182-2.183V10.941C58.977,9.734,58.001,8.759,56.795,8.759z M13.131,50.239V31.896l8.734-10.039
			l17.608,19.959l1.266,1.438l6.031,6.984H13.131z M56.795,50.239h-7.114l-7.485-8.635l5.866-6.648l8.733,9.56V50.239z
			 M56.795,41.221l-7.097-7.706c-0.415-0.472-1.01-0.739-1.637-0.739c-0.626,0-1.222,0.268-1.639,0.739l-5.681,6.439l-17.24-19.541
			c-0.416-0.47-1.01-0.74-1.637-0.74c-0.629,0-1.223,0.271-1.639,0.74l-7.096,8.183V10.941h43.664V41.221z M43.696,28.407
			c3.617,0,6.548-2.932,6.548-6.549s-2.931-6.55-6.548-6.55c-3.62,0-6.551,2.933-6.551,6.55S40.076,28.407,43.696,28.407z
			 M43.696,17.491c2.406,0,4.365,1.96,4.365,4.366s-1.959,4.367-4.365,4.367c-2.409,0-4.366-1.961-4.366-4.367
			S41.287,17.491,43.696,17.491z"/>
	</g>
</g>
<g id="note" display="none">
	<g display="inline">
		<path fill="#333333" d="M68.615,16.587L55.517,3.489c-0.818-0.821-1.93-1.281-3.089-1.281H6.583c-3.61,0-6.548,2.938-6.548,6.551
			v52.395c0,3.61,2.938,6.55,6.548,6.55h56.762c3.61,0,6.549-2.939,6.549-6.55V19.673C69.894,18.518,69.433,17.406,68.615,16.587z
			 M65.527,61.154c0,1.206-0.976,2.182-2.183,2.182H6.583c-1.207,0-2.182-0.976-2.182-2.182V8.759c0-1.207,0.975-2.185,2.182-2.185
			h43.664v8.732h-0.002c0,3.62,2.932,6.55,6.548,6.55h8.735V61.154z M56.792,19.673c-2.405,0-4.366-1.957-4.366-4.366h0.002V6.575
			l13.1,13.098H56.792z M33.873,17.491h10.914c0.604,0,1.094-0.487,1.094-1.091s-0.49-1.093-1.094-1.093H33.873
			c-0.604,0-1.094,0.49-1.094,1.093S33.269,17.491,33.873,17.491z M33.873,24.039h10.914c0.604,0,1.094-0.487,1.094-1.091
			s-0.49-1.091-1.094-1.091H33.873c-0.604,0-1.094,0.487-1.094,1.091S33.269,24.039,33.873,24.039z M32.779,29.498
			c0,0.606,0.49,1.091,1.094,1.091H60.07c0.603,0,1.091-0.485,1.091-1.091c0-0.601-0.488-1.091-1.091-1.091H33.873
			C33.269,28.407,32.779,28.896,32.779,29.498z M60.07,41.507H9.858c-0.604,0-1.091,0.486-1.091,1.091
			c0,0.602,0.488,1.092,1.091,1.092H60.07c0.603,0,1.091-0.49,1.091-1.092C61.161,41.993,60.673,41.507,60.07,41.507z M60.07,48.053
			H9.858c-0.604,0-1.091,0.485-1.091,1.092c0,0.604,0.488,1.095,1.091,1.095H60.07c0.603,0,1.091-0.49,1.091-1.095
			C61.161,48.538,60.673,48.053,60.07,48.053z M60.07,54.604H9.858c-0.604,0-1.091,0.485-1.091,1.092
			c0,0.601,0.488,1.091,1.091,1.091H60.07c0.603,0,1.091-0.49,1.091-1.091C61.161,55.089,60.673,54.604,60.07,54.604z M60.07,34.957
			H9.858c-0.604,0-1.091,0.486-1.091,1.092c0,0.601,0.488,1.091,1.091,1.091H60.07c0.603,0,1.091-0.49,1.091-1.091
			C61.161,35.442,60.673,34.957,60.07,34.957z M10.949,30.589h15.283c1.206,0,2.181-0.976,2.181-2.182v-13.1
			c0-1.207-0.976-2.182-2.181-2.182H10.949c-1.207,0-2.182,0.975-2.182,2.182v13.1C8.767,29.613,9.742,30.589,10.949,30.589z
			 M13.133,17.491h10.914v8.733H13.133V17.491z"/>
	</g>
</g>
<g id="clock" display="none">
	<g display="inline">
		<path fill="#333333" d="M32.779,24.039c1.207,0,2.183-0.975,2.183-2.182s-0.976-2.185-2.183-2.185
			c-1.206,0-2.182,0.978-2.182,2.185S31.574,24.039,32.779,24.039z M32.779,45.871c-1.206,0-2.182,0.976-2.182,2.182
			c0,1.207,0.976,2.187,2.182,2.187c1.207,0,2.183-0.979,2.183-2.187C34.962,46.847,33.986,45.871,32.779,45.871z M19.683,32.775
			c-1.206,0-2.187,0.976-2.187,2.181c0,1.207,0.98,2.183,2.187,2.183c1.207,0,2.182-0.977,2.182-2.183
			C21.865,33.751,20.89,32.775,19.683,32.775z M43.694,34.957c0,1.207,0.979,2.183,2.187,2.183c1.206,0,2.181-0.977,2.181-2.183
			c0-1.206-0.975-2.181-2.181-2.181C44.674,32.775,43.694,33.751,43.694,34.957z M21.976,42.672c-0.855,0.856-0.855,2.238,0,3.088
			c0.851,0.856,2.233,0.856,3.088,0c0.851-0.85,0.851-2.231,0-3.088C24.209,41.822,22.827,41.822,21.976,42.672z M21.976,24.15
			c-0.855,0.853-0.855,2.232-0.004,3.087c0.855,0.855,2.237,0.855,3.093,0c0.851-0.855,0.851-2.234,0-3.087
			C24.209,23.297,22.827,23.297,21.976,24.15z M40.499,42.672c-0.854,0.856-0.854,2.238,0,3.088c0.855,0.856,2.233,0.856,3.089,0
			c0.851-0.85,0.851-2.231-0.005-3.088C42.732,41.822,41.354,41.822,40.499,42.672z M54.612,30.589c-0.152,0-0.282,0.074-0.43,0.087
			c-0.763-3.809-2.551-7.215-5.016-10.027L46.033,3.595c-0.384-2.068-2.187-3.569-4.291-3.569H24.274c-2.104,0-3.906,1.5-4.29,3.569
			l-3.06,16.48c-3.666,3.904-5.974,9.099-5.974,14.881c0,5.635,2.211,10.707,5.72,14.576l3.083,16.785
			c0.389,2.066,2.191,3.568,4.295,3.568h17.465c2.103,0,3.91-1.502,4.293-3.568l3.111-16.771c2.594-2.862,4.479-6.375,5.266-10.313
			c0.147,0.018,0.277,0.087,0.43,0.087c2.409,0,4.364-1.955,4.364-4.364C58.977,32.544,57.021,30.589,54.612,30.589z M24.274,4.393
			h17.468l2.183,11.76c-3.227-1.875-6.92-3.028-10.914-3.028c-3.999,0-7.692,1.153-10.919,3.028L24.274,4.393z M41.513,65.518
			H24.047l-2.182-11.76c3.222,1.872,6.916,3.028,10.914,3.028c3.999,0,7.692-1.156,10.915-3.028L41.513,65.518z M32.779,52.422
			c-9.629,0-17.464-7.836-17.464-17.465s7.835-17.465,17.464-17.465s17.465,7.836,17.465,17.465S42.408,52.422,32.779,52.422z
			 M43.568,24.097c-0.263-0.264-0.692-0.284-0.988-0.046l-11.335,9.353c-0.416,0.42-0.647,0.976-0.647,1.571
			c0,0.573,0.222,1.12,0.628,1.526c0.412,0.407,0.958,0.633,1.544,0.639c0.546-0.006,1.114-0.209,1.531-0.606l4.031-4.858
			l5.297-6.593C43.86,24.788,43.832,24.363,43.568,24.097z"/>
	</g>
</g>
<g id="paperplane" display="none">
	<g display="inline">
		<path fill="#333333" d="M68.897,0.377c-0.361-0.236-0.774-0.352-1.186-0.352c-0.424,0-0.845,0.12-1.214,0.368L1.005,44.06
			c-0.674,0.443-1.043,1.234-0.958,2.038c0.082,0.81,0.606,1.503,1.359,1.804l17.08,6.831l8.032,14.054
			c0.384,0.675,1.098,1.096,1.875,1.1h0.02c0.765,0,1.48-0.402,1.872-1.058l4.538-7.563l21.162,8.465
			c0.259,0.105,0.535,0.156,0.81,0.156c0.37,0,0.739-0.092,1.069-0.281c0.576-0.323,0.974-0.888,1.085-1.539L69.863,2.568
			C70.006,1.71,69.627,0.851,68.897,0.377z M20.111,50.68L6.88,45.386l50.594-33.732L20.691,51.035
			C20.497,50.92,20.321,50.762,20.111,50.68z M28.364,63.216l-6.085-10.646c-0.005-0.009-0.012-0.014-0.016-0.023L63.617,8.281
			L28.364,63.216z M55.089,64.667L36.44,57.211c-0.444-0.176-0.905-0.235-1.363-0.259l28.717-44.513L55.089,64.667z"/>
	</g>
</g>
<g id="params" display="none">
	<g display="inline">
		<path fill="#333333" d="M17.499,13.172V6.576c0-3.61-2.938-6.551-6.55-6.551c-3.611,0-6.549,2.94-6.549,6.551v6.596
			c-2.637,1.995-4.366,5.125-4.366,8.686c0,3.56,1.729,6.689,4.366,8.681v32.801c0,3.61,2.938,6.545,6.549,6.545
			c3.613,0,6.55-2.935,6.55-6.545V30.54c2.638-1.992,4.366-5.122,4.366-8.681C21.865,18.297,20.137,15.167,17.499,13.172z
			 M8.766,6.576c0-1.207,0.977-2.182,2.183-2.182c1.209,0,2.185,0.975,2.185,2.182v4.583c-0.708-0.141-1.436-0.218-2.185-0.218
			c-0.748,0-1.477,0.077-2.183,0.218V6.576z M13.133,63.341c0,1.206-0.976,2.183-2.185,2.183c-1.207,0-2.183-0.977-2.183-2.183
			V32.553c0.707,0.144,1.436,0.222,2.183,0.222c0.749,0,1.477-0.079,2.185-0.222V63.341z M17.206,23.691
			c-0.035,0.116-0.067,0.231-0.106,0.345c-0.208,0.575-0.476,1.123-0.828,1.608c-0.007,0.011-0.021,0.021-0.028,0.035
			c-0.379,0.52-0.832,0.98-1.345,1.368c-0.009,0.007-0.016,0.012-0.023,0.017c-0.527,0.397-1.112,0.716-1.743,0.938
			c-0.687,0.247-1.415,0.404-2.185,0.404c-0.77,0-1.497-0.157-2.183-0.404c-0.631-0.222-1.217-0.542-1.744-0.938
			c-0.005-0.005-0.013-0.009-0.021-0.017c-0.515-0.388-0.966-0.848-1.345-1.368c-0.008-0.014-0.022-0.023-0.03-0.035
			c-0.352-0.485-0.618-1.033-0.826-1.608c-0.04-0.114-0.073-0.229-0.106-0.345c-0.174-0.584-0.294-1.195-0.294-1.833
			c0-0.645,0.121-1.255,0.294-1.837C4.728,19.905,4.76,19.79,4.8,19.679c0.208-0.576,0.474-1.121,0.826-1.611
			c0.008-0.014,0.022-0.023,0.03-0.035c0.379-0.516,0.831-0.98,1.345-1.368c0.008-0.005,0.015-0.014,0.021-0.019
			c0.527-0.391,1.113-0.712,1.744-0.936c0.687-0.245,1.414-0.402,2.183-0.402c0.77,0,1.498,0.157,2.185,0.402
			c0.631,0.224,1.215,0.545,1.743,0.936c0.007,0.004,0.014,0.014,0.023,0.019c0.513,0.388,0.966,0.853,1.345,1.368
			c0.007,0.011,0.021,0.021,0.028,0.035c0.352,0.49,0.619,1.035,0.828,1.611c0.039,0.111,0.071,0.227,0.106,0.342
			c0.173,0.583,0.293,1.192,0.293,1.837C17.499,22.497,17.379,23.107,17.206,23.691z M65.527,13.172V6.576
			c0-3.61-2.938-6.551-6.551-6.551c-3.61,0-6.549,2.94-6.549,6.551v6.596c-2.637,1.995-4.366,5.125-4.366,8.686
			c0,3.56,1.729,6.689,4.366,8.681v32.801c0,3.61,2.938,6.545,6.549,6.545c3.612,0,6.551-2.935,6.551-6.545V30.54
			c2.64-1.992,4.368-5.122,4.368-8.681C69.896,18.297,68.167,15.167,65.527,13.172z M56.795,6.576c0-1.207,0.975-2.182,2.182-2.182
			c1.209,0,2.185,0.975,2.185,2.182v4.583c-0.705-0.141-1.437-0.218-2.185-0.218c-0.747,0-1.475,0.077-2.182,0.218V6.576z
			 M61.161,63.341c0,1.206-0.976,2.183-2.185,2.183c-1.207,0-2.182-0.977-2.182-2.183V32.553c0.707,0.144,1.435,0.222,2.182,0.222
			c0.748,0,1.479-0.079,2.185-0.222V63.341z M65.233,23.691c-0.034,0.116-0.066,0.231-0.106,0.345
			c-0.206,0.575-0.474,1.123-0.825,1.608c-0.009,0.011-0.023,0.021-0.029,0.035c-0.38,0.52-0.83,0.98-1.346,1.368
			c-0.007,0.007-0.016,0.012-0.021,0.017c-0.526,0.397-1.114,0.716-1.744,0.938c-0.687,0.247-1.413,0.404-2.185,0.404
			c-0.767,0-1.495-0.157-2.182-0.404c-0.632-0.222-1.216-0.542-1.743-0.938c-0.007-0.005-0.014-0.009-0.022-0.017
			c-0.514-0.388-0.967-0.848-1.346-1.368c-0.007-0.014-0.021-0.023-0.027-0.035c-0.352-0.485-0.62-1.033-0.828-1.608
			c-0.039-0.114-0.071-0.229-0.105-0.345c-0.174-0.584-0.295-1.195-0.295-1.833c0-0.645,0.121-1.255,0.295-1.837
			c0.034-0.116,0.066-0.231,0.105-0.342c0.208-0.576,0.477-1.121,0.828-1.611c0.006-0.014,0.021-0.023,0.027-0.035
			c0.379-0.516,0.832-0.98,1.346-1.368c0.009-0.005,0.016-0.014,0.022-0.019c0.527-0.391,1.111-0.712,1.743-0.936
			c0.687-0.245,1.415-0.402,2.182-0.402c0.771,0,1.498,0.157,2.185,0.402c0.63,0.224,1.218,0.545,1.744,0.936
			c0.006,0.004,0.015,0.014,0.021,0.019c0.516,0.388,0.966,0.853,1.346,1.368c0.006,0.011,0.021,0.021,0.029,0.035
			c0.352,0.49,0.619,1.035,0.825,1.611c0.04,0.111,0.072,0.227,0.106,0.342c0.174,0.583,0.294,1.192,0.294,1.837
			C65.527,22.497,65.407,23.107,65.233,23.691z M41.513,39.372V6.576c0-3.61-2.937-6.551-6.549-6.551s-6.548,2.94-6.548,6.551
			v32.796c-2.639,1.997-4.368,5.126-4.368,8.686s1.729,6.689,4.368,8.682v6.602c0,3.61,2.936,6.545,6.548,6.545
			s6.549-2.935,6.549-6.545v-6.602c2.639-1.992,4.368-5.122,4.368-8.682S44.151,41.369,41.513,39.372z M32.779,6.576
			c0-1.207,0.978-2.182,2.185-2.182s2.185,0.975,2.185,2.182v30.78c-0.708-0.139-1.436-0.217-2.185-0.217s-1.477,0.078-2.185,0.217
			V6.576z M37.148,63.341c0,1.206-0.978,2.183-2.185,2.183s-2.185-0.977-2.185-2.183V58.75c0.708,0.144,1.436,0.223,2.185,0.223
			s1.477-0.079,2.185-0.223V63.341z M41.218,49.888c-0.034,0.116-0.067,0.231-0.105,0.348c-0.206,0.577-0.474,1.123-0.825,1.608
			c-0.009,0.014-0.021,0.019-0.028,0.032c-0.381,0.522-0.832,0.98-1.348,1.369c-0.007,0.009-0.013,0.013-0.021,0.018
			c-0.527,0.397-1.114,0.718-1.742,0.938c-0.689,0.245-1.415,0.407-2.185,0.407s-1.495-0.162-2.185-0.407
			c-0.628-0.221-1.216-0.541-1.743-0.938c-0.007-0.005-0.014-0.009-0.023-0.018c-0.513-0.389-0.963-0.847-1.345-1.369
			c-0.006-0.014-0.018-0.019-0.027-0.032c-0.352-0.485-0.619-1.031-0.825-1.608c-0.04-0.116-0.071-0.231-0.109-0.348
			c-0.173-0.581-0.291-1.192-0.291-1.83c0-0.646,0.118-1.253,0.291-1.84c0.038-0.115,0.069-0.231,0.109-0.342
			c0.206-0.573,0.474-1.119,0.825-1.608c0.009-0.015,0.021-0.023,0.027-0.037c0.382-0.514,0.832-0.98,1.345-1.369
			c0.009-0.004,0.017-0.009,0.023-0.014c0.527-0.393,1.114-0.712,1.743-0.938c0.689-0.245,1.415-0.402,2.185-0.402
			s1.495,0.157,2.185,0.402c0.628,0.227,1.215,0.546,1.742,0.938c0.008,0.005,0.014,0.01,0.021,0.014
			c0.516,0.389,0.967,0.855,1.348,1.369c0.007,0.014,0.02,0.022,0.028,0.037c0.352,0.489,0.619,1.035,0.825,1.608
			c0.038,0.11,0.071,0.227,0.105,0.342c0.177,0.587,0.295,1.193,0.295,1.84C41.513,48.695,41.395,49.307,41.218,49.888z"/>
	</g>
</g>
<g id="banknote" display="none">
	<g display="inline">
		<path fill="#333333" d="M68.615,23.137L46.784,1.306c-1.084-1.084-2.651-1.519-4.14-1.151c-0.784,0.192-1.483,0.596-2.036,1.151
			c-0.495,0.495-0.871,1.109-1.084,1.795c-0.99,3.206-2.7,5.994-5.229,8.522c-3.379,3.376-7.78,5.935-12.44,8.64
			c-4.942,2.864-10.047,5.832-14.232,10.015c-3.556,3.56-5.979,7.521-7.396,12.117c-0.479,1.553-0.062,3.23,1.083,4.382
			l21.83,21.828c1.083,1.082,2.653,1.521,4.139,1.151c0.783-0.193,1.484-0.596,2.039-1.151c0.494-0.495,0.869-1.108,1.083-1.798
			c0.99-3.208,2.7-5.996,5.23-8.524c3.377-3.374,7.778-5.931,12.438-8.636c4.939-2.87,10.046-5.838,14.231-10.018
			c3.558-3.559,5.979-7.521,7.396-12.118C70.177,25.963,69.762,24.281,68.615,23.137z M26.232,65.518
			C19,58.288,11.63,50.914,4.398,43.689c6.204-20.088,33.094-19.21,39.296-39.295c7.231,7.225,14.603,14.598,21.833,21.831
			C59.322,46.306,32.433,45.433,26.232,65.518z M42.736,32.553c-0.712-0.597-1.428-0.998-2.148-1.202
			c-0.717-0.199-1.434-0.28-2.157-0.229c-0.716,0.056-1.449,0.215-2.184,0.497c-0.733,0.288-1.471,0.601-2.212,0.958
			c-1.172-1.345-2.347-2.677-3.519-3.914c0.529-0.479,1.042-0.721,1.538-0.737c0.494-0.021,0.971,0.03,1.424,0.146
			c0.457,0.113,0.883,0.212,1.269,0.289c0.392,0.076,0.732-0.009,1.033-0.261c0.315-0.272,0.49-0.626,0.515-1.052
			c0.021-0.432-0.141-0.848-0.499-1.257c-0.46-0.53-1.014-0.849-1.68-0.969c-0.657-0.116-1.332-0.106-2.03,0.046
			c-0.69,0.157-1.348,0.418-1.969,0.786c-0.625,0.365-1.124,0.742-1.493,1.107c-0.144-0.136-0.282-0.268-0.426-0.399
			c-0.157-0.146-0.355-0.222-0.589-0.218c-0.237,0-0.434,0.102-0.596,0.29c-0.16,0.182-0.231,0.397-0.202,0.622
			c0.023,0.236,0.116,0.414,0.278,0.55c0.143,0.12,0.282,0.241,0.425,0.363c-0.557,0.675-1.017,1.421-1.38,2.205
			c-0.367,0.788-0.585,1.566-0.665,2.325c-0.086,0.762-0.005,1.465,0.228,2.112c0.236,0.652,0.666,1.207,1.299,1.729
			c1.027,0.855,2.238,1.216,3.64,1.138c1.398-0.088,2.907-0.504,4.528-1.373c1.291,1.489,2.582,2.968,3.872,4.341
			c-0.546,0.458-1.024,0.726-1.444,0.809c-0.423,0.088-0.8,0.083-1.139-0.022c-0.341-0.107-0.657-0.259-0.946-0.453
			c-0.292-0.204-0.578-0.375-0.862-0.514c-0.282-0.139-0.571-0.217-0.872-0.222c-0.295-0.004-0.612,0.144-0.961,0.438
			c-0.361,0.311-0.539,0.676-0.539,1.083c0,0.406,0.188,0.817,0.555,1.238c0.372,0.416,0.853,0.768,1.435,1.045
			c0.587,0.277,1.244,0.453,1.967,0.499c0.726,0.051,1.488-0.061,2.295-0.36c0.81-0.291,1.611-0.827,2.399-1.618
			c0.384,0.37,0.768,0.726,1.146,1.062c0.162,0.144,0.36,0.213,0.599,0.195c0.229-0.01,0.431-0.115,0.589-0.31
			c0.162-0.195,0.229-0.412,0.204-0.638c-0.023-0.231-0.115-0.407-0.273-0.532c-0.384-0.311-0.767-0.633-1.15-0.972
			c0.651-0.803,1.176-1.649,1.564-2.481c0.386-0.841,0.617-1.651,0.696-2.403c0.073-0.754-0.015-1.434-0.262-2.053
			C43.796,33.607,43.361,33.071,42.736,32.553z M30.533,34.032c-0.617,0.029-1.155-0.175-1.626-0.632
			c-0.202-0.194-0.342-0.426-0.426-0.703c-0.093-0.278-0.12-0.583-0.087-0.916c0.031-0.328,0.129-0.666,0.3-1.012
			c0.162-0.344,0.399-0.691,0.707-1.021c1.105,1.098,2.21,2.307,3.317,3.554C31.883,33.76,31.152,34.01,30.533,34.032z
			 M41.226,37.314c-0.064,0.36-0.195,0.727-0.394,1.091c-0.196,0.36-0.423,0.685-0.688,0.967c-1.22-1.234-2.445-2.594-3.666-3.985
			c0.312-0.143,0.641-0.287,0.994-0.434c0.354-0.153,0.707-0.25,1.062-0.31c0.36-0.056,0.72-0.038,1.078,0.046
			c0.354,0.093,0.691,0.282,1.003,0.587c0.306,0.305,0.504,0.624,0.577,0.971C41.281,36.599,41.283,36.95,41.226,37.314z
			 M32.162,48.446H32.16c-1.366,1.05-2.7,2.153-3.929,3.388c-1.188,1.188-2.261,2.437-3.189,3.712l-1.493,2.039l0.004,0.006
			c-0.273,0.424-0.227,0.998,0.143,1.367c0.428,0.426,1.124,0.426,1.551,0c0.067-0.069,0.118-0.144,0.162-0.217l1.394-1.909
			c0.867-1.184,1.868-2.349,2.973-3.454c1.225-1.22,2.36-2.167,3.742-3.217l-0.004-0.004c0.039-0.029,0.076-0.057,0.111-0.089
			c0.427-0.43,0.427-1.123,0-1.548C33.223,48.118,32.59,48.1,32.162,48.446z M46.319,11.164c-0.43-0.43-1.125-0.43-1.559,0
			c-0.078,0.081-0.138,0.176-0.189,0.268L43.12,13.42c-0.861,1.186-1.862,2.346-2.968,3.448c-1.14,1.145-2.378,2.17-3.661,3.153
			c-0.089,0.051-0.18,0.106-0.257,0.188c-0.431,0.43-0.431,1.13,0,1.56c0.419,0.422,1.095,0.43,1.528,0.03l0.007,0.005
			c1.366-1.05,2.695-2.159,3.927-3.391c1.186-1.186,2.259-2.429,3.19-3.705l1.493-2.045l-0.005-0.004
			C46.745,12.222,46.73,11.573,46.319,11.164z"/>
	</g>
</g>
<g id="data" display="none">
	<g display="inline">
		<path fill="#333333" d="M34.966,0.025c-14.723,0-30.566,4.44-30.566,14.192v41.482c0,9.744,15.843,14.187,30.566,14.187
			c14.72,0,30.562-4.442,30.562-14.187V14.217C65.527,4.465,49.686,0.025,34.966,0.025z M61.163,55.699
			c0,5.422-11.729,9.824-26.197,9.824c-14.474,0-26.2-4.402-26.2-9.824V47.54c4.511,4.65,15.393,7.068,26.2,7.068
			c10.804,0,21.686-2.418,26.197-7.068V55.699z M61.163,42.598h-0.009c0,0.023,0.009,0.047,0.009,0.069
			c0,5.391-11.732,9.755-26.197,9.755c-14.469,0-26.2-4.364-26.2-9.755c0-0.022,0.009-0.046,0.009-0.069H8.766v-8.154
			c4.511,4.646,15.393,7.063,26.2,7.063c10.804,0,21.686-2.417,26.197-7.063V42.598z M61.163,29.5h-0.009
			c0,0.021,0.009,0.046,0.009,0.067c0,5.389-11.732,9.759-26.197,9.759c-14.469,0-26.2-4.37-26.2-9.759
			c0-0.021,0.009-0.046,0.009-0.067H8.766V22c5.722,4.357,16.21,6.407,26.2,6.407c9.985,0,20.475-2.05,26.197-6.407V29.5z
			 M34.966,24.041c-14.474,0-26.2-4.401-26.2-9.823c0-5.427,11.727-9.823,26.2-9.823c14.469,0,26.197,4.396,26.197,9.823
			C61.163,19.64,49.435,24.041,34.966,24.041z M54.612,58.973c1.207,0,2.183-0.976,2.183-2.183c0-1.206-0.976-2.182-2.183-2.182
			c-1.206,0-2.182,0.976-2.182,2.182C52.431,57.997,53.406,58.973,54.612,58.973z M54.612,45.871c1.207,0,2.183-0.976,2.183-2.182
			s-0.976-2.183-2.183-2.183c-1.206,0-2.182,0.977-2.182,2.183S53.406,45.871,54.612,45.871z M54.612,32.775
			c1.207,0,2.183-0.976,2.183-2.185c0-1.207-0.976-2.184-2.183-2.184c-1.206,0-2.182,0.978-2.182,2.184
			C52.431,31.8,53.406,32.775,54.612,32.775z"/>
	</g>
</g>
<g id="music" display="none">
	<g display="inline">
		<path fill="#333333" d="M68.333,1.049c-0.79-0.666-1.784-1.024-2.806-1.024c-0.25,0-0.505,0.023-0.759,0.069L27.652,6.646
			c-2.089,0.365-3.605,2.177-3.605,4.296v37.486c-2.214-1.608-5.09-2.557-8.284-2.557c-1.854,0-3.712,0.31-5.523,0.911
			c-4.142,1.382-7.463,4.15-9.114,7.604c-1.276,2.672-1.439,5.574-0.466,8.182c1.659,4.447,6.381,7.317,12.024,7.317
			c1.854,0,3.712-0.3,5.52-0.905c4.142-1.378,7.461-4.151,9.111-7.6c0.712-1.489,1.045-3.047,1.059-4.591h0.037V21.858
			c0.25,0,0.508-0.023,0.758-0.064l36.358-6.417v26.5c-2.215-1.608-5.085-2.551-8.284-2.551c-1.854,0-3.707,0.304-5.52,0.905
			c-4.143,1.383-7.466,4.156-9.111,7.609c-1.276,2.667-1.442,5.57-0.468,8.177c1.66,4.448,6.376,7.323,12.02,7.323
			c1.854,0,3.717-0.305,5.524-0.911c4.142-1.378,7.461-4.146,9.112-7.6c0.711-1.483,1.043-3.047,1.058-4.591h0.037V4.394
			C69.896,3.104,69.321,1.877,68.333,1.049z M16.817,64.839c-5.231,1.747-10.638,0.041-12.071-3.8
			c-1.438-3.842,1.639-8.368,6.869-10.11c5.234-1.747,10.638-0.047,12.071,3.795C25.125,58.565,22.05,63.096,16.817,64.839z
			 M65.443,10.942l-37.12,6.551v-6.551l37.12-6.548V10.942z M58.219,58.288c-5.229,1.747-10.638,0.042-12.07-3.796
			c-1.438-3.842,1.637-8.371,6.869-10.114c5.232-1.747,10.638-0.041,12.07,3.8C66.525,52.02,63.451,56.546,58.219,58.288z"/>
	</g>
</g>
<g id="megaphone" display="none">
	<g display="inline">
		<path fill="#333333" d="M54.612,0.025c-4.48,0-8.002,3.079-10.532,7.831l-0.046-0.027c-3.674,7.191-9.14,11.846-15.128,11.846
			H8.767c-4.897,0-8.732,4.798-8.732,10.917c0,6.123,3.834,10.916,8.732,10.916c2.406,0.01,4.355,1.956,4.355,4.364v19.652
			c0,2.412,1.956,4.362,4.366,4.362h8.732c2.411,0,4.366-1.95,4.366-4.362v-2.183c0-2.187-2.181-3.163-2.181-4.368V43.689
			c0-0.051,0.032-0.083,0.037-0.134c0.023-0.315,0.107-0.602,0.245-0.865c0.039-0.069,0.081-0.124,0.129-0.189
			c0.173-0.259,0.393-0.476,0.663-0.638c0.012-0.009,0.017-0.023,0.029-0.032c0.009,0,0.015-0.009,0.025-0.009
			c0.173-0.098,0.383-0.12,0.577-0.177c5.513,0.588,10.5,5.034,13.924,11.732l0.057-0.027c2.529,4.733,6.045,7.804,10.521,7.804
			c10.032,0,15.281-15.376,15.281-30.563C69.894,15.403,64.645,0.025,54.612,0.025z M8.767,37.14c-2.413,0-4.369-2.926-4.369-6.549
			c0-3.617,1.956-6.55,4.369-6.55h15.311c-1.354,1.59-2.212,3.902-2.212,6.55c0,2.651,0.857,4.963,2.212,6.549H8.767z M26.22,65.523
			h-8.732V45.871c0-1.59-0.425-3.073-1.171-4.364h1.523v0.028h6.567c-0.234,0.675-0.368,1.396-0.368,2.154v15.283
			c0,2.103,1.174,3.499,1.874,4.335c0.098,0.116,0.211,0.236,0.308,0.366V65.523z M28.906,37.167h-0.493V37.14
			c-2.411,0-4.366-2.926-4.366-6.549c0-3.617,1.955-6.55,4.366-6.55h0.493c4.117,0,7.974-1.62,11.367-4.403
			c-0.625,3.513-0.943,7.235-0.943,10.954c0,3.732,0.318,7.468,0.945,10.985C36.885,38.785,33.025,37.167,28.906,37.167z
			 M44.055,37.14c-0.227-2.094-0.358-4.281-0.358-6.549c0-2.265,0.132-4.452,0.358-6.55h6.191c2.411,0,4.366,2.933,4.366,6.55
			c0,3.623-1.955,6.549-4.366,6.549H44.055z M54.612,56.79c-4.405,0-8.186-6.269-9.915-15.283h5.549
			c4.896,0,8.732-4.793,8.732-10.916c0-6.118-3.837-10.917-8.732-10.917h-5.549c1.729-9.01,5.51-15.28,9.915-15.28
			c6.028,0,10.915,11.73,10.915,26.197S60.641,56.79,54.612,56.79z"/>
	</g>
</g>
<g id="study" display="none">
	<g display="inline">
		<path fill="#333333" d="M69.896,17.491c0-3.072-2.089-5.695-5.076-6.384L36.408,4.552c-0.476-0.106-0.961-0.16-1.444-0.16
			s-0.969,0.053-1.473,0.165l-28.378,6.55c-2.99,0.689-5.078,3.312-5.078,6.384c0,3.069,2.088,5.693,5.075,6.382l5.84,1.348v18.469
			c0,5.792,6.63,10.914,24.014,10.914s24.015-5.122,24.015-10.914V25.221l5.837-1.348C67.807,23.184,69.896,20.561,69.896,17.491z
			 M54.612,43.689c0,2.413-6.551,6.546-19.648,6.546c-13.099,0-19.649-4.133-19.649-6.546v-17.46l18.204,4.202
			c0.477,0.106,0.962,0.158,1.445,0.158s0.969-0.051,1.473-0.167l18.176-4.193V43.689z M63.835,19.618l-28.379,6.551
			c-0.162,0.033-0.328,0.056-0.492,0.056s-0.331-0.023-0.492-0.056L6.091,19.618c-0.989-0.229-1.69-1.11-1.69-2.126
			c0-1.017,0.702-1.9,1.69-2.128l28.381-6.548c0.161-0.037,0.328-0.055,0.492-0.055s0.33,0.018,0.492,0.055l28.379,6.548
			c0.991,0.229,1.692,1.111,1.692,2.128C65.527,18.508,64.826,19.389,63.835,19.618z M63.345,28.407v19.646
			c0,1.207,0.978,2.183,2.183,2.183c1.207,0,2.185-0.976,2.185-2.183V28.407c0-1.207-0.978-2.182-2.185-2.182
			C64.322,26.225,63.345,27.2,63.345,28.407z M65.527,52.422c-2.409,0-4.364,6.319-4.364,8.732c0,2.408,1.955,4.363,4.364,4.363
			c2.412,0,4.368-1.955,4.368-4.363C69.896,58.741,67.939,52.422,65.527,52.422z"/>
	</g>
</g>
<g id="lab">
	<g>
		<path fill="#333333" d="M45.185,8.175c-1.03-1.033-2.401-1.599-3.857-1.599c-1.461,0-2.829,0.566-3.862,1.602l-3.082,3.081
			c-1.033,1.031-1.601,2.401-1.604,3.862c0,1.029,0.282,2.014,0.812,2.869L3.951,29.86c-1.982,0.874-3.404,2.66-3.804,4.783
			c-0.403,2.13,0.273,4.317,1.822,5.866l27.769,27.464c1.197,1.192,2.788,1.877,4.465,1.913h0.167c0.443,0,0.887-0.041,1.333-0.133
			c2.168-0.449,3.948-1.952,4.752-3.995l11.661-29.197c0.883,0.573,1.909,0.889,2.989,0.889c1.458,0,2.831-0.568,3.856-1.604
			l3.075-3.069c1.04-1.036,1.613-2.409,1.613-3.875c0-1.463-0.573-2.835-1.6-3.857L45.185,8.175z M36.398,64.14
			c-0.268,0.685-0.863,1.188-1.582,1.337c-0.167,0.036-0.335,0.051-0.502,0.047c-0.552-0.015-1.085-0.236-1.488-0.639L5.04,37.402
			c-0.511-0.509-0.736-1.239-0.601-1.946c0.133-0.708,0.609-1.309,1.269-1.595l13.573-5.439c9.147,3.04,18.292,0.111,27.441,9.872
			L36.398,64.14z M58.962,29.673l-3.088,3.088c-0.425,0.426-1.114,0.426-1.541,0l-3.857-3.86l-3.13,7.836l0.264-0.661
			c-6.573-6.56-13.253-7.387-19.276-8.127c-1.937-0.238-3.814-0.485-5.659-0.885l18.537-7.427l-3.744-3.742
			c-0.426-0.428-0.426-1.119,0-1.544l3.088-3.09c0.426-0.425,1.116-0.425,1.544,0l16.863,16.868
			C59.39,28.557,59.39,29.248,58.962,29.673z M36.055,34.957c-3.006,0-5.457,2.451-5.457,5.46c0,3.009,2.451,5.454,5.457,5.454
			c3.01,0,5.458-2.445,5.458-5.454C41.513,37.407,39.064,34.957,36.055,34.957z M36.055,43.689c-1.81,0-3.275-1.465-3.275-3.272
			c0-1.809,1.465-3.277,3.275-3.277c1.81,0,3.275,1.469,3.275,3.277C39.33,42.225,37.864,43.689,36.055,43.689z M64.437,0.025
			c-3.01,0-5.46,2.448-5.46,5.459c0,3.009,2.45,5.457,5.46,5.457c3.009,0,5.459-2.448,5.459-5.457
			C69.896,2.473,67.445,0.025,64.437,0.025z M64.437,8.76c-1.808,0-3.275-1.468-3.275-3.275c0-1.807,1.468-3.275,3.275-3.275
			c1.807,0,3.275,1.468,3.275,3.275C67.712,7.292,66.243,8.76,64.437,8.76z M21.865,32.775c-2.409,0-4.366,1.959-4.366,4.364
			c0,2.408,1.958,4.367,4.366,4.367s4.367-1.959,4.367-4.367C26.232,34.735,24.274,32.775,21.865,32.775z M21.865,39.326
			c-1.206,0-2.182-0.981-2.182-2.187c0-1.208,0.976-2.183,2.182-2.183c1.207,0,2.182,0.976,2.182,2.183
			C24.047,38.345,23.072,39.326,21.865,39.326z M28.416,48.058c-1.206,0-2.184,0.976-2.184,2.182c0,1.207,0.978,2.183,2.184,2.183
			c1.205,0,2.182-0.976,2.182-2.183C30.598,49.033,29.62,48.058,28.416,48.058z M63.345,15.308c-1.206,0-2.184,0.978-2.184,2.185
			c0,1.206,0.978,2.182,2.184,2.182c1.207,0,2.183-0.976,2.183-2.182C65.527,16.286,64.552,15.308,63.345,15.308z"/>
	</g>
</g>
<g id="food" display="none">
	<g display="inline">
		<path fill="#333333" d="M64.437,45.853h-5.876c-0.098-0.527-0.22-1.035-0.349-1.544l10.475-5.252
			c1.079-0.54,1.517-1.854,0.976-2.935c-0.539-1.077-1.847-1.512-2.928-0.976l-9.993,5.006
			c-3.816-8.242-12.132-13.988-21.777-13.988c-11.749,0-21.535,8.506-23.599,19.688H5.491c-3.009,0-5.458,2.451-5.458,5.47
			c0,1.072,0.392,2.103,1.104,2.907l7.627,8.598v1.618c0,3.019,2.45,5.469,5.459,5.469h41.479c3.01,0,5.458-2.45,5.458-5.469v-1.618
			l7.629-8.598c0.71-0.805,1.104-1.835,1.104-2.907C69.894,48.304,67.445,45.853,64.437,45.853z M56.217,45.303
			c0.041,0.185,0.102,0.365,0.136,0.55h-1.227L56.217,45.303z M34.964,28.351c8.794,0,16.371,5.251,19.827,12.778l-1.944,0.976
			C49.759,35.29,42.92,30.54,34.964,30.54c-9.349,0-17.157,6.548-19.145,15.313h-2.247C15.602,35.881,24.421,28.351,34.964,28.351z
			 M34.964,39.288c-4.464,0-8.3,2.709-9.992,6.564h-2.344c1.803-5.09,6.645-8.751,12.336-8.751c5.384,0,10.016,3.273,12.025,7.933
			l-1.626,0.818h-0.409C43.264,41.997,39.427,39.288,34.964,39.288z M42.479,45.853h-2.671c-1.2-1.331-2.92-2.187-4.845-2.187
			c-1.93,0-3.647,0.855-4.847,2.187h-2.672c1.517-2.603,4.302-4.378,7.519-4.378C38.179,41.475,40.967,43.25,42.479,45.853z
			 M34.964,34.915c-6.909,0-12.754,4.618-14.638,10.938h-2.253c1.949-7.535,8.771-13.124,16.892-13.124
			c7.089,0,13.19,4.263,15.925,10.355L48.94,44.06C46.564,38.684,41.197,34.915,34.964,34.915z M56.795,61.163v3.282
			c0,0.606-0.487,1.096-1.092,1.096H14.224c-0.605,0-1.091-0.489-1.091-1.096v-3.282l-8.734-9.841c0-0.606,0.488-1.096,1.092-1.096
			h58.945c0.603,0,1.091,0.489,1.091,1.096L56.795,61.163z M17.446,25.534c0.01,0.012,0.01,0.025,0.019,0.037c0,0,0.002,0,0.004,0
			c0.182,0.354,0.545,0.594,0.966,0.594c0.605,0,1.096-0.495,1.096-1.101c0-0.095-0.015-0.185-0.038-0.272
			c0.005-0.016,0.005-0.028,0-0.043c-0.818-1.928-0.042-4.045,0.915-6.324c1.031-2.464,2.141-5.198,0.92-7.979
			c-0.155-0.402-0.541-0.686-0.996-0.686c-0.59,0-1.07,0.48-1.07,1.072c0,0.129,0.028,0.254,0.069,0.37c0,0.004,0,0.007,0.004,0.012
			c0,0.007,0.005,0.014,0.005,0.021c0.005,0.006,0.009,0.016,0.009,0.025c0.883,1.987,0.03,4.026-0.932,6.326
			c-1.019,2.427-2.145,5.118-1.01,7.856C17.42,25.474,17.432,25.503,17.446,25.534z M44.036,25.215
			c0.004,0.014,0.009,0.027,0.017,0.039h0.002c0.186,0.349,0.546,0.592,0.968,0.592c0.606,0,1.099-0.495,1.099-1.098
			c0-0.095-0.019-0.19-0.037-0.275c0.002-0.016,0.002-0.028-0.003-0.044c-0.815-1.927-0.041-4.045,0.913-6.324
			c1.036-2.463,2.144-5.195,0.925-7.978c-0.157-0.402-0.546-0.685-0.999-0.685c-0.592,0-1.067,0.479-1.067,1.072
			c0,0.129,0.022,0.252,0.067,0.368c0.002,0.005,0.002,0.009,0.002,0.014c0.005,0.007,0.005,0.012,0.01,0.019
			c0.004,0.01,0.007,0.016,0.009,0.025c0.881,1.99,0.027,4.029-0.934,6.329c-1.018,2.425-2.146,5.115-1.008,7.856
			C44.009,25.157,44.02,25.187,44.036,25.215z M32.821,15.775c0.005,0.014,0.009,0.025,0.016,0.04h0.002
			c0.186,0.351,0.546,0.591,0.971,0.591c0.606,0,1.096-0.492,1.096-1.1c0-0.093-0.013-0.186-0.037-0.273
			c0.004-0.014,0.004-0.028,0-0.042c-0.821-1.93-0.042-4.047,0.913-6.326c1.034-2.462,2.141-5.198,0.922-7.979
			C36.548,0.284,36.158,0,35.705,0c-0.586,0-1.067,0.48-1.067,1.072c0,0.132,0.027,0.254,0.067,0.37
			c0.002,0.005,0.002,0.01,0.004,0.012c0.003,0.007,0.003,0.014,0.007,0.021c0.005,0.007,0.005,0.017,0.009,0.025
			c0.883,1.988,0.03,4.026-0.934,6.326c-1.016,2.427-2.145,5.118-1.007,7.856C32.793,15.715,32.807,15.745,32.821,15.775z"/>
	</g>
</g>
<g id="t-shirt" display="none">
	<g display="inline">
		<path fill="#333333" d="M68.259,14.082L57.34,5.35c-0.776-0.622-1.737-0.957-2.728-0.957H15.315c-0.989,0-1.951,0.335-2.728,0.957
			L1.672,14.082c-1.428,1.142-1.993,3.056-1.415,4.789l4.366,13.1c0.433,1.289,1.44,2.307,2.728,2.746
			c0.46,0.162,0.938,0.24,1.415,0.24c0.76,0,1.514-0.198,2.184-0.586v26.784c0,2.408,1.957,4.363,4.365,4.363h39.297
			c2.414,0,4.364-1.955,4.364-4.363V34.37c0.67,0.388,1.429,0.586,2.187,0.586c0.477,0,0.952-0.078,1.415-0.24
			c1.289-0.439,2.297-1.457,2.727-2.746l4.364-13.1C70.246,17.138,69.688,15.224,68.259,14.082z M43.157,8.759
			c-1.202,2.533-4.4,4.366-8.191,4.366c-3.791,0-6.994-1.833-8.196-4.366H43.157z M61.163,30.589l-6.551-4.364v34.93H15.315v-34.93
			l-6.549,4.364L4.399,17.491l10.916-8.732h9.121c1.215,3.758,5.45,6.548,10.53,6.548c5.081,0,9.311-2.79,10.526-6.548h9.12
			l10.915,8.732L61.163,30.589z"/>
	</g>
</g>
<g id="fire" display="none">
	<g display="inline">
		<path fill="#333333" d="M48.053,19.674c-0.137,5.841-4.519,10.771-4.519,10.771c0-10.861-8.58-19.503-8.58-19.503
			s-0.116,6.467-4.458,12.985C26.15,8.718,13.112,0.025,13.112,0.025c6.518,23.902-2.17,32.597-2.17,49.979
			c0,10.197,8.628,19.882,21.83,19.882c19.555,0,23.336-7.174,25.358-15.264C60.913,43.486,56.744,30.538,48.053,19.674z
			 M53.896,53.563c-1.403,5.603-2.989,11.96-21.125,11.96c-10.932,0-17.464-7.893-17.464-15.52c0-5.843,1.065-10.642,2.191-15.717
			c1.433-6.439,2.899-13.029,2.263-21.748c6.732,9.319,9.13,21.669,9.13,21.669s6.269-8.802,7.953-12.89
			c1.291,2.63,2.476,11.458,2.476,20.189c0,0,5.8-4.775,10.149-11.958C54.048,37.764,55.699,46.348,53.896,53.563z M48.996,36.695
			l-1.854,2.149c-2.3,2.681-4.473,5.219-10.281,8.145c-0.832-2.491-1.586-5.236-1.586-9.438v-3.73l-3.314,5.19
			c-1.116,1.771-2.041,3.236-3.423,5.188c-2.095-4.72-3.574-8.21-4.7-11.377l-1.044-2.949l-1.135,3.296
			c-1.44,4.193-2.806,8.155-2.806,18.434c0,0.606,0.487,1.092,1.093,1.092c0.601,0,1.09-0.485,1.09-1.092
			c0-7.876,0.784-11.777,1.833-15.152c1.134,2.885,2.567,6.167,4.446,10.369l0.768,1.715l1.109-1.512
			c1.813-2.469,2.892-4.128,4.073-5.991c0.344,3.23,1.142,5.547,1.93,7.835l0.398,1.156l1.104-0.522
			c5.9-2.806,8.664-5.358,10.856-7.804c0.34,4.069-0.196,8.521-1.472,11.682c-0.227,0.561,0.046,1.198,0.605,1.42
			c0.132,0.055,0.272,0.083,0.409,0.083c0.43,0,0.841-0.259,1.01-0.684c1.694-4.202,2.2-10.185,1.292-15.246L48.996,36.695z"/>
	</g>
</g>
<g id="world" display="none">
	<g display="inline">
		<path fill="#222821" d="M34.964,1.116c-18.69,0-33.838,15.151-33.838,33.84c0,18.691,15.148,33.838,33.838,33.838
			c18.689,0,33.839-15.147,33.839-33.838C68.803,16.268,53.653,1.116,34.964,1.116z M30.124,5.917
			c-3.384,3.379-6.169,7.542-8.16,12.252c-2.694-1.123-5.196-2.609-7.479-4.364C18.692,9.733,24.1,6.917,30.124,5.917z
			 M12.988,15.384c2.487,1.933,5.209,3.567,8.154,4.796c-1.525,4.228-2.385,8.848-2.505,13.686H5.547
			C5.808,26.779,8.57,20.342,12.988,15.384z M5.547,36.049h13.089c0.139,5.579,1.302,10.844,3.282,15.583
			c-2.764,1.076-5.344,2.515-7.725,4.211C9.067,50.743,5.833,43.769,5.547,36.049z M15.835,57.336
			c2.152-1.493,4.477-2.755,6.959-3.712c1.905,3.947,4.397,7.451,7.33,10.373C24.727,63.101,19.822,60.747,15.835,57.336z
			 M33.873,64.376c-0.04-0.005-0.076-0.005-0.116-0.009c-3.628-3.019-6.67-6.943-8.898-11.501c2.857-0.893,5.887-1.378,9.014-1.48
			V64.376z M33.873,49.205c-3.444,0.102-6.772,0.665-9.909,1.677c-1.894-4.502-3.007-9.519-3.144-14.833h13.053V49.205z
			 M33.873,33.866H20.82c0.118-4.572,0.927-8.94,2.367-12.935c3.366,1.169,6.953,1.849,10.686,1.962V33.866z M33.873,20.71
			c-3.444-0.111-6.752-0.726-9.863-1.792c2.272-5.355,5.632-9.945,9.75-13.374c0.039-0.002,0.073-0.005,0.113-0.007V20.71z
			 M64.38,33.866H51.291c-0.12-4.838-0.979-9.458-2.505-13.686c2.944-1.229,5.67-2.863,8.154-4.796
			C61.357,20.342,64.122,26.779,64.38,33.866z M55.444,13.806c-2.285,1.754-4.784,3.241-7.481,4.364
			c-1.99-4.71-4.775-8.873-8.159-12.252C45.829,6.917,51.238,9.733,55.444,13.806z M36.055,5.538
			c0.04,0.002,0.076,0.005,0.113,0.007c4.116,3.428,7.477,8.018,9.749,13.374c-3.108,1.066-6.418,1.68-9.862,1.792V5.538z
			 M36.055,22.894c3.732-0.113,7.32-0.793,10.686-1.962c1.439,3.994,2.248,8.363,2.366,12.935H36.055V22.894z M36.055,36.049h13.052
			c-0.136,5.314-1.25,10.331-3.141,14.833c-3.139-1.012-6.467-1.575-9.911-1.677V36.049z M36.171,64.367
			c-0.038,0.004-0.076,0.004-0.116,0.009v-12.99c3.13,0.103,6.157,0.588,9.014,1.48C42.841,57.424,39.8,61.349,36.171,64.367z
			 M39.804,63.997c2.933-2.922,5.425-6.426,7.329-10.373c2.485,0.957,4.809,2.219,6.96,3.712
			C50.105,60.747,45.201,63.101,39.804,63.997z M55.733,55.843c-2.378-1.696-4.959-3.135-7.725-4.211
			c1.981-4.739,3.146-10.004,3.282-15.583H64.38C64.096,43.769,60.86,50.743,55.733,55.843z"/>
	</g>
</g>
<g id="truck" display="none">
	<g display="inline">
		<path fill="#222821" d="M54.245,25.012c-0.404-0.607-1.086-0.971-1.817-0.971h-2.182c-1.206,0-2.185,0.975-2.185,2.183V39.32
			c0,1.207,0.979,2.187,2.185,2.187h8.732c1.207,0,2.183-0.979,2.183-2.187v-3.271c0-0.431-0.127-0.852-0.366-1.212L54.245,25.012z
			 M58.979,39.32h-8.732V26.225h2.182l6.551,9.824V39.32z M68.793,33.505l-8.732-13.097c-1.219-1.829-3.257-2.917-5.448-2.917
			h-8.731v-4.366c0-3.61-2.938-6.55-6.551-6.55H6.583c-3.61,0-6.548,2.94-6.548,6.55V37.14c0,3.61,2.938,6.55,6.548,6.55v6.55
			c0,3.61,2.938,6.547,6.551,6.547h2.492c0.975,3.758,4.363,6.55,8.422,6.55c4.056,0,7.445-2.792,8.422-6.55h11.534
			c0.976,3.758,4.365,6.55,8.424,6.55c4.055,0,7.446-2.792,8.424-6.55h2.493c3.61,0,6.549-2.937,6.549-6.547v-13.1
			C69.894,35.845,69.515,34.587,68.793,33.505z M6.583,39.32c-1.207,0-2.182-0.976-2.182-2.181V13.125
			c0-1.206,0.975-2.184,2.182-2.184H39.33c1.207,0,2.185,0.978,2.185,2.184V37.14c0,1.205-0.978,2.181-2.185,2.181H6.583z
			 M24.047,58.973c-2.413,0-4.366-1.956-4.366-4.369c0-2.409,1.953-4.364,4.366-4.364c2.411,0,4.366,1.955,4.366,4.364
			C28.413,57.017,26.458,58.973,24.047,58.973z M52.428,58.973c-2.412,0-4.366-1.956-4.366-4.369c0-2.409,1.954-4.364,4.366-4.364
			c2.409,0,4.367,1.955,4.367,4.364C56.795,57.017,54.837,58.973,52.428,58.973z M65.527,50.239c0,1.207-0.976,2.183-2.183,2.183
			h-2.493c-0.978-3.758-4.369-6.551-8.424-6.551c-4.059,0-7.448,2.793-8.424,6.551H32.47c-0.978-3.758-4.366-6.551-8.422-6.551
			c-4.059,0-7.447,2.793-8.422,6.551h-2.492c-1.207,0-2.185-0.976-2.185-2.183v-6.55H39.33c3.612,0,6.551-2.939,6.551-6.55V21.857
			h8.731c0.729,0,1.411,0.365,1.817,0.973l8.731,13.098c0.238,0.361,0.366,0.781,0.366,1.211V50.239z"/>
	</g>
</g>
<g id="vinyl" display="none">
	<g display="inline">
		<path fill="#222821" d="M47.947,2.53C30.039-4.643,9.709,4.06,2.537,21.971c-7.172,17.909,1.533,38.24,19.439,45.415
			c17.913,7.17,38.244-1.535,45.414-19.443C74.564,30.029,65.855,9.7,47.947,2.53z M63.341,46.315
			c-6.269,15.647-24.095,23.275-39.738,17.011C7.957,57.062,0.327,39.242,6.588,23.593C12.855,7.948,30.681,0.316,46.324,6.583
			C61.972,12.848,69.604,30.672,63.341,46.315z M36.588,30.903c-2.236-0.896-4.779,0.194-5.681,2.427
			c-0.892,2.242,0.195,4.779,2.431,5.681c2.238,0.897,4.785-0.194,5.677-2.431C39.912,34.343,38.826,31.8,36.588,30.903z
			 M36.99,35.771c-0.448,1.114-1.724,1.66-2.842,1.211c-1.114-0.448-1.655-1.719-1.211-2.838c0.448-1.118,1.719-1.659,2.838-1.215
			C36.894,33.376,37.439,34.647,36.99,35.771z M47.124,39.825c2.69-6.717-0.573-14.339-7.29-17.027
			c-6.716-2.693-14.339,0.573-17.03,7.291c-2.69,6.712,0.573,14.335,7.29,17.026C36.811,49.806,44.434,46.541,47.124,39.825z
			 M43.074,38.202c-1.793,4.47-6.888,6.651-11.353,4.858c-4.475-1.788-6.652-6.883-4.863-11.354
			c1.789-4.47,6.883-6.646,11.354-4.858C42.682,28.638,44.859,33.731,43.074,38.202z M51.179,41.447
			c0.222-0.56-0.052-1.192-0.606-1.419c-0.564-0.222-1.197,0.051-1.424,0.605c-1.571,3.92-4.577,6.832-8.173,8.371
			c-0.55,0.236-0.809,0.879-0.573,1.429c0.24,0.56,0.883,0.814,1.433,0.578c0.019-0.01,0.027-0.022,0.047-0.032
			C45.973,49.209,49.395,45.898,51.179,41.447z M44.415,57.03c-0.555,0.24-0.813,0.883-0.573,1.433
			c0.236,0.556,0.879,0.814,1.433,0.579c0.023-0.015,0.047-0.038,0.069-0.057c6.135-2.644,11.266-7.613,13.938-14.292
			c0.226-0.561-0.047-1.198-0.606-1.42c-0.559-0.223-1.197,0.051-1.418,0.609C54.793,50.037,50.064,54.612,44.415,57.03z
			 M55.228,43.074c0.227-0.563-0.047-1.197-0.605-1.424c-0.56-0.222-1.193,0.046-1.419,0.61c-2.016,5.034-5.885,8.779-10.507,10.757
			c-0.556,0.24-0.811,0.883-0.574,1.434c0.235,0.555,0.878,0.813,1.434,0.578c0.022-0.015,0.036-0.033,0.06-0.047
			C48.723,52.777,52.999,48.636,55.228,43.074z M28.952,20.907c0.55-0.238,0.809-0.878,0.573-1.433
			c-0.24-0.56-0.879-0.812-1.433-0.571c-0.019,0.004-0.032,0.02-0.047,0.03c-4.091,1.764-7.511,5.083-9.291,9.533H18.75
			c-0.222,0.559,0.046,1.188,0.61,1.415c0.559,0.222,1.193-0.051,1.419-0.605C22.346,25.359,25.356,22.444,28.952,20.907z
			 M25.517,12.877c0.551-0.238,0.81-0.875,0.569-1.43c-0.236-0.557-0.879-0.809-1.433-0.573c-0.023,0.009-0.046,0.034-0.065,0.046
			c-6.139,2.648-11.265,7.621-13.94,14.293c-0.227,0.562,0.046,1.196,0.605,1.423c0.562,0.222,1.191-0.046,1.418-0.609
			C15.139,19.87,19.864,15.3,25.517,12.877z M27.232,16.895V16.89c0.551-0.236,0.813-0.874,0.573-1.433
			c-0.24-0.55-0.878-0.809-1.433-0.571c-0.023,0.009-0.033,0.03-0.055,0.04c-5.113,2.208-9.389,6.352-11.617,11.918
			c-0.227,0.555,0.051,1.193,0.605,1.419c0.56,0.221,1.197-0.046,1.424-0.611C18.74,22.615,22.61,18.874,27.232,16.895z"/>
	</g>
</g>
<g id="wallet" display="none">
	<g display="inline">
		<path fill="#333333" d="M39.33,38.229c-2.413,0-4.366,1.956-4.366,4.368c0,2.414,1.953,4.364,4.366,4.364
			c2.41,0,4.366-1.95,4.366-4.364C43.696,40.186,41.74,38.229,39.33,38.229z M63.348,27.316c-0.003,0-0.003,0-0.003,0V7.667
			c0-3.618-2.934-6.551-6.55-6.551H12.042c-6.622,0-12.009,5.388-12.009,12.008V56.79c0,6.62,5.387,12.005,12.009,12.005h39.293
			c6.622,0,12.01-5.385,12.01-12.005v-3.277c0,0,0,0,0.003,0C72.077,46.962,72.077,33.866,63.348,27.316z M12.042,5.483h44.753
			c1.202,0,2.182,0.979,2.182,2.184v13.5c-0.685-0.245-1.413-0.402-2.182-0.402V9.849c0-1.206-0.98-2.182-2.185-2.182H8.765
			c-1.205,0-2.183,0.976-2.183,2.182v8.61c-1.346-1.377-2.182-3.254-2.182-5.334C4.399,8.906,7.821,5.483,12.042,5.483z
			 M8.765,16.399v-2.182H54.61v2.182H8.765z M54.61,18.583v2.182H12.042c-1.18,0-2.28-0.287-3.277-0.763v-1.419H54.61z
			 M8.765,12.033V9.849H54.61v2.184H8.765z M58.977,56.79c0,4.216-3.421,7.642-7.642,7.642H12.042c-4.221,0-7.643-3.426-7.643-7.642
			V22.378c2.078,1.72,4.741,2.753,7.643,2.753h44.753c1.202,0,2.182,0.98,2.182,2.185v4.369H39.33
			c-6.028,0-10.915,4.886-10.915,10.913c0,6.028,4.886,10.915,10.915,10.915h19.646V56.79z M61.766,49.148H39.33
			c-3.61,0-6.551-2.94-6.551-6.551s2.94-6.549,6.551-6.549h19.646c1.35-0.02,2.686-0.671,3.499-1.753
			c0.228-0.305,0.402-0.652,0.546-1.007c0.019-0.051,0.056-0.089,0.073-0.134c1.567,2.057,2.433,4.581,2.433,7.263
			C65.527,43.772,64.173,46.889,61.766,49.148z"/>
	</g>
</g>
<g id="calendar" display="none">
	<g display="inline">
		<path fill="#333333" d="M64.072,6.573h-9.46V2.208c0-1.207-0.978-2.182-2.185-2.182c-1.203,0-2.184,0.975-2.184,2.182v4.366
			H37.148V2.208c0-1.207-0.98-2.182-2.185-2.182c-1.204,0-2.185,0.975-2.185,2.182v4.366H19.683V2.208
			c0-1.207-0.979-2.182-2.184-2.182c-1.207,0-2.184,0.975-2.184,2.182v4.366h-9.46c-3.215,0-5.821,2.607-5.821,5.823v51.67
			c0,3.212,2.606,5.819,5.821,5.819h58.218c3.216,0,5.823-2.607,5.823-5.819v-51.67C69.896,9.181,67.288,6.573,64.072,6.573z
			 M65.527,64.066c0,0.8-0.652,1.457-1.455,1.457H5.854c-0.802,0-1.455-0.657-1.455-1.457v-51.67c0-0.802,0.653-1.457,1.455-1.457
			h9.46v4.369c0,1.207,0.978,2.182,2.184,2.182c1.205,0,2.184-0.975,2.184-2.182v-4.369h13.096v4.369
			c0,1.207,0.981,2.182,2.185,2.182c1.204,0,2.185-0.975,2.185-2.182v-4.369h13.096v4.369c0,1.207,0.98,2.182,2.184,2.182
			c1.207,0,2.185-0.975,2.185-2.182v-4.369h9.46c0.803,0,1.455,0.654,1.455,1.457V64.066z M15.315,32.775h8.732v-6.553h-8.732
			V32.775z M15.315,43.689h8.732v-6.55h-8.732V43.689z M15.315,54.604h8.732v-6.551h-8.732V54.604z M30.598,54.604h8.732v-6.551
			h-8.732V54.604z M30.598,43.689h8.732v-6.55h-8.732V43.689z M30.598,32.775h8.732v-6.553h-8.732V32.775z M45.881,54.604h8.731
			v-6.551h-8.731V54.604z M45.881,43.689h8.731v-6.55h-8.731V43.689z M45.881,32.775h8.731v-6.553h-8.731V32.775z"/>
	</g>
</g>
<g id="shop" display="none">
	<g display="inline">
		<path fill="#333333" d="M68.582,24.478l-6.545-8.73c-0.255-0.342-0.56-0.638-0.876-0.923V4.392c0-2.411-1.955-4.366-4.366-4.366
			H13.133c-2.412,0-4.368,1.956-4.368,4.366v10.436c-0.313,0.282-0.616,0.576-0.872,0.918l-6.546,8.73
			c-0.847,1.126-1.312,2.521-1.312,3.932v2.182c0,3.614,2.938,6.551,6.549,6.551H6.583v28.384c0,2.407,1.955,4.362,4.366,4.362
			h48.028c2.412,0,4.368-1.955,4.368-4.362V37.14c3.61,0,6.551-2.937,6.551-6.551v-2.182C69.896,26.997,69.429,25.601,68.582,24.478
			z M13.133,4.392h43.662v8.732H13.133V4.392z M43.273,17.49h4.779l8.733,15.285h-9.148L43.273,17.49z M45.367,32.775h-9.312V17.49
			h4.946L45.367,32.775z M28.924,17.49h4.946v15.285h-9.31L28.924,17.49z M22.286,32.775h-9.144l8.732-15.285h4.78L22.286,32.775z
			 M10.627,32.775H6.583c-1.206,0-2.183-0.98-2.183-2.187v-2.182c0-0.474,0.154-0.932,0.437-1.311l6.549-8.732
			c0.411-0.55,1.058-0.874,1.747-0.874h6.227L10.627,32.775z M43.696,65.523H27.323V43.689h16.374V65.523z M58.977,65.523H45.881
			V43.689c0-1.206-0.98-2.183-2.185-2.183H27.323c-1.205,0-2.185,0.977-2.185,2.183v21.834H10.949V37.14h48.028V65.523z
			 M65.527,30.589c0,1.207-0.976,2.187-2.183,2.187h-4.044L50.568,17.49h6.227c0.688,0,1.335,0.323,1.747,0.874l6.55,8.732
			c0.282,0.379,0.436,0.837,0.436,1.311V30.589z"/>
	</g>
</g>
<g id="clip" display="none">
	<g display="inline">
		<path fill="#333333" d="M64.138,9.086c-7.672-7.667-20.114-7.667-27.785,0L4.502,40.522c-5.956,5.955-5.956,15.639,0,21.593
			c5.957,5.95,15.652,5.95,21.609,0l31.85-31.441c4.265-4.26,4.265-11.162,0-15.422c-4.262-4.257-11.175-4.257-15.436,0
			L18.581,39.168c-0.853,0.855-0.853,2.233,0,3.088c0.853,0.852,2.235,0.852,3.088,0l23.945-23.92c2.555-2.547,6.708-2.547,9.262,0
			c2.555,2.552,2.555,6.703,0,9.255L23.023,59.027c-4.262,4.262-11.171,4.262-15.436,0c-4.262-4.257-4.262-11.159,0-15.417
			l31.541-31.133c5.971-5.964,15.647-5.964,21.611,0c5.973,5.965,5.973,15.625,0.002,21.587L37.108,57.678
			c-0.857,0.851-0.857,2.229,0,3.079c0.854,0.854,2.232,0.854,3.086,0l23.943-23.918C71.812,29.176,71.812,16.75,64.138,9.086z"/>
	</g>
</g>
</svg>
